<svg id="Layer_1" data-name="Layer 1" xmlns="http://www.w3.org/2000/svg" viewBox="0 0 32 32"><defs><style>.cls-1{fill:#e02d27;}.cls-2{fill:none;stroke:#ffc84d;stroke-miterlimit:10;stroke-width:0.3px;}.cls-3{fill:#ffc84d;}</style></defs><title>contacts</title><circle class="cls-1" cx="16" cy="16" r="16"/><circle class="cls-2" cx="16" cy="16" r="14.92"/><path class="cls-3" d="M11.58,59.88A5.1,5.1,0,0,0,9,63.73a9.43,9.43,0,0,0,1.51,5.92l1.55,2.66a9.6,9.6,0,0,0,4.44,4.25,5.24,5.24,0,0,0,4.65-.26A1.52,1.52,0,0,0,22,74.23c-0.88-.93-1.79-1.89-2.56-2.68a1.6,1.6,0,0,0-1.89-.17,2.28,2.28,0,0,1-3.16-.9l-1.11-1.9a2.21,2.21,0,0,1,.78-3.15,1.56,1.56,0,0,0,.8-1.7c-0.37-1.22-.73-2.48-1.07-3.53A1.56,1.56,0,0,0,11.58,59.88Z" transform="translate(0.19 -52.33)"/></svg>