<svg id="Layer_1" data-name="Layer 1" xmlns="http://www.w3.org/2000/svg" viewBox="0 0 32 32"><defs><style>.cls-1{fill:#e02d27;}.cls-2{fill:none;stroke:#ffc84d;stroke-miterlimit:10;stroke-width:0.3px;}.cls-3{fill:#ffc84d;}</style></defs><title>highlights</title><circle class="cls-1" cx="16" cy="16" r="16"/><circle class="cls-2" cx="16" cy="16" r="14.92"/><path class="cls-3" d="M120,59.39a9.11,9.11,0,1,0,9.11,9.11A9.11,9.11,0,0,0,120,59.39Zm-7.36,5.42a8.65,8.65,0,0,0,1.78,9.45A7.7,7.7,0,0,1,112.64,64.81Zm0.48-.24A8.65,8.65,0,0,0,114.9,74,7.7,7.7,0,0,1,113.12,64.57Zm0.35,1.24a7,7,0,0,0,1.4,7.44A6,6,0,0,1,113.47,65.82Zm0.48-.24a7,7,0,0,0,1.4,7.44A6,6,0,0,1,113.95,65.58Zm0.35,1.33a5,5,0,0,0,1,5.26A4.14,4.14,0,0,1,114.3,66.91Zm0.48-.24a5,5,0,0,0,1,5.26A4.14,4.14,0,0,1,114.78,66.67Zm0.56,1a3.78,3.78,0,0,0,.71,3.79A2.88,2.88,0,0,1,115.34,67.64Zm0.48-.24a3.78,3.78,0,0,0,.71,3.79A2.88,2.88,0,0,1,115.82,67.4ZM120,71.76a3.26,3.26,0,1,1,3.26-3.26A3.26,3.26,0,0,1,120,71.76Zm4.28-2.22a3.78,3.78,0,0,0-.71-3.79A2.88,2.88,0,0,1,124.28,69.54Zm0.48-.24a3.78,3.78,0,0,0-.71-3.79A2.88,2.88,0,0,1,124.76,69.3ZM124.33,65a4.14,4.14,0,0,1,1,5.26A5,5,0,0,0,124.33,65Zm0.48-.24a4.14,4.14,0,0,1,1,5.26A5,5,0,0,0,124.81,64.77Zm1.35,6.59a7,7,0,0,0-1.4-7.44A6,6,0,0,1,126.16,71.37Zm-0.92-7.68a6,6,0,0,1,1.4,7.44A7,7,0,0,0,125.23,63.68Zm0-.76A7.7,7.7,0,0,1,127,72.37,8.65,8.65,0,0,0,125.2,62.92Zm0.48-.24a7.7,7.7,0,0,1,1.78,9.45A8.65,8.65,0,0,0,125.68,62.68Z" transform="translate(-103.9 -52.33)"/><circle class="cls-3" cx="16.1" cy="16.17" r="0.85"/></svg>