<svg id="Layer_1" data-name="Layer 1" xmlns="http://www.w3.org/2000/svg" viewBox="0 0 32 32"><defs><style>.cls-1{fill:#e02d27;}.cls-2{fill:none;stroke:#ffc84d;stroke-miterlimit:10;stroke-width:0.3px;}.cls-3{fill:#ffc84d;}</style></defs><title>home</title><circle class="cls-1" cx="16" cy="16" r="16"/><circle class="cls-2" cx="16" cy="16" r="14.92"/><path class="cls-3" d="M69.09,59.17a0.91,0.91,0,0,0-1.25,0l-8.4,7.68a0.94,0.94,0,0,0,1.25,1.41l7.77-7.13,7.77,7.07a0.92,0.92,0,0,0,.63.24,1,1,0,0,0,.71-0.29,0.92,0.92,0,0,0-.08-1.33Z" transform="translate(-52.06 -52.33)"/><path class="cls-3" d="M61.61,68.1l1.14,7a1.84,1.84,0,0,0,1.84,1.55h7.85a1.85,1.85,0,0,0,1.84-1.55l1.14-7-7-6.13ZM70,70.39l-0.39,4.41a0.25,0.25,0,0,1-.24.22H67.48a0.25,0.25,0,0,1-.24-0.22l-0.39-4.41a0.23,0.23,0,0,1,.24-0.25h2.72A0.22,0.22,0,0,1,70,70.39Z" transform="translate(-52.06 -52.33)"/></svg>