<svg id="Layer_1" data-name="Layer 1" xmlns="http://www.w3.org/2000/svg" viewBox="0 0 32 32"><defs><style>.cls-1{fill:#e02d27;}.cls-2{fill:none;stroke:#ffc84d;stroke-miterlimit:10;stroke-width:0.3px;}.cls-3{fill:#ffc84d;}</style></defs><title>pr</title><circle class="cls-1" cx="16" cy="16" r="16"/><circle class="cls-2" cx="16" cy="16" r="14.92"/><g id="_Group_" data-name="&lt;Group&gt;"><path id="_Path_" data-name="&lt;Path&gt;" class="cls-3" d="M23.67,12.6V10.23C23.67,8.47,20.22,7,15.95,7S8.22,8.47,8.22,10.23V12.6a18.12,18.12,0,0,1,7.73-1.53A18.11,18.11,0,0,1,23.67,12.6Z" transform="translate(0.19)"/><path id="_Compound_Path_" data-name="&lt;Compound Path&gt;" class="cls-3" d="M15.95,12.41c-5.09,0-9.22,1.7-9.22,3.8v5.16a0.69,0.69,0,0,0,.69.69H8.24V23a1,1,0,0,0,2,0V22.07h11.4V23a1,1,0,0,0,2,0V22.07h0.82a0.69,0.69,0,0,0,.69-0.69V16.21C25.17,14.11,21,12.41,15.95,12.41Zm7,6.41H8.91a0.67,0.67,0,0,1,0-1.34H23A0.67,0.67,0,1,1,23,18.82Z" transform="translate(0.19)"/></g></svg>