<svg xmlns="http://www.w3.org/2000/svg" viewBox="0 0 146.61 47.95"><defs><style>.a{fill:#d60f0f;}.b{fill:#ffca45;}</style></defs><title>Box</title><rect class="a" width="146.61" height="47.95"/><path class="b" d="M389.56,90.56V85.41h-5.15v2H258.6V85.22h-5.15v5.15h2.22v32.25h-2.22v5.15h5.15v-2.42H384.41v2.22h5.15v-5.15h-2.23V90.56h2.23Zm-4.47-4.47h3.78v3.78h-1.55V87.42H385.1V86.09Zm0,2h1.55v1.77H385.1V88.11Zm-131,1.57V85.9h3.78v1.52h-2.24v2.26h-1.54Zm3.78-1.57v1.57h-1.56V88.11h1.56Zm0,39h-3.78V123.3h1.54v2h2.24v1.73Zm0-2.42h-1.56V123.3h1.56v1.36Zm131-1.56v3.78H385.1v-1.54h2.23V123.1h1.55Zm-3.78,1.56V123.1h1.55v1.56H385.1Zm1.55-2.24h-2.23v2.24H258.6v-2h-2.24V90.36h2.24V88.11H384.41v2.45h2.23v31.86Z" transform="translate(-248.22 -82.42)"/></svg>