<svg xmlns="http://www.w3.org/2000/svg" xmlns:xlink="http://www.w3.org/1999/xlink" viewBox="0 0 109.97 145.73"><defs><style>.a{fill:none;}.b{isolation:isolate;}.c{opacity:0.1;}.c,.k{mix-blend-mode:multiply;}.d{fill:#475751;}.e{fill:#93a8a1;}.f{fill:#8a604a;}.g{fill:#704d3a;}.h{fill:#bda173;}.i{fill:#f0d6aa;}.j{fill:#ffe3b5;}.k{opacity:0.2;}.l{fill:#a58e71;}.m{clip-path:url(#a);}.n{fill:#756451;}</style><clipPath id="a" transform="translate(-1921.44 -492.86)"><path class="a" d="M1992.59,564.79l0-.59a5.19,5.19,0,0,0-2.26-3.73l-4.32-2.56a4.75,4.75,0,0,0-4.29,0l-2.15,1.23a18.62,18.62,0,0,1-9.16-16.09l2.15-1.23a4.75,4.75,0,0,0,2.14-3.71v-5a5.19,5.19,0,0,0-2.05-3.85l-0.48-.32a4.39,4.39,0,0,0-4.21-.15l-3.23,1.84a4.89,4.89,0,0,0-1.22,1.53,31,31,0,0,0,21.84,38.46,4.83,4.83,0,0,0,2-.23l3.23-1.84A4.39,4.39,0,0,0,1992.59,564.79Z"/></clipPath></defs><title>Contacts</title><g class="b"><path class="c" d="M2031.35,531.18l0,0,0,0V526.6l-14.33-14.93c-22,15.58-40.66-6.53-40.66-6.53s-18.7,22.11-40.66,6.53l-14.33,14.93v4.53a18,18,0,0,1,5.8,11.7,26.66,26.66,0,0,1-1.07,5.17,53.25,53.25,0,0,0-2.25,17.8c-0.65,15.69,5.39,31.48,15.64,41.5,11.57,11.3,33,18.61,36.87,31.3,3.92-12.7,25.31-20,36.87-31.3,0.37-.37.74-0.74,1.1-1.12l0.33-.35,0.76-.84,0.34-.39,0.79-.94,0.24-.29q0.5-.62,1-1.26l0.23-.31,0.72-1,0.31-.45,0.63-.94L2020,599q0.41-.64.81-1.3l0.08-.14q0.4-.66.77-1.34l0.27-.49,0.52-1,0.28-.55c0.17-.34.34-0.68,0.5-1l0.23-.47q0.34-.72.65-1.45l0.22-.52c0.14-.33.28-0.67,0.42-1l0.25-.65,0.35-.93,0.24-.65c0.13-.37.26-0.75,0.38-1.13l0.26-.82c0.12-.37.23-0.75,0.34-1.13l0.21-.73c0.08-.29.16-0.58,0.24-0.88l0.2-.78c0.07-.29.14-0.59,0.21-0.88s0.12-.51.18-0.76q0.16-.74.3-1.49c0.05-.27.1-0.54,0.14-0.81s0.1-.56.14-0.84,0.09-.58.13-0.87,0.08-.53.11-0.8,0.08-.58.11-0.88,0.06-.55.09-0.82q0.08-.76.14-1.53c0-.27,0-0.53.06-0.8s0-.61,0-0.92,0-.5,0-0.76,0-.62,0-0.93,0-.5,0-0.75,0-.62,0-0.94,0-.56,0-0.85,0-.42,0-0.63a55.14,55.14,0,0,0-.36-8.89l0-.29q-0.11-.89-0.26-1.78l-0.1-.57q-0.13-.75-0.29-1.51c0-.22-0.09-0.44-0.14-0.65-0.11-.49-0.23-1-0.35-1.48-0.05-.2-0.1-0.41-0.15-0.61-0.18-.68-0.37-1.36-0.58-2q-0.21-.69-0.38-1.35l0-.17c-0.1-.39-0.19-0.77-0.26-1.15v-0.07q-0.25-1.26-.37-2.43h0a18.42,18.42,0,0,1,5.33-11.27h0Z" transform="translate(-1921.44 -492.86)"/><path class="d" d="M1976.43,626.32c3.92-12.7,25.31-20,36.87-31.3,13.17-12.87,19.41-35.29,13.39-54.77-4.39-14.2,4.72-21.4,4.72-21.4v-4.53c-22,15.58-55-16.93-55-16.93s-33,32.51-55,16.93v4.53s9.11,7.19,4.72,21.4c-6,19.48.22,41.89,13.39,54.77C1951.12,606.32,1972.5,613.63,1976.43,626.32Z" transform="translate(-1921.44 -492.86)"/><path class="e" d="M1976.43,621.79c3.92-12.7,25.31-20,36.87-31.3,13.17-12.87,19.41-35.29,13.39-54.77-4.39-14.2,4.72-21.4,4.72-21.4l-14.33-14.93c-22,15.58-40.66-6.53-40.66-6.53s-18.7,22.11-40.66,6.53l-14.33,14.93s9.11,7.2,4.72,21.4c-6,19.48.22,41.89,13.39,54.77C1951.12,601.8,1972.5,609.1,1976.43,621.79Z" transform="translate(-1921.44 -492.86)"/><path class="f" d="M1933.83,563.51a45,45,0,0,0,11.61,21c3.81,3.72,9.35,7.26,14.72,10.68,5.76,3.67,11.62,7.41,16.26,11.87,4.64-4.46,10.51-8.2,16.26-11.87,5.36-3.42,10.91-7,14.72-10.68a45,45,0,0,0,11.61-21,46.71,46.71,0,0,0-.39-25.29c-3-9.77-1.27-17.71,1.7-23.26L2015.6,510a34.27,34.27,0,0,1-14.74,3.37c-10.42,0-19-4.89-24.43-9.11-5.45,4.21-14,9.11-24.43,9.11a34.27,34.27,0,0,1-14.74-3.37l-4.74,4.94c3,5.55,4.72,13.49,1.7,23.26A46.71,46.71,0,0,0,1933.83,563.51Z" transform="translate(-1921.44 -492.86)"/><path class="g" d="M1954.57,591.52V513.27c-0.85.07-1.7,0.11-2.58,0.11h-0.12v76.29C1952.75,590.29,1953.65,590.91,1954.57,591.52Z" transform="translate(-1921.44 -492.86)"/><path class="g" d="M1939.11,510.82c-0.62-.25-1.24-0.52-1.85-0.81l-0.85.89V571a46.65,46.65,0,0,0,2.7,5.28v-65.5Z" transform="translate(-1921.44 -492.86)"/><path class="g" d="M1970,601.74V508.47c-0.86.48-1.76,0.94-2.7,1.37v90Q1968.71,600.77,1970,601.74Z" transform="translate(-1921.44 -492.86)"/><path class="g" d="M2016.45,571V510.9l-0.85-.89q-0.92.43-1.85,0.81v65.5A46.58,46.58,0,0,0,2016.45,571Z" transform="translate(-1921.44 -492.86)"/><path class="g" d="M1985.51,509.84c-0.94-.43-1.84-0.89-2.7-1.37v93.27q1.33-1,2.7-1.91v-90Z" transform="translate(-1921.44 -492.86)"/><path class="g" d="M2001,589.67V513.38h-0.12c-0.87,0-1.73,0-2.58-.11v78.25C1999.2,590.91,2000.1,590.29,2001,589.67Z" transform="translate(-1921.44 -492.86)"/><path class="h" d="M1949.12,562.72a31.32,31.32,0,0,0,7.45,14.31,61.32,61.32,0,0,0,9.44,7.29,67.26,67.26,0,0,1,10.43,8.11,67.26,67.26,0,0,1,10.43-8.11,61.32,61.32,0,0,0,9.44-7.29,31.32,31.32,0,0,0,7.45-14.31,33.89,33.89,0,0,0-.25-17.27,21.42,21.42,0,0,1,1.09-15.88v-3.42c-3,1.53-9.25,2.35-12.49,2.35-6.68,0-12.17-3.34-15.66-6.22-3.49,2.88-9,6.22-15.66,6.22-3.24,0-9.44-.82-12.49-2.35v3.42a21.42,21.42,0,0,1,1.09,15.88A33.89,33.89,0,0,0,1949.12,562.72Z" transform="translate(-1921.44 -492.86)"/><path class="i" d="M1949.12,559.3a31.32,31.32,0,0,0,7.45,14.31,61.32,61.32,0,0,0,9.44,7.29,67.26,67.26,0,0,1,10.43,8.11,67.26,67.26,0,0,1,10.43-8.11,61.32,61.32,0,0,0,9.44-7.29,31.32,31.32,0,0,0,7.45-14.31,33.89,33.89,0,0,0-.25-17.27,21.42,21.42,0,0,1,1.09-15.88l-3-3.37a20.86,20.86,0,0,1-9.45,2.3c-6.68,0-12.17-3.34-15.66-6.22-3.49,2.88-9,6.22-15.66,6.22a20.86,20.86,0,0,1-9.45-2.3l-3,3.37a21.42,21.42,0,0,1,1.09,15.88A33.89,33.89,0,0,0,1949.12,559.3Z" transform="translate(-1921.44 -492.86)"/><path class="j" d="M1949.41,560.42l36.35-36.35a28.36,28.36,0,0,1-9.33-5.21c-3.46,2.85-8.9,6.16-15.51,6.21l-10.55,10.55a24.52,24.52,0,0,1-1,6.41,33.89,33.89,0,0,0-.25,17.27C1949.21,559.68,1949.31,560.05,1949.41,560.42Z" transform="translate(-1921.44 -492.86)"/><path class="j" d="M1961.65,577.87l40.9-40.9a20.38,20.38,0,0,1,2-10.82l-3-3.37-0.62.29q-23.48,23.64-47.06,47.19a25.69,25.69,0,0,0,2.7,3.36A38.6,38.6,0,0,0,1961.65,577.87Z" transform="translate(-1921.44 -492.86)"/><path class="j" d="M2004.47,555.12a34.94,34.94,0,0,0,.23-5.21l-34.16,34.16q1.45,1.05,2.81,2.16Z" transform="translate(-1921.44 -492.86)"/><path class="k" d="M1976.43,626.32c3.92-12.7,25.31-20,36.87-31.3,10.25-10,16.3-25.81,15.64-41.5a53.25,53.25,0,0,0-2.25-17.8,26.7,26.7,0,0,1-1.07-5.17,18,18,0,0,1,5.8-11.7v-4.53l-14.33-14.93c-22,15.58-40.66-6.53-40.66-6.53V626.32Z" transform="translate(-1921.44 -492.86)"/><path class="l" d="M1992.59,564.79l0-.59a5.19,5.19,0,0,0-2.26-3.73l-4.32-2.56a4.75,4.75,0,0,0-4.29,0l-2.15,1.23a18.62,18.62,0,0,1-9.16-16.09l2.15-1.23a4.75,4.75,0,0,0,2.14-3.71v-5a5.19,5.19,0,0,0-2.05-3.85l-0.48-.32a4.39,4.39,0,0,0-4.21-.15l-3.23,1.84a4.89,4.89,0,0,0-1.22,1.53,31,31,0,0,0,21.84,38.46,4.83,4.83,0,0,0,2-.23l3.23-1.84A4.39,4.39,0,0,0,1992.59,564.79Z" transform="translate(-1921.44 -492.86)"/><g class="m"><path class="n" d="M1989.4,572.13h-9.49l-9.57-6.17-8-7.3-4.21-13.32,4.1-14.49,2.55-1.42,1.62,0.14a4.89,4.89,0,0,0-1.22,1.53A31,31,0,0,0,1987,569.57a4.83,4.83,0,0,0,2-.23Z" transform="translate(-1921.44 -492.86)"/></g></g></svg>