<svg xmlns="http://www.w3.org/2000/svg" viewBox="0 0 1920.01 1080.34"><defs><style>.a{isolation:isolate;}.b{fill:#191817;}.c{fill:#111110;}.d{fill:#161616;}.e{fill:#bfab86;}.f,.v{fill:#44413e;mix-blend-mode:multiply;}.f{opacity:0.15;}.g{fill:#3d3b32;}.h{fill:#826f51;}.i{fill:#feffef;}.j{fill:#232221;}.k{fill:#704b3c;}.l{fill:#16100b;}.l,.v{opacity:0.34;}.m{fill:#846551;}.n{fill:#5b3d2f;}.o{fill:#6d4f3e;}.p{fill:#383634;}.q{fill:#12110d;}.r{fill:#d8be9a;}.s{fill:#efd5b6;}.t{fill:#fff;}.u{fill:#2b2827;}.w{fill:#44291f;}.x{fill:#2d201a;opacity:0.79;}.y{fill:#494543;}.aa,.ab,.ac,.ad,.y,.z{fill-rule:evenodd;}.z{fill:#21201e;}.aa{fill:#b5997f;}.ab{fill:#ededed;}.ac{fill:#e4c97d;}.ad{fill:#d5ad6b;}.ae{fill:#1e1d1d;}.af{fill:#684f41;}.ag{fill:#feffe3;opacity:0.2;}</style></defs><title>Untitled-1dojo</title><g class="a"><rect class="b" y="376.16" width="247.17" height="361.38"/><polyline class="c" points="0 375.16 120.92 377.01 120.92 737.23 0 774.21"/><rect class="d" x="299.16" y="0.04" width="1265.29" height="696.38"/><path class="e" d="M1126.73,1623.69v325.94H741.34V1623.69h13.57c1.14,0,2.3-.05,3.44-0.15a41.24,41.24,0,0,0,6.67-1.09,39,39,0,0,0,7.22-2.52,41.77,41.77,0,0,1,17.32-3.72H1078.5a42,42,0,0,1,17.34,3.72,41.19,41.19,0,0,0,14.83,3.68c0.84,0.05,1.67.07,2.51,0.07h13.56Z" transform="translate(0 -1298.96)"/><path class="f" d="M848.3,1616.22V1855H765V1622.45a39,39,0,0,0,7.22-2.52,41.77,41.77,0,0,1,17.32-3.72H848.3Z" transform="translate(0 -1298.96)"/><path class="f" d="M1019.74,1616.22V1855H1103V1622.45a39,39,0,0,1-7.22-2.52,41.77,41.77,0,0,0-17.32-3.72h-58.73Z" transform="translate(0 -1298.96)"/><rect class="g" x="754.24" y="561.33" width="91.94" height="3.31"/><rect class="g" x="1023.06" y="561.33" width="91.94" height="3.31"/><path class="h" d="M841.63,1616.21v250.08H758.36V1623.54a41.22,41.22,0,0,0,13.9-3.6,41.74,41.74,0,0,1,17.33-3.74h52Z" transform="translate(0 -1298.96)"/><path class="h" d="M1110.66,1623.62v242.67h-83.27V1616.21h51.11a41.78,41.78,0,0,1,17.33,3.74A41.67,41.67,0,0,0,1110.66,1623.62Z" transform="translate(0 -1298.96)"/><rect class="i" x="299.16" y="13.31" width="614.99" height="96.24"/><path class="j" d="M1208,1618.78a40.07,40.07,0,0,0,16.62-3.58,40.06,40.06,0,0,1,16.62-3.58h277a40.06,40.06,0,0,1,16.62,3.58,40.07,40.07,0,0,0,16.62,3.58h13v332.63H1195V1618.78h13Z" transform="translate(0 -1298.96)"/><rect class="i" x="951.63" y="1312.27" width="612.83" height="96.24" transform="translate(2516.09 1421.83) rotate(180)"/><rect class="k" x="914.15" y="0.08" width="37.48" height="288.25"/><rect class="l" x="914.15" y="0.08" width="16.89" height="288.25"/><rect class="m" x="1191.98" y="1942.31" width="372.48" height="9.11" transform="translate(2756.43 2594.76) rotate(180)"/><rect class="n" x="1484.12" y="1627.06" width="33.54" height="315.24" transform="translate(3001.77 2270.41) rotate(180)"/><rect class="o" x="1193.99" y="1627.06" width="290.13" height="20.83" transform="translate(2678.11 1976) rotate(180)"/><rect class="m" x="1233.75" y="343.58" width="250.36" height="299.76"/><rect class="o" x="1233.75" y="582.96" width="250.36" height="60.38"/><rect class="i" x="1243.1" y="1663.53" width="196.39" height="57.02" transform="translate(2682.58 2085.13) rotate(180)"/><rect class="p" x="1243.1" y="374.19" width="196.39" height="1.36"/><rect class="p" x="1243.1" y="411.61" width="196.39" height="1.36"/><rect class="p" x="1424.61" y="364.57" width="1.43" height="57.02"/><rect class="p" x="1409.71" y="364.57" width="1.43" height="57.02"/><rect class="p" x="1394.8" y="364.57" width="1.43" height="57.02"/><rect class="p" x="1379.89" y="364.57" width="1.43" height="57.02"/><rect class="p" x="1364.98" y="364.57" width="1.43" height="57.02"/><rect class="p" x="1350.07" y="364.57" width="1.43" height="57.02"/><rect class="p" x="1335.17" y="364.57" width="1.43" height="57.02"/><rect class="p" x="1320.26" y="364.57" width="1.43" height="57.02"/><rect class="p" x="1305.35" y="364.57" width="1.43" height="57.02"/><rect class="p" x="1290.44" y="364.57" width="1.43" height="57.02"/><rect class="p" x="1275.53" y="364.57" width="1.43" height="57.02"/><rect class="p" x="1260.62" y="364.57" width="1.43" height="57.02"/><rect class="i" x="1243.1" y="1742.71" width="196.39" height="139.21" transform="translate(2682.58 2325.67) rotate(180)"/><rect class="p" x="1243.1" y="468.21" width="196.39" height="1.36"/><rect class="p" x="1243.1" y="559.56" width="196.39" height="1.36"/><rect class="p" x="1424.61" y="443.75" width="1.43" height="139.21"/><rect class="p" x="1409.71" y="443.75" width="1.43" height="139.21"/><rect class="p" x="1394.8" y="443.75" width="1.43" height="139.21"/><rect class="p" x="1379.89" y="443.75" width="1.43" height="139.21"/><rect class="p" x="1364.98" y="443.75" width="1.43" height="139.21"/><rect class="p" x="1350.07" y="443.75" width="1.43" height="139.21"/><rect class="p" x="1335.17" y="443.75" width="1.43" height="139.21"/><rect class="p" x="1320.26" y="443.75" width="1.43" height="139.21"/><rect class="p" x="1305.35" y="443.75" width="1.43" height="139.21"/><rect class="p" x="1290.44" y="443.75" width="1.43" height="139.21"/><rect class="p" x="1275.53" y="443.75" width="1.43" height="139.21"/><rect class="p" x="1260.62" y="443.75" width="1.43" height="139.21"/><rect class="q" x="884.82" y="401.88" width="98.43" height="3.27"/><rect class="q" x="906.95" y="394.24" width="3.05" height="67.36"/><rect class="q" x="958.08" y="394.24" width="3.05" height="67.36"/><path class="q" d="M988.61,1736.87c-14.39,3.22-49.51,3.16-54.29,3.14h-0.56c-4.77,0-39.9.08-54.29-3.14v4.18s8.15,2.07,54.29,2.09h0.56c46.14,0,54.29-2.09,54.29-2.09v-4.18Z" transform="translate(0 -1298.96)"/><rect class="q" x="897.89" y="449.01" width="72.3" height="2.55"/><rect class="q" x="888.35" y="455.01" width="91.37" height="2.55"/><path class="g" d="M975.82,1758.25a377.34,377.34,0,0,1-83.55,0c0.23,8,9.36,14.29,9.36,14.29v8.56h9v-6.44c0.76,0.06,1.53.1,2.29,0.1h42.28c0.77,0,1.53,0,2.29-.1v6.44h9v-8.56S975.59,1766.21,975.82,1758.25Z" transform="translate(0 -1298.96)"/><path class="q" d="M897,631.67h74.7a9.63,9.63,0,0,1,9.63,9.63v9.48a0,0,0,0,1,0,0h-94a0,0,0,0,1,0,0V641.3A9.62,9.62,0,0,1,897,631.67Z"/><rect class="q" x="894.88" y="485.03" width="5.26" height="149.37"/><rect class="q" x="967.94" y="485.03" width="5.26" height="149.37"/><rect class="q" x="909.38" y="485.03" width="5.26" height="149.37"/><rect class="q" x="953.44" y="485.03" width="5.26" height="149.37"/><rect class="q" x="924.03" y="485.03" width="5.26" height="149.37"/><rect class="q" x="938.79" y="485.03" width="5.26" height="149.37"/><rect class="g" x="924.5" y="436.45" width="19.08" height="23.65"/><rect class="r" x="926.7" y="437.91" width="14.69" height="12.55"/><rect class="g" x="903.17" y="625.3" width="62.38" height="6.37"/><path class="q" d="M968.39,1787.58h-68.7a10.68,10.68,0,0,1-9.13-5l-2.37-3.87h91.71l-2.37,3.87A10.68,10.68,0,0,1,968.39,1787.58Z" transform="translate(0 -1298.96)"/><rect class="s" x="766.53" y="349.55" width="65.05" height="197.61"/><rect class="s" x="1036.5" y="349.55" width="65.05" height="197.61"/><rect class="p" x="484.06" y="13.31" width="1.43" height="96.24"/><rect class="p" x="494.06" y="13.31" width="1.43" height="96.24"/><rect class="p" x="674.06" y="13.31" width="1.43" height="96.24"/><rect class="p" x="684.06" y="13.31" width="1.43" height="96.24"/><rect class="p" x="694.06" y="13.31" width="1.43" height="96.24"/><rect class="p" x="704.06" y="13.31" width="1.43" height="96.24"/><rect class="p" x="714.06" y="13.31" width="1.43" height="96.24"/><rect class="p" x="724.06" y="13.31" width="1.43" height="96.24"/><rect class="p" x="734.06" y="13.31" width="1.43" height="96.24"/><rect class="p" x="744.06" y="13.31" width="1.43" height="96.24"/><rect class="p" x="754.06" y="13.31" width="1.43" height="96.24"/><rect class="p" x="764.06" y="13.31" width="1.43" height="96.24"/><rect class="p" x="774.06" y="13.31" width="1.43" height="96.24"/><rect class="p" x="784.06" y="13.31" width="1.43" height="96.24"/><rect class="p" x="794.06" y="13.31" width="1.43" height="96.24"/><rect class="p" x="804.06" y="13.31" width="1.43" height="96.24"/><rect class="p" x="814.06" y="13.31" width="1.43" height="96.24"/><rect class="p" x="824.06" y="13.31" width="1.43" height="96.24"/><rect class="p" x="834.06" y="13.31" width="1.43" height="96.24"/><rect class="p" x="844.06" y="13.31" width="1.43" height="96.24"/><rect class="p" x="854.06" y="13.31" width="1.43" height="96.24"/><rect class="p" x="864.06" y="13.31" width="1.43" height="96.24"/><rect class="p" x="874.06" y="13.31" width="1.43" height="96.24"/><rect class="p" x="884.06" y="13.31" width="1.43" height="96.24"/><rect class="p" x="894.06" y="13.31" width="1.43" height="96.24"/><rect class="p" x="904.06" y="13.31" width="1.43" height="96.24"/><rect class="p" x="1558.12" y="13.31" width="1.43" height="96.24"/><rect class="p" x="1548.12" y="13.31" width="1.43" height="96.24"/><rect class="p" x="1538.12" y="13.31" width="1.43" height="96.24"/><rect class="p" x="1528.12" y="13.31" width="1.43" height="96.24"/><rect class="p" x="1518.12" y="13.31" width="1.43" height="96.24"/><rect class="p" x="1508.12" y="13.31" width="1.43" height="96.24"/><rect class="p" x="1498.12" y="13.31" width="1.43" height="96.24"/><rect class="p" x="1488.12" y="13.31" width="1.43" height="96.24"/><rect class="p" x="1478.12" y="13.31" width="1.43" height="96.24"/><rect class="p" x="1468.12" y="13.31" width="1.43" height="96.24"/><rect class="p" x="1458.12" y="13.31" width="1.43" height="96.24"/><rect class="p" x="1448.12" y="13.31" width="1.43" height="96.24"/><rect class="p" x="1438.12" y="13.31" width="1.43" height="96.24"/><rect class="p" x="1428.12" y="13.31" width="1.43" height="96.24"/><rect class="p" x="1418.12" y="13.31" width="1.43" height="96.24"/><rect class="p" x="1408.12" y="13.31" width="1.43" height="96.24"/><rect class="p" x="1398.12" y="13.31" width="1.43" height="96.24"/><rect class="p" x="1388.12" y="13.31" width="1.43" height="96.24"/><rect class="p" x="1378.12" y="13.31" width="1.43" height="96.24"/><rect class="p" x="1368.12" y="13.31" width="1.43" height="96.24"/><rect class="p" x="1358.12" y="13.31" width="1.43" height="96.24"/><rect class="p" x="1348.12" y="13.31" width="1.43" height="96.24"/><rect class="p" x="1338.12" y="13.31" width="1.43" height="96.24"/><rect class="p" x="1328.12" y="13.31" width="1.43" height="96.24"/><rect class="p" x="1318.12" y="13.31" width="1.43" height="96.24"/><rect class="p" x="1308.12" y="13.31" width="1.43" height="96.24"/><rect class="p" x="1298.12" y="13.31" width="1.43" height="96.24"/><rect class="p" x="1288.12" y="13.31" width="1.43" height="96.24"/><rect class="p" x="1278.12" y="13.31" width="1.43" height="96.24"/><rect class="p" x="1268.12" y="13.31" width="1.43" height="96.24"/><rect class="p" x="1258.12" y="13.31" width="1.43" height="96.24"/><rect class="p" x="1248.12" y="13.31" width="1.43" height="96.24"/><rect class="p" x="1238.12" y="13.31" width="1.43" height="96.24"/><rect class="p" x="1228.12" y="13.31" width="1.43" height="96.24"/><rect class="p" x="1218.12" y="13.31" width="1.43" height="96.24"/><rect class="p" x="1208.12" y="13.31" width="1.43" height="96.24"/><rect class="p" x="1198.12" y="13.31" width="1.43" height="96.24"/><rect class="p" x="1188.12" y="13.31" width="1.43" height="96.24"/><rect class="p" x="1178.12" y="13.31" width="1.43" height="96.24"/><rect class="p" x="1168.12" y="13.31" width="1.43" height="96.24"/><rect class="p" x="1158.12" y="13.31" width="1.43" height="96.24"/><rect class="p" x="1148.12" y="13.31" width="1.43" height="96.24"/><rect class="p" x="1138.12" y="13.31" width="1.43" height="96.24"/><rect class="p" x="1128.12" y="13.31" width="1.43" height="96.24"/><rect class="p" x="1118.12" y="13.31" width="1.43" height="96.24"/><rect class="p" x="1108.12" y="13.31" width="1.43" height="96.24"/><rect class="p" x="1098.12" y="13.31" width="1.43" height="96.24"/><rect class="p" x="1088.12" y="13.31" width="1.43" height="96.24"/><rect class="p" x="1078.12" y="13.31" width="1.43" height="96.24"/><rect class="p" x="1068.12" y="13.31" width="1.43" height="96.24"/><rect class="p" x="1058.12" y="13.31" width="1.43" height="96.24"/><rect class="p" x="1048.12" y="13.31" width="1.43" height="96.24"/><rect class="p" x="1038.12" y="13.31" width="1.43" height="96.24"/><rect class="p" x="1028.12" y="13.31" width="1.43" height="96.24"/><rect class="p" x="1018.12" y="13.31" width="1.43" height="96.24"/><rect class="p" x="1008.12" y="13.31" width="1.43" height="96.24"/><rect class="p" x="998.12" y="13.31" width="1.43" height="96.24"/><rect class="p" x="988.12" y="13.31" width="1.43" height="96.24"/><rect class="p" x="978.12" y="13.31" width="1.43" height="96.24"/><rect class="p" x="968.12" y="13.31" width="1.43" height="96.24"/><rect class="p" x="958.12" y="13.31" width="1.43" height="96.24"/><rect class="p" x="949.46" y="91.65" width="614.99" height="1.36"/><rect class="p" x="949.46" y="34.31" width="614.99" height="1.36"/><rect class="p" x="304.07" y="13.31" width="1.43" height="96.24"/><rect class="p" x="314.07" y="13.31" width="1.43" height="96.24"/><rect class="p" x="324.07" y="13.31" width="1.43" height="96.24"/><rect class="p" x="334.07" y="13.31" width="1.43" height="96.24"/><rect class="p" x="344.07" y="13.31" width="1.43" height="96.24"/><rect class="p" x="354.07" y="13.31" width="1.43" height="96.24"/><rect class="p" x="364.07" y="13.31" width="1.43" height="96.24"/><rect class="p" x="374.07" y="13.31" width="1.43" height="96.24"/><rect class="p" x="384.07" y="13.31" width="1.43" height="96.24"/><rect class="p" x="394.07" y="13.31" width="1.43" height="96.24"/><rect class="p" x="404.07" y="13.31" width="1.43" height="96.24"/><rect class="p" x="414.07" y="13.31" width="1.43" height="96.24"/><rect class="p" x="424.07" y="13.31" width="1.43" height="96.24"/><rect class="p" x="434.07" y="13.31" width="1.43" height="96.24"/><rect class="p" x="444.07" y="13.31" width="1.43" height="96.24"/><rect class="p" x="454.07" y="13.31" width="1.43" height="96.24"/><rect class="p" x="464.07" y="13.31" width="1.43" height="96.24"/><rect class="p" x="474.06" y="13.31" width="1.43" height="96.24"/><rect class="p" x="504.06" y="13.31" width="1.43" height="96.24"/><rect class="p" x="514.06" y="13.31" width="1.43" height="96.24"/><rect class="p" x="524.06" y="13.31" width="1.43" height="96.24"/><rect class="p" x="534.06" y="13.31" width="1.43" height="96.24"/><rect class="p" x="544.06" y="13.31" width="1.43" height="96.24"/><rect class="p" x="554.06" y="13.31" width="1.43" height="96.24"/><rect class="p" x="564.06" y="13.31" width="1.43" height="96.24"/><rect class="p" x="574.06" y="13.31" width="1.43" height="96.24"/><rect class="p" x="584.06" y="13.31" width="1.43" height="96.24"/><rect class="p" x="594.06" y="13.31" width="1.43" height="96.24"/><rect class="p" x="604.06" y="13.31" width="1.43" height="96.24"/><rect class="p" x="614.06" y="13.31" width="1.43" height="96.24"/><rect class="p" x="624.06" y="13.31" width="1.43" height="96.24"/><rect class="p" x="634.06" y="13.31" width="1.43" height="96.24"/><rect class="p" x="644.06" y="13.31" width="1.43" height="96.24"/><rect class="p" x="654.06" y="13.31" width="1.43" height="96.24"/><rect class="p" x="664.06" y="13.31" width="1.43" height="96.24"/><rect class="p" x="299.16" y="91.65" width="614.99" height="1.36"/><rect class="p" x="299.16" y="34.31" width="614.99" height="1.36"/><rect class="i" x="299.16" y="134.69" width="614.99" height="153.65"/><rect class="t" x="951.63" y="1433.65" width="612.83" height="153.65" transform="translate(2516.09 1721.99) rotate(180)"/><rect class="p" x="487.87" y="134.69" width="1.43" height="153.65"/><rect class="p" x="497.84" y="134.69" width="1.43" height="153.65"/><rect class="p" x="677.2" y="134.69" width="1.43" height="153.65"/><rect class="p" x="687.16" y="134.69" width="1.43" height="153.65"/><rect class="p" x="697.13" y="134.69" width="1.43" height="153.65"/><rect class="p" x="707.09" y="134.69" width="1.43" height="153.65"/><rect class="p" x="717.06" y="134.69" width="1.43" height="153.65"/><rect class="p" x="727.02" y="134.69" width="1.43" height="153.65"/><rect class="p" x="736.99" y="134.69" width="1.43" height="153.65"/><rect class="p" x="746.95" y="134.69" width="1.43" height="153.65"/><rect class="p" x="756.92" y="134.69" width="1.43" height="153.65"/><rect class="p" x="766.88" y="134.69" width="1.43" height="153.65"/><rect class="p" x="776.85" y="134.69" width="1.43" height="153.65"/><rect class="p" x="786.81" y="134.69" width="1.43" height="153.65"/><rect class="p" x="796.78" y="134.69" width="1.43" height="153.65"/><rect class="p" x="806.74" y="134.69" width="1.43" height="153.65"/><rect class="p" x="816.7" y="134.69" width="1.43" height="153.65"/><rect class="p" x="826.67" y="134.69" width="1.43" height="153.65"/><rect class="p" x="836.63" y="134.69" width="1.43" height="153.65"/><rect class="p" x="846.6" y="134.69" width="1.43" height="153.65"/><rect class="p" x="856.56" y="134.69" width="1.43" height="153.65"/><rect class="p" x="866.53" y="134.69" width="1.43" height="153.65"/><rect class="p" x="876.49" y="134.69" width="1.43" height="153.65"/><rect class="p" x="886.46" y="134.69" width="1.43" height="153.65"/><rect class="p" x="896.42" y="134.69" width="1.43" height="153.65"/><rect class="p" x="906.39" y="134.69" width="1.43" height="153.65"/><rect class="p" x="1558.14" y="134.69" width="1.43" height="153.65"/><rect class="p" x="1548.18" y="134.69" width="1.43" height="153.65"/><rect class="p" x="1538.21" y="134.69" width="1.43" height="153.65"/><rect class="p" x="1528.24" y="134.69" width="1.43" height="153.65"/><rect class="p" x="1518.28" y="134.69" width="1.43" height="153.65"/><rect class="p" x="1508.32" y="134.69" width="1.43" height="153.65"/><rect class="p" x="1498.35" y="134.69" width="1.43" height="153.65"/><rect class="p" x="1488.39" y="134.69" width="1.43" height="153.65"/><rect class="p" x="1478.42" y="134.69" width="1.43" height="153.65"/><rect class="p" x="1468.46" y="134.69" width="1.43" height="153.65"/><rect class="p" x="1458.49" y="134.69" width="1.43" height="153.65"/><rect class="p" x="1448.53" y="134.69" width="1.43" height="153.65"/><rect class="p" x="1438.56" y="134.69" width="1.43" height="153.65"/><rect class="p" x="1428.6" y="134.69" width="1.43" height="153.65"/><rect class="p" x="1418.63" y="134.69" width="1.43" height="153.65"/><rect class="p" x="1408.67" y="134.69" width="1.43" height="153.65"/><rect class="p" x="1398.7" y="134.69" width="1.43" height="153.65"/><rect class="p" x="1388.74" y="134.69" width="1.43" height="153.65"/><rect class="p" x="1378.77" y="134.69" width="1.43" height="153.65"/><rect class="p" x="1368.81" y="134.69" width="1.43" height="153.65"/><rect class="p" x="1358.85" y="134.69" width="1.43" height="153.65"/><rect class="p" x="1348.88" y="134.69" width="1.43" height="153.65"/><rect class="p" x="1338.92" y="134.69" width="1.43" height="153.65"/><rect class="p" x="1328.95" y="134.69" width="1.43" height="153.65"/><rect class="p" x="1318.99" y="134.69" width="1.43" height="153.65"/><rect class="p" x="1309.02" y="134.69" width="1.43" height="153.65"/><rect class="p" x="1299.06" y="134.69" width="1.43" height="153.65"/><rect class="p" x="1289.09" y="134.69" width="1.43" height="153.65"/><rect class="p" x="1279.13" y="134.69" width="1.43" height="153.65"/><rect class="p" x="1269.16" y="134.69" width="1.43" height="153.65"/><rect class="p" x="1259.2" y="134.69" width="1.43" height="153.65"/><rect class="p" x="1249.23" y="134.69" width="1.43" height="153.65"/><rect class="p" x="1239.27" y="134.69" width="1.43" height="153.65"/><rect class="p" x="1229.31" y="134.69" width="1.43" height="153.65"/><rect class="p" x="1219.34" y="134.69" width="1.43" height="153.65"/><rect class="p" x="1209.37" y="134.69" width="1.43" height="153.65"/><rect class="p" x="1199.41" y="134.69" width="1.43" height="153.65"/><rect class="p" x="1189.45" y="134.69" width="1.43" height="153.65"/><rect class="p" x="1179.48" y="134.69" width="1.43" height="153.65"/><rect class="p" x="1169.52" y="134.69" width="1.43" height="153.65"/><rect class="p" x="1159.55" y="134.69" width="1.43" height="153.65"/><rect class="p" x="1149.59" y="134.69" width="1.43" height="153.65"/><rect class="p" x="1139.62" y="134.69" width="1.43" height="153.65"/><rect class="p" x="1129.66" y="134.69" width="1.43" height="153.65"/><polygon class="u" points="247.17 737.83 299.67 716.48 299.67 0.04 247.17 0.04 247.17 737.83"/><rect class="p" x="1119.69" y="134.69" width="1.43" height="153.65"/><rect class="p" x="1109.73" y="134.69" width="1.43" height="153.65"/><rect class="p" x="1099.76" y="134.69" width="1.43" height="153.65"/><rect class="p" x="1089.8" y="134.69" width="1.43" height="153.65"/><rect class="p" x="1079.84" y="134.69" width="1.43" height="153.65"/><rect class="p" x="1069.87" y="134.69" width="1.43" height="153.65"/><rect class="p" x="1059.91" y="134.69" width="1.43" height="153.65"/><rect class="p" x="1049.94" y="134.69" width="1.43" height="153.65"/><rect class="p" x="1039.98" y="134.69" width="1.43" height="153.65"/><rect class="p" x="1030.01" y="134.69" width="1.43" height="153.65"/><rect class="p" x="1020.05" y="134.69" width="1.43" height="153.65"/><rect class="p" x="1010.08" y="134.69" width="1.43" height="153.65"/><rect class="p" x="1000.12" y="134.69" width="1.43" height="153.65"/><rect class="p" x="990.15" y="134.69" width="1.43" height="153.65"/><rect class="p" x="980.19" y="134.69" width="1.43" height="153.65"/><rect class="p" x="970.22" y="134.69" width="1.43" height="153.65"/><rect class="p" x="960.26" y="134.69" width="1.43" height="153.65"/><rect class="p" x="951.63" y="268.82" width="612.83" height="2.17"/><rect class="p" x="951.63" y="168.21" width="612.83" height="2.17"/><rect class="p" x="304.07" y="134.69" width="1.43" height="153.65"/><rect class="p" x="314.07" y="134.69" width="1.43" height="153.65"/><rect class="p" x="324.07" y="134.69" width="1.43" height="153.65"/><rect class="p" x="334.07" y="134.69" width="1.43" height="153.65"/><rect class="p" x="348.37" y="134.69" width="1.43" height="153.65"/><rect class="p" x="358.33" y="134.69" width="1.43" height="153.65"/><rect class="p" x="368.3" y="134.69" width="1.43" height="153.65"/><rect class="p" x="378.26" y="134.69" width="1.43" height="153.65"/><rect class="p" x="388.22" y="134.69" width="1.43" height="153.65"/><rect class="p" x="398.19" y="134.69" width="1.43" height="153.65"/><rect class="p" x="408.15" y="134.69" width="1.43" height="153.65"/><rect class="p" x="418.12" y="134.69" width="1.43" height="153.65"/><rect class="p" x="428.08" y="134.69" width="1.43" height="153.65"/><rect class="p" x="438.05" y="134.69" width="1.43" height="153.65"/><rect class="p" x="448.01" y="134.69" width="1.43" height="153.65"/><rect class="p" x="457.98" y="134.69" width="1.43" height="153.65"/><rect class="p" x="467.94" y="134.69" width="1.43" height="153.65"/><rect class="p" x="477.91" y="134.69" width="1.43" height="153.65"/><rect class="p" x="507.8" y="134.69" width="1.43" height="153.65"/><rect class="p" x="517.76" y="134.69" width="1.43" height="153.65"/><rect class="p" x="527.73" y="134.69" width="1.43" height="153.65"/><rect class="p" x="537.69" y="134.69" width="1.43" height="153.65"/><rect class="p" x="547.66" y="134.69" width="1.43" height="153.65"/><rect class="p" x="557.62" y="134.69" width="1.43" height="153.65"/><rect class="p" x="567.59" y="134.69" width="1.43" height="153.65"/><rect class="p" x="577.55" y="134.69" width="1.43" height="153.65"/><rect class="p" x="587.52" y="134.69" width="1.43" height="153.65"/><rect class="p" x="597.48" y="134.69" width="1.43" height="153.65"/><rect class="p" x="607.45" y="134.69" width="1.43" height="153.65"/><rect class="p" x="617.41" y="134.69" width="1.43" height="153.65"/><rect class="p" x="627.38" y="134.69" width="1.43" height="153.65"/><rect class="p" x="637.34" y="134.69" width="1.43" height="153.65"/><rect class="p" x="647.31" y="134.69" width="1.43" height="153.65"/><rect class="p" x="657.27" y="134.69" width="1.43" height="153.65"/><rect class="p" x="667.24" y="134.69" width="1.43" height="153.65"/><rect class="p" x="299.16" y="268.82" width="614.99" height="2.17"/><rect class="p" x="299.16" y="168.21" width="614.99" height="2.17"/><rect class="k" x="488.59" y="0.08" width="18.06" height="109.47"/><rect class="l" x="497.62" y="0.08" width="9.03" height="109.47"/><rect class="k" x="299.66" y="0.08" width="18.06" height="288.26"/><rect class="l" x="308.7" y="0.08" width="9.03" height="288.26"/><rect class="k" x="1546.4" y="0.08" width="18.06" height="288.26"/><rect class="l" x="1555.43" y="0.08" width="9.03" height="288.26"/><rect class="k" x="1361.43" width="18.06" height="109.55"/><rect class="v" x="1371.16" width="8.33" height="109.55"/><path class="p" d="M778.14,1750.34a5,5,0,0,0,.55-0.93,14,14,0,0,0,1-3.16,22.67,22.67,0,0,0,.33-2.76c0-.09,0-0.19,0-0.29l1.6-.27,2.75-.44,2.83-.45,2.31-.36,2.6-.4,2.39-.38,2.4-.36,2.2-.33,2.22-.32,2-.29,2-.28,2.07-.28,2.12-.3,1.87-.25,1.89-.25L815,1738l1-.1c0.16,0,.24.05,0.19,0.22a1,1,0,0,1-.1.23,5.17,5.17,0,0,1-.27.46,29,29,0,0,1-2,2.79c-0.28.33-.58,0.63-0.88,0.95a0.69,0.69,0,0,1-.77.19l-1.51-.45c-1.12-.34-2.22-0.69-3.37-0.92a4.29,4.29,0,0,0-1.24-.1,0.89,0.89,0,0,0-.43.15,0.33,0.33,0,0,0-.09.48,1.37,1.37,0,0,0,.23.27c0.19,0.18.4,0.36,0.61,0.53,0.61,0.5,1.25,1,1.86,1.49,1.34,1.1,2.6,2.28,3.85,3.48,0.51,0.49,1,1,1.58,1.43a6.25,6.25,0,0,0,1.15.83,2.13,2.13,0,0,0,1,.3,1.41,1.41,0,0,0,1.48-.92,2.53,2.53,0,0,0,.13-1,4.4,4.4,0,0,0-.4-1.58,6.47,6.47,0,0,0-1.5-2.1l-0.61-.6,0.19-.1,2.19-1.09,4-2a1.18,1.18,0,0,1,.32-0.11l0.73-.09,1.36-.12a3.94,3.94,0,0,0,.46-0.08,0.79,0.79,0,0,0,.56-1.12,1.66,1.66,0,0,0-.41-0.54l-0.48-.41c-1.27-1-2.58-2-3.93-2.86-0.44-.29-0.88-0.56-1.32-0.83a1.27,1.27,0,0,0-.85-0.18,5.58,5.58,0,0,0-.88.18,25,25,0,0,1-3.52.83l-2.81.48-2.31.36-2.08.33-0.55.09a0.23,0.23,0,0,1,0-.07l0.26-.24q2.51-2,4.92-4.18c0.48-.42.94-0.86,1.41-1.29a0.58,0.58,0,0,0,.18-0.33,1.87,1.87,0,0,0-.19-1.23,4,4,0,0,0-.93-1.15,6.2,6.2,0,0,0-3.25-1.51,3.76,3.76,0,0,0-1-.06,0.67,0.67,0,0,0-.54.35,1.25,1.25,0,0,0-.19.71,4.48,4.48,0,0,0,.08.57,1.82,1.82,0,0,1-.18,1.35c-0.29.51-.54,1-0.82,1.55l-2.95,5.37a0.72,0.72,0,0,1-.74.53c-1.52.28-3,.57-4.57,0.84s-3,.5-4.45.74l-5.37.92-5.25.93a11.32,11.32,0,0,1-2.48.19h-0.12c-0.2-.37-0.39-0.74-0.59-1.09s-0.33-.53-0.51-0.78a1,1,0,0,0-.32-0.26,0.48,0.48,0,0,0-.72.3,4.32,4.32,0,0,0-.05.44c0,0.5-.07,1-0.12,1.49a8.25,8.25,0,0,1-.6,2.32,14.59,14.59,0,0,1-1.24,2.27,2,2,0,0,0-.32.68,0.66,0.66,0,0,1-.06.11v1.42a2.46,2.46,0,0,1,.08.29,7.2,7.2,0,0,0,.33,1.55,3.42,3.42,0,0,0,.55,1.06,0.89,0.89,0,0,0,.58.35,1.66,1.66,0,0,0,1.7-.61h0Zm0,0" transform="translate(0 -1298.96)"/><path class="p" d="M782.49,1731a1.22,1.22,0,0,0,.59.09c0.48,0,.94-0.09,1.41-0.17,1.66-.28,3.32-0.56,5-0.88,1.88-.36,3.75-0.74,5.61-1.14,2.59-.54,5.15-1.18,7.7-1.86l3.34-.89a6.46,6.46,0,0,0,.63-0.19,0.88,0.88,0,0,0,.57-1,1.61,1.61,0,0,0-.27-0.67,14.21,14.21,0,0,0-2.93-3.38,4.8,4.8,0,0,0-1.76-1h-0.48a0.7,0.7,0,0,0-.41.57c0,0.08,0,.15,0,0.23,0,0.33-.06.66-0.08,1a0.25,0.25,0,0,1-.14.23c-0.38.22-.75,0.46-1.13,0.66q-1.1.57-2.22,1.1c-1.77.83-3.54,1.63-5.36,2.36-3,1.19-6,2.29-9,3.37a7.68,7.68,0,0,0-.84.36,0.82,0.82,0,0,0-.46,1,0.36,0.36,0,0,0,.26.31h0Zm0,0" transform="translate(0 -1298.96)"/><path class="p" d="M788.75,1745.52a2.17,2.17,0,0,0-.41-0.33,0.52,0.52,0,0,0-.43-0.08,0.74,0.74,0,0,0-.58.84,3,3,0,0,0,.19.6,10.18,10.18,0,0,0,1,1.65,11.75,11.75,0,0,0,4.06,3.48,19.24,19.24,0,0,0,5.51,1.87c0.81,0.15,1.62.27,2.44,0.38a11.81,11.81,0,0,0,1.38.12l3.14,0.06,3.37-.13a14.32,14.32,0,0,0,2.22-.24,4.48,4.48,0,0,0,1.27-.4,1.36,1.36,0,0,0,.74-1.33,0.59,0.59,0,0,0-.14-0.39,2,2,0,0,0-.32-0.34,5.84,5.84,0,0,0-1.19-.71,14.2,14.2,0,0,1-3.21-2c-0.85-.73-1.68-1.49-2.52-2.22l-0.94-.82a0.86,0.86,0,0,0-.73-0.16,0.21,0.21,0,0,0-.22.23,4.66,4.66,0,0,0,0,.67,3.93,3.93,0,0,0,.35,1l1,2a3,3,0,0,1,.16.45,0.25,0.25,0,0,1-.17.35,1.48,1.48,0,0,1-.29.09,5.46,5.46,0,0,1-1.18.08c-0.8,0-1.59,0-2.39-.08s-1.47-.09-2.21-0.16-1.49-.19-2.24-0.3a17.1,17.1,0,0,1-2.93-.69,8.16,8.16,0,0,1-2.33-1.15,10.46,10.46,0,0,1-1.52-1.39c-0.29-.33-0.56-0.67-0.84-1h0Zm0,0" transform="translate(0 -1298.96)"/><path class="p" d="M785.5,1744.09a2.9,2.9,0,0,1-.4,0,0.3,0.3,0,0,0-.33.21c-0.22.44-.46,0.88-0.68,1.32a32.38,32.38,0,0,1-2.12,3.6c-0.19.28-.36,0.57-0.55,0.85a2.34,2.34,0,0,0-.37,1.23,7.89,7.89,0,0,0,.41,2.85,3,3,0,0,0,.41.85,1,1,0,0,0,.63.42,1.29,1.29,0,0,0,.8-0.09,2.66,2.66,0,0,0,1.17-.91,5.38,5.38,0,0,0,.81-1.61,16.4,16.4,0,0,0,.72-3.89c0.07-.81.1-1.62,0.16-2.5,0-.3,0-0.68,0-1a2.2,2.2,0,0,0-.24-1.09,0.37,0.37,0,0,0-.39-0.22h0Zm0,0" transform="translate(0 -1298.96)"/><path class="p" d="M794.73,1746.44a21.5,21.5,0,0,0,3,2.1,4.44,4.44,0,0,0,.76.35,0.88,0.88,0,0,0,1-.28,1.42,1.42,0,0,0,.33-0.67c0.09-.48.18-1,0.24-1.43a17.22,17.22,0,0,1,.43-2.4,9.28,9.28,0,0,0,.2-0.92,0.31,0.31,0,0,0-.36-0.4,2,2,0,0,0-.43,0l-1,.16-2.62.5a1.83,1.83,0,0,1-1.1-.09l-0.47-.17c-0.31-.13-0.61-0.27-0.93-0.39s-0.43-.11-0.63-0.17a0.53,0.53,0,0,0-.51.33,0.91,0.91,0,0,0-.08.31,2.18,2.18,0,0,0,.58,1.64,12.64,12.64,0,0,0,1.58,1.52h0Zm0,0" transform="translate(0 -1298.96)"/><path class="p" d="M796.5,1731.62c-0.53-.22-1.06-0.46-1.6-0.67a18.25,18.25,0,0,0-2.39-.77,2,2,0,0,0-.76-0.05,0.26,0.26,0,0,0-.27.25,1.14,1.14,0,0,0,0,.59,5.42,5.42,0,0,0,.24.61,13.14,13.14,0,0,0,1.46,2.35,13.53,13.53,0,0,0,2.69,2.73,5.77,5.77,0,0,0,1.09.65,2,2,0,0,0,.91.18,1,1,0,0,0,.91-0.58,3.07,3.07,0,0,0,.22-1.17,5.19,5.19,0,0,0-.16-1.27,4.11,4.11,0,0,0-2.38-2.86h0Zm0,0" transform="translate(0 -1298.96)"/><path class="p" d="M782.26,1734a17.46,17.46,0,0,0,2.09,2.7,19.08,19.08,0,0,0,1.86,1.82,3.6,3.6,0,0,0,2,.8,1,1,0,0,0,1.21-.8,2.83,2.83,0,0,0,.06-0.74,5.45,5.45,0,0,0-.56-2.1,3.66,3.66,0,0,0-1.93-1.89l-2.44-1a20.89,20.89,0,0,0-2.32-.81,2.32,2.32,0,0,0-.35-0.07,0.24,0.24,0,0,0-.31.25,1.33,1.33,0,0,0,.12.77,10.24,10.24,0,0,0,.56,1.08h0Zm0,0" transform="translate(0 -1298.96)"/><path class="p" d="M825,1778.25l-0.06,0c-1-.3-1.94-0.63-2.92-0.91-3.71-1.08-7.4-2.22-11-3.54a79,79,0,0,1-10.14-4.38l-0.25-.13,0.15-.16c1.37-1.34,2.73-2.68,4.11-4l2.64-2.53c0.25-.24.48-0.5,0.71-0.76a0.57,0.57,0,0,0,.15-0.5,0.61,0.61,0,0,0-.25-0.42,6.72,6.72,0,0,0-.74-0.49c-0.63-.32-1.27-0.63-1.91-0.93a18.22,18.22,0,0,0-2-.82,1.42,1.42,0,0,0-.63,0,3,3,0,0,0-.46.13l-0.84.33a28.22,28.22,0,0,1-3.1.93,34.89,34.89,0,0,1-4,.79l-0.56.06,0.11-.17c0.1-.15.21-0.3,0.3-0.45a0.8,0.8,0,0,0,.09-0.76,4.06,4.06,0,0,0-.3-0.6,10.37,10.37,0,0,0-1.25-1.52,3.45,3.45,0,0,0-1-.69,8.08,8.08,0,0,0-1.34-.57c-0.24-.07-0.48-0.1-0.72-0.17a0.7,0.7,0,0,0-.81.78,8,8,0,0,1,.13.81,3.11,3.11,0,0,1-.2,1.73c-0.24.52-.48,1-0.77,1.53a22.4,22.4,0,0,1-2.31,3.2,57.85,57.85,0,0,1-4.73,5c-1.29,1.22-2.63,2.41-3.94,3.62-0.36.33-.7,0.68-1,1a0.66,0.66,0,0,0,0,.86,0.48,0.48,0,0,0,.25.13,0.93,0.93,0,0,0,.57-0.06,6.8,6.8,0,0,0,.69-0.35l2.35-1.44a57.38,57.38,0,0,0,6.93-5c0.6-.5,1.22-1,1.82-1.48a0.45,0.45,0,0,1,.5-0.07c0.16,0.08.32,0.15,0.48,0.24,1.45,0.8,2.88,1.63,4.25,2.55l0.15,0.11-1.3,1.13a58.79,58.79,0,0,1-5.47,4.09,62.07,62.07,0,0,1-6.68,3.89c-0.37.18-.73,0.37-1.09,0.57a1.43,1.43,0,0,0-.39.3,0.48,0.48,0,0,0,.17.8,1.34,1.34,0,0,0,.39.08,3.4,3.4,0,0,0,1-.1,16.91,16.91,0,0,0,2.17-.62,58.25,58.25,0,0,0,11.95-5.66c0.89-.56,1.77-1.15,2.66-1.72,0.31-.2.35-0.2,0.63,0l8.28,6.75c0.73,0.59,1.48,1.16,2.22,1.74a1.47,1.47,0,0,0,.48.23,2.74,2.74,0,0,0,1.07.06l1.82-.14,1.71-.13,1.64-.13,1.64-.13,2.54-.22,2-.17c0.85-.08,1.69-0.16,2.54-0.26a8.94,8.94,0,0,0,1-.19,0.49,0.49,0,0,0,.39-0.3v-0.27a0.69,0.69,0,0,0-.54-0.48h0Zm-24.67-15.93c-0.36.5-.72,1-1.1,1.46-0.73.92-1.5,1.82-2.32,2.67-0.16.16-.34,0.31-0.51,0.46a0.35,0.35,0,0,1-.4.08c-0.51-.19-1-0.36-1.52-0.56-1.1-.45-2.2-0.93-3.3-1.39-0.22-.1-0.43-0.22-0.67-0.34a1.7,1.7,0,0,1,.15-0.18c0.32-.31.65-0.64,1-1a0.47,0.47,0,0,1,.22-0.09l1.55-.27,3.16-.55,3.12-.54,0.59-.1,0.24,0a3.36,3.36,0,0,1-.18.31h0Zm0,0" transform="translate(0 -1298.96)"/><path class="p" d="M1047,1750.34a4.94,4.94,0,0,0,.55-0.93,14,14,0,0,0,1-3.16,22.64,22.64,0,0,0,.33-2.76c0-.09,0-0.19,0-0.29l1.6-.27,2.75-.44,2.83-.45,2.31-.36,2.6-.4,2.39-.38,2.4-.36,2.2-.33,2.22-.32,2-.29,2-.28,2.07-.28,2.12-.3,1.87-.25,1.89-.25,1.69-.21,1-.1c0.16,0,.24.05,0.19,0.22a1,1,0,0,1-.1.23,5.17,5.17,0,0,1-.27.46,29,29,0,0,1-2,2.79c-0.28.33-.58,0.63-0.88,0.95a0.69,0.69,0,0,1-.77.19l-1.51-.45c-1.12-.34-2.22-0.69-3.37-0.92a4.29,4.29,0,0,0-1.24-.1,0.89,0.89,0,0,0-.42.15,0.33,0.33,0,0,0-.09.48,1.37,1.37,0,0,0,.23.27c0.19,0.18.4,0.36,0.61,0.53,0.61,0.5,1.25,1,1.86,1.49,1.34,1.1,2.6,2.28,3.85,3.48,0.51,0.49,1,1,1.58,1.43a6.25,6.25,0,0,0,1.15.83,2.13,2.13,0,0,0,1,.3,1.42,1.42,0,0,0,1.48-.92,2.53,2.53,0,0,0,.13-1,4.4,4.4,0,0,0-.4-1.58,6.47,6.47,0,0,0-1.5-2.1l-0.61-.6,0.19-.1,2.19-1.09,4-2a1.18,1.18,0,0,1,.32-0.11l0.73-.09,1.36-.12a3.94,3.94,0,0,0,.46-0.08,0.79,0.79,0,0,0,.56-1.12,1.66,1.66,0,0,0-.41-0.54l-0.48-.41c-1.27-1-2.58-2-3.93-2.86-0.44-.29-0.88-0.56-1.32-0.83a1.27,1.27,0,0,0-.85-0.18,5.59,5.59,0,0,0-.88.18,24.94,24.94,0,0,1-3.52.83l-2.81.48-2.31.36-2.08.33-0.55.09a0.22,0.22,0,0,1,0-.07l0.26-.24q2.51-2,4.92-4.18c0.48-.42.94-0.86,1.41-1.29a0.58,0.58,0,0,0,.18-0.33,1.87,1.87,0,0,0-.19-1.23,3.94,3.94,0,0,0-.93-1.15,6.2,6.2,0,0,0-3.25-1.51,3.76,3.76,0,0,0-1-.06,0.67,0.67,0,0,0-.54.35,1.25,1.25,0,0,0-.19.71,4.45,4.45,0,0,0,.08.57,1.81,1.81,0,0,1-.18,1.35c-0.29.51-.54,1-0.82,1.55l-2.95,5.37a0.72,0.72,0,0,1-.74.53c-1.52.28-3,.57-4.57,0.84s-3,.5-4.45.74l-5.37.92-5.25.93a11.32,11.32,0,0,1-2.48.19h-0.12c-0.2-.37-0.39-0.74-0.59-1.09s-0.33-.53-0.51-0.78a1,1,0,0,0-.32-0.26,0.48,0.48,0,0,0-.72.3,4.32,4.32,0,0,0-.05.44c0,0.5-.07,1-0.12,1.49a8.25,8.25,0,0,1-.6,2.32,14.57,14.57,0,0,1-1.24,2.27,2,2,0,0,0-.32.68,0.66,0.66,0,0,1-.06.11v1.42a2.46,2.46,0,0,1,.08.29,7.2,7.2,0,0,0,.33,1.55,3.42,3.42,0,0,0,.55,1.06,0.89,0.89,0,0,0,.58.35,1.66,1.66,0,0,0,1.7-.61h0Zm0,0" transform="translate(0 -1298.96)"/><path class="p" d="M1051.3,1731a1.22,1.22,0,0,0,.59.09c0.48,0,.94-0.09,1.41-0.17,1.66-.28,3.32-0.56,5-0.88,1.88-.36,3.75-0.74,5.61-1.14,2.59-.54,5.15-1.18,7.7-1.86l3.34-.89a6.46,6.46,0,0,0,.63-0.19,0.88,0.88,0,0,0,.57-1,1.61,1.61,0,0,0-.27-0.67,14.21,14.21,0,0,0-2.93-3.38,4.8,4.8,0,0,0-1.76-1h-0.48a0.71,0.71,0,0,0-.41.57c0,0.08,0,.15,0,0.23,0,0.33-.06.66-0.08,1a0.25,0.25,0,0,1-.14.23c-0.38.22-.75,0.46-1.13,0.66q-1.1.57-2.22,1.1c-1.77.83-3.54,1.63-5.36,2.36-3,1.19-6,2.29-9,3.37a7.68,7.68,0,0,0-.84.36,0.82,0.82,0,0,0-.46,1,0.36,0.36,0,0,0,.26.31h0Zm0,0" transform="translate(0 -1298.96)"/><path class="p" d="M1057.56,1745.52a2.17,2.17,0,0,0-.41-0.33,0.52,0.52,0,0,0-.43-0.08,0.74,0.74,0,0,0-.58.84,3,3,0,0,0,.19.6,10.18,10.18,0,0,0,1,1.65,11.75,11.75,0,0,0,4.06,3.48,19.24,19.24,0,0,0,5.51,1.87c0.81,0.15,1.62.27,2.44,0.38a11.81,11.81,0,0,0,1.38.12l3.14,0.06,3.37-.13a14.32,14.32,0,0,0,2.22-.24,4.48,4.48,0,0,0,1.27-.4,1.36,1.36,0,0,0,.74-1.33,0.59,0.59,0,0,0-.14-0.39,2,2,0,0,0-.32-0.34,5.84,5.84,0,0,0-1.19-.71,14.21,14.21,0,0,1-3.21-2c-0.85-.73-1.68-1.49-2.52-2.22l-0.94-.82a0.86,0.86,0,0,0-.73-0.16,0.21,0.21,0,0,0-.22.23,4.68,4.68,0,0,0,0,.67,3.94,3.94,0,0,0,.35,1l1,2a2.94,2.94,0,0,1,.16.45,0.25,0.25,0,0,1-.17.35,1.48,1.48,0,0,1-.29.09,5.46,5.46,0,0,1-1.18.08c-0.8,0-1.59,0-2.39-.08s-1.47-.09-2.21-0.16-1.49-.19-2.24-0.3a17.1,17.1,0,0,1-2.93-.69,8.16,8.16,0,0,1-2.33-1.15,10.48,10.48,0,0,1-1.52-1.39c-0.29-.33-0.56-0.67-0.84-1h0Zm0,0" transform="translate(0 -1298.96)"/><path class="p" d="M1054.31,1744.09a2.9,2.9,0,0,1-.4,0,0.3,0.3,0,0,0-.33.21c-0.22.44-.46,0.88-0.68,1.32a32.41,32.41,0,0,1-2.12,3.6c-0.19.28-.36,0.57-0.55,0.85a2.34,2.34,0,0,0-.37,1.23,7.9,7.9,0,0,0,.41,2.85,3,3,0,0,0,.41.85,1,1,0,0,0,.63.42,1.29,1.29,0,0,0,.8-0.09,2.65,2.65,0,0,0,1.17-.91,5.37,5.37,0,0,0,.81-1.61,16.4,16.4,0,0,0,.72-3.89c0.07-.81.1-1.62,0.16-2.5,0-.3,0-0.68,0-1a2.2,2.2,0,0,0-.24-1.09,0.37,0.37,0,0,0-.39-0.22h0Zm0,0" transform="translate(0 -1298.96)"/><path class="p" d="M1063.55,1746.44a21.5,21.5,0,0,0,3,2.1,4.44,4.44,0,0,0,.76.35,0.88,0.88,0,0,0,1-.28,1.42,1.42,0,0,0,.33-0.67c0.09-.48.18-1,0.24-1.43a17.22,17.22,0,0,1,.43-2.4,9.3,9.3,0,0,0,.2-0.92,0.31,0.31,0,0,0-.36-0.4,2,2,0,0,0-.43,0l-1,.16-2.62.5a1.83,1.83,0,0,1-1.1-.09l-0.47-.17c-0.31-.13-0.61-0.27-0.93-0.39s-0.43-.11-0.63-0.17a0.53,0.53,0,0,0-.51.33,0.91,0.91,0,0,0-.08.31,2.18,2.18,0,0,0,.58,1.64,12.65,12.65,0,0,0,1.59,1.52h0Zm0,0" transform="translate(0 -1298.96)"/><path class="p" d="M1065.32,1731.62c-0.53-.22-1.06-0.46-1.6-0.67a18.25,18.25,0,0,0-2.39-.77,2,2,0,0,0-.76-0.05,0.26,0.26,0,0,0-.27.25,1.14,1.14,0,0,0,0,.59,5.42,5.42,0,0,0,.24.61,13.15,13.15,0,0,0,1.46,2.35,13.54,13.54,0,0,0,2.69,2.73,5.77,5.77,0,0,0,1.09.65,2,2,0,0,0,.91.18,1,1,0,0,0,.91-0.58,3.07,3.07,0,0,0,.22-1.17,5.18,5.18,0,0,0-.16-1.27,4.1,4.1,0,0,0-2.38-2.86h0Zm0,0" transform="translate(0 -1298.96)"/><path class="p" d="M1051.07,1734a17.46,17.46,0,0,0,2.09,2.7,19.08,19.08,0,0,0,1.86,1.82,3.6,3.6,0,0,0,2,.8,1,1,0,0,0,1.21-.8,2.83,2.83,0,0,0,.06-0.74,5.45,5.45,0,0,0-.56-2.1,3.66,3.66,0,0,0-1.93-1.89l-2.45-1a20.87,20.87,0,0,0-2.32-.81,2.31,2.31,0,0,0-.35-0.07,0.24,0.24,0,0,0-.3.25,1.33,1.33,0,0,0,.12.77,10.25,10.25,0,0,0,.56,1.08h0Zm0,0" transform="translate(0 -1298.96)"/><path class="p" d="M1093.78,1778.25l-0.06,0c-1-.3-1.94-0.63-2.92-0.91-3.71-1.08-7.4-2.22-11-3.54a79,79,0,0,1-10.14-4.38l-0.25-.13,0.15-.16c1.37-1.34,2.73-2.68,4.11-4l2.64-2.53c0.25-.24.48-0.5,0.71-0.76a0.57,0.57,0,0,0,.15-0.5,0.61,0.61,0,0,0-.25-0.42,6.73,6.73,0,0,0-.74-0.49c-0.63-.32-1.27-0.63-1.91-0.93a18.21,18.21,0,0,0-2-.82,1.42,1.42,0,0,0-.63,0,3,3,0,0,0-.46.13l-0.84.33a28.23,28.23,0,0,1-3.1.93,34.89,34.89,0,0,1-4,.79l-0.56.06,0.11-.17c0.1-.15.21-0.3,0.3-0.45a0.8,0.8,0,0,0,.09-0.76,4.06,4.06,0,0,0-.3-0.6,10.36,10.36,0,0,0-1.25-1.52,3.45,3.45,0,0,0-1-.69,8.08,8.08,0,0,0-1.34-.57c-0.24-.07-0.48-0.1-0.72-0.17a0.7,0.7,0,0,0-.81.78,8,8,0,0,1,.13.81,3.12,3.12,0,0,1-.2,1.73c-0.24.52-.48,1-0.77,1.53a22.4,22.4,0,0,1-2.31,3.2,57.84,57.84,0,0,1-4.73,5c-1.29,1.22-2.63,2.41-3.94,3.62-0.36.33-.7,0.68-1,1a0.66,0.66,0,0,0,0,.86,0.48,0.48,0,0,0,.25.13,0.93,0.93,0,0,0,.57-0.06,6.8,6.8,0,0,0,.69-0.35l2.35-1.44a57.38,57.38,0,0,0,6.93-5c0.6-.5,1.22-1,1.82-1.48a0.45,0.45,0,0,1,.5-0.07c0.16,0.08.32,0.15,0.48,0.24,1.45,0.8,2.88,1.63,4.25,2.55l0.15,0.11-1.3,1.13a58.78,58.78,0,0,1-5.47,4.09,62.06,62.06,0,0,1-6.68,3.89c-0.37.18-.73,0.37-1.09,0.57a1.43,1.43,0,0,0-.39.3,0.48,0.48,0,0,0,.17.8,1.34,1.34,0,0,0,.39.08,3.4,3.4,0,0,0,1-.1,16.91,16.91,0,0,0,2.17-.62,58.25,58.25,0,0,0,11.95-5.66c0.89-.56,1.77-1.15,2.66-1.72,0.31-.2.35-0.2,0.63,0l8.28,6.75c0.73,0.59,1.48,1.16,2.22,1.74a1.47,1.47,0,0,0,.48.23,2.74,2.74,0,0,0,1.07.06l1.82-.14,1.71-.13,1.64-.13,1.64-.13,2.54-.22,2-.17c0.85-.08,1.69-0.16,2.54-0.26a8.94,8.94,0,0,0,1-.19,0.49,0.49,0,0,0,.39-0.3v-0.27a0.69,0.69,0,0,0-.54-0.48h0Zm-24.67-15.93c-0.36.5-.72,1-1.1,1.46-0.73.92-1.5,1.82-2.32,2.67-0.16.16-.34,0.31-0.51,0.46a0.35,0.35,0,0,1-.4.08c-0.51-.19-1-0.36-1.52-0.56-1.1-.45-2.2-0.93-3.3-1.39-0.22-.1-0.43-0.22-0.67-0.34a1.7,1.7,0,0,1,.15-0.18c0.32-.31.65-0.64,1-1a0.47,0.47,0,0,1,.22-0.09l1.55-.27,3.16-.55,3.12-.54,0.59-.1,0.24,0a3.35,3.35,0,0,1-.18.31h0Zm0,0" transform="translate(0 -1298.96)"/><rect class="n" x="670.16" width="71.18" height="672.85"/><rect class="n" x="1126.73" width="67.26" height="696.42"/><rect class="l" x="1177.17" width="16.83" height="696.42"/><rect class="l" x="670.17" width="17.81" height="696.42"/><path class="n" d="M1207,1618.79a40.27,40.27,0,0,0,16.66-3.58,40.27,40.27,0,0,1,16.66-3.58h277.72a40.27,40.27,0,0,1,16.66,3.58,40.27,40.27,0,0,0,16.66,3.58h13v15.44h-13a40.27,40.27,0,0,1-16.66-3.58,40.27,40.27,0,0,0-16.66-3.58H1240.37a40.27,40.27,0,0,0-16.66,3.58,40.27,40.27,0,0,1-16.66,3.58h-13v-15.44h13Z" transform="translate(0 -1298.96)"/><path class="j" d="M656.88,1618.78a40.21,40.21,0,0,1-16.65-3.58,40.21,40.21,0,0,0-16.65-3.58H346.07a40.21,40.21,0,0,0-16.65,3.58,40.21,40.21,0,0,1-16.65,3.58h-13v332.63H669.91V1618.78h-13Z" transform="translate(0 -1298.96)"/><rect class="m" x="299.66" y="643.35" width="370.25" height="9.11"/><rect class="n" x="350.41" y="328.1" width="33.54" height="315.25"/><rect class="w" x="373.43" y="328.1" width="10.51" height="315.25"/><rect class="w" x="1484.12" y="328.1" width="10.51" height="315.25"/><rect class="o" x="383.95" y="328.11" width="285.96" height="20.83"/><rect class="m" x="383.95" y="343.58" width="250.36" height="299.76"/><rect class="o" x="383.95" y="582.96" width="250.36" height="60.38"/><rect class="i" x="428.59" y="364.57" width="196.39" height="57.02"/><rect class="p" x="428.59" y="374.19" width="196.39" height="1.36"/><rect class="p" x="428.59" y="411.61" width="196.39" height="1.36"/><rect class="p" x="442.03" y="364.57" width="1.43" height="57.02"/><rect class="p" x="456.94" y="364.57" width="1.43" height="57.02"/><rect class="p" x="471.85" y="364.57" width="1.43" height="57.02"/><rect class="p" x="486.76" y="364.57" width="1.43" height="57.02"/><rect class="p" x="501.66" y="364.57" width="1.43" height="57.02"/><rect class="p" x="516.57" y="364.57" width="1.43" height="57.02"/><rect class="p" x="531.48" y="364.57" width="1.43" height="57.02"/><rect class="p" x="546.39" y="364.57" width="1.43" height="57.02"/><rect class="p" x="561.3" y="364.57" width="1.43" height="57.02"/><rect class="p" x="576.21" y="364.57" width="1.43" height="57.02"/><rect class="p" x="591.11" y="364.57" width="1.43" height="57.02"/><rect class="p" x="606.02" y="364.57" width="1.43" height="57.02"/><rect class="i" x="428.59" y="443.75" width="196.39" height="139.21"/><rect class="p" x="428.59" y="468.21" width="196.39" height="1.36"/><rect class="p" x="428.59" y="559.56" width="196.39" height="1.36"/><rect class="p" x="442.03" y="443.75" width="1.43" height="139.21"/><rect class="p" x="456.94" y="443.75" width="1.43" height="139.21"/><rect class="p" x="471.85" y="443.75" width="1.43" height="139.21"/><rect class="p" x="486.76" y="443.75" width="1.43" height="139.21"/><rect class="p" x="501.66" y="443.75" width="1.43" height="139.21"/><rect class="p" x="516.57" y="443.75" width="1.43" height="139.21"/><rect class="p" x="531.48" y="443.75" width="1.43" height="139.21"/><rect class="p" x="546.39" y="443.75" width="1.43" height="139.21"/><rect class="p" x="561.3" y="443.75" width="1.43" height="139.21"/><rect class="p" x="576.21" y="443.75" width="1.43" height="139.21"/><rect class="p" x="591.11" y="443.75" width="1.43" height="139.21"/><rect class="p" x="606.02" y="443.75" width="1.43" height="139.21"/><path class="n" d="M656.86,1618.79a40.33,40.33,0,0,1-16.68-3.58,40.32,40.32,0,0,0-16.68-3.58H345.56a40.32,40.32,0,0,0-16.68,3.58,40.33,40.33,0,0,1-16.68,3.58H299.16v15.44h13.05a40.33,40.33,0,0,0,16.68-3.58,40.32,40.32,0,0,1,16.68-3.58H623.5a40.32,40.32,0,0,1,16.68,3.58,40.33,40.33,0,0,0,16.68,3.58h13.05v-15.44H656.86Z" transform="translate(0 -1298.96)"/><rect class="x" x="383.95" y="582.96" width="250.36" height="12.83"/><rect class="x" x="1233.75" y="582.96" width="250.36" height="12.83"/><path class="q" d="M919.67,1727.16s-4.28,14.11-8.75,16.64c0,0-1.83,18.89,8.05,18.63a119.88,119.88,0,0,0,4.34-32.22Z" transform="translate(0 -1298.96)"/><path class="q" d="M944.29,1731.45l-10,3-10-3s0.17,22.77-2.77,32.22c0,0,1.78,12.59,12.81,13.89,11-1.3,12.81-13.89,12.81-13.89C944.12,1754.22,944.29,1731.45,944.29,1731.45Z" transform="translate(0 -1298.96)"/><path class="q" d="M948.84,1727.16s4.28,14.11,8.75,16.64c0,0,1.83,18.89-8.05,18.63a119.88,119.88,0,0,1-4.34-32.22Z" transform="translate(0 -1298.96)"/><path class="q" d="M921.45,1720.24s-10.1,36.06-43.3,42a10.93,10.93,0,0,1-8.06-1.76c-5.2-3.53-14.52-10.78-19.12-20a3,3,0,0,1,2.4-4.23c13.83-1.26,58.27-7.62,51.46-37Z" transform="translate(0 -1298.96)"/><path class="p" d="M857.52,1747.29s-5.65-6.64-4.91-8.83,9-.21,15.11-2.94a10.27,10.27,0,0,1-9.22,3.73s3.14,1.57,3.73,3.53c0,0-3.92,1-6.08-1.37C856.15,1741.4,858.07,1745.38,857.52,1747.29Z" transform="translate(0 -1298.96)"/><path class="p" d="M908,1710.07s-5,19.66-28.88,23.47C879.11,1733.55,901.56,1733.4,908,1710.07Z" transform="translate(0 -1298.96)"/><path class="p" d="M909.46,1712.33s-5,19.66-28.88,23.47C880.58,1735.81,903,1735.66,909.46,1712.33Z" transform="translate(0 -1298.96)"/><path class="p" d="M910.93,1714.59s-5,19.66-28.88,23.47C882,1738.07,904.49,1737.92,910.93,1714.59Z" transform="translate(0 -1298.96)"/><path class="p" d="M912.4,1716.85s-4.26,19.83-28,24.48C884.36,1741.33,906.78,1740.39,912.4,1716.85Z" transform="translate(0 -1298.96)"/><path class="p" d="M913.86,1719.11s-3.27,20-26.79,25.84C887.07,1745,909.43,1742.9,913.86,1719.11Z" transform="translate(0 -1298.96)"/><path class="p" d="M915.33,1721.37s-1.75,20.2-24.77,27.78C890.56,1749.15,912.69,1745.43,915.33,1721.37Z" transform="translate(0 -1298.96)"/><path class="p" d="M859.18,1749.15s10.88,11.69,16.91,11.27,14.9-4.54,14.9-4.54-11.11,4.25-15,3.91S866.51,1756.15,859.18,1749.15Z" transform="translate(0 -1298.96)"/><path class="q" d="M947.07,1720.24s10.1,36.06,43.3,42a10.93,10.93,0,0,0,8.06-1.76c5.2-3.53,14.52-10.78,19.12-20a3,3,0,0,0-2.4-4.23c-13.83-1.26-58.27-7.62-51.46-37Z" transform="translate(0 -1298.96)"/><path class="p" d="M1011,1747.29s5.65-6.64,4.91-8.83-9-.21-15.11-2.94a10.27,10.27,0,0,0,9.22,3.73s-3.14,1.57-3.73,3.53c0,0,3.92,1,6.08-1.37C1012.36,1741.4,1010.44,1745.38,1011,1747.29Z" transform="translate(0 -1298.96)"/><path class="p" d="M960.52,1710.07s5,19.66,28.88,23.47C989.4,1733.55,967,1733.4,960.52,1710.07Z" transform="translate(0 -1298.96)"/><path class="p" d="M959,1712.33s5,19.66,28.88,23.47C987.93,1735.81,965.49,1735.66,959,1712.33Z" transform="translate(0 -1298.96)"/><path class="p" d="M957.58,1714.59s5,19.66,28.88,23.47C986.47,1738.07,964,1737.92,957.58,1714.59Z" transform="translate(0 -1298.96)"/><path class="p" d="M956.12,1716.85s4.26,19.83,28,24.48C984.16,1741.33,961.73,1740.39,956.12,1716.85Z" transform="translate(0 -1298.96)"/><path class="p" d="M954.65,1719.11s3.27,20,26.79,25.84C981.44,1745,959.09,1742.9,954.65,1719.11Z" transform="translate(0 -1298.96)"/><path class="p" d="M953.18,1721.37s1.75,20.2,24.77,27.78C978,1749.15,955.82,1745.43,953.18,1721.37Z" transform="translate(0 -1298.96)"/><path class="p" d="M1009.33,1749.15s-10.88,11.69-16.91,11.27-14.9-4.54-14.9-4.54,11.11,4.25,15,3.91S1002,1756.15,1009.33,1749.15Z" transform="translate(0 -1298.96)"/><path class="q" d="M966.87,1681.07c0,17.46-14.6,55.48-32.62,55.48s-32.62-38-32.62-55.48,14.6-31.61,32.62-31.61S966.87,1663.62,966.87,1681.07Z" transform="translate(0 -1298.96)"/><path class="p" d="M934.26,1734.6c-16.15,0-30.66-36.36-30.66-53.53,0-16.35,13.75-29.65,30.66-29.65s30.66,13.3,30.66,29.65C964.92,1698.24,950.41,1734.6,934.26,1734.6Z" transform="translate(0 -1298.96)"/><path class="q" d="M934.26,1732.65c-6.34,0-13.49-7-19.64-19.25-5.34-10.62-9.06-23.91-9.06-32.32,0-15.27,12.88-27.7,28.71-27.7S963,1665.8,963,1681.07c0,8.41-3.73,21.7-9.06,32.32C947.75,1725.63,940.59,1732.65,934.26,1732.65Z" transform="translate(0 -1298.96)"/><path class="p" d="M934.26,1730.2c-5.3,0-11.82-6.69-17.46-17.9-5.18-10.32-8.8-23.16-8.8-31.23,0-13.92,11.78-25.25,26.26-25.25s26.26,11.33,26.26,25.25c0,8.07-3.62,20.91-8.8,31.23C946.08,1723.51,939.55,1730.2,934.26,1730.2Z" transform="translate(0 -1298.96)"/><path class="q" d="M934.26,1728.73c-4.66,0-10.85-6.55-16.15-17.09-5.09-10.13-8.65-22.7-8.65-30.57,0-13.12,11.12-23.79,24.79-23.79S959,1668,959,1681.07c0,7.87-3.56,20.44-8.65,30.57C945.1,1722.18,938.92,1728.73,934.26,1728.73Z" transform="translate(0 -1298.96)"/><path class="p" d="M933.35,1689.95v-3.2H911.43q0.24,1.55.58,3.2h21.34Z" transform="translate(0 -1298.96)"/><path class="p" d="M933.35,1694.61v-3.2h-21c0.24,1,.52,2.12.82,3.2h20.2Z" transform="translate(0 -1298.96)"/><path class="p" d="M933.35,1685.28v-3.2H911c0,1,.13,2.07.26,3.2h22.13Z" transform="translate(0 -1298.96)"/><path class="p" d="M933.35,1680.62v-3.2h-22.1a21.42,21.42,0,0,0-.31,3.2h22.41Z" transform="translate(0 -1298.96)"/><path class="p" d="M933.35,1708.61v-3.2H916.88q0.67,1.62,1.41,3.2h15.07Z" transform="translate(0 -1298.96)"/><path class="p" d="M933.35,1699.28v-3.2H913.57c0.31,1.06.65,2.13,1,3.2h18.78Z" transform="translate(0 -1298.96)"/><path class="p" d="M933.35,1703.94v-3.2H915.08q0.57,1.6,1.2,3.2h17.07Z" transform="translate(0 -1298.96)"/><path class="p" d="M933.35,1675.95v-3.2H912.62a21.43,21.43,0,0,0-1.06,3.2h21.8Z" transform="translate(0 -1298.96)"/><path class="p" d="M933.35,1710.07H919c0.15,0.3.29,0.61,0.44,0.91q0.59,1.18,1.2,2.29h12.73v-3.2Z" transform="translate(0 -1298.96)"/><path class="p" d="M935.16,1710.07v3.2h12.73q0.61-1.11,1.2-2.29c0.15-.3.29-0.61,0.44-0.91H935.16Z" transform="translate(0 -1298.96)"/><path class="p" d="M935.16,1666.62H952a23.12,23.12,0,0,0-3.5-3.2H935.16v3.2Z" transform="translate(0 -1298.96)"/><path class="p" d="M933.35,1662v-3.18a23.94,23.94,0,0,0-11.12,3.18h11.12Z" transform="translate(0 -1298.96)"/><path class="p" d="M933.35,1717.94v-3.2H921.45q1,1.7,2,3.2h9.92Z" transform="translate(0 -1298.96)"/><path class="p" d="M933.35,1666.62v-3.2H920a23.12,23.12,0,0,0-3.5,3.2h16.85Z" transform="translate(0 -1298.96)"/><path class="p" d="M933.35,1671.28v-3.2h-18a22.17,22.17,0,0,0-2,3.2h20.05Z" transform="translate(0 -1298.96)"/><path class="p" d="M935.16,1682.08v3.2h22.13c0.14-1.13.23-2.19,0.26-3.2h-22.4Z" transform="translate(0 -1298.96)"/><path class="p" d="M935.16,1677.42v3.2h22.41a21.41,21.41,0,0,0-.31-3.2h-22.1Z" transform="translate(0 -1298.96)"/><path class="p" d="M935.16,1691.41v3.2h20.2c0.3-1.08.58-2.15,0.82-3.2h-21Z" transform="translate(0 -1298.96)"/><path class="p" d="M935.16,1686.75v3.2H956.5q0.35-1.65.58-3.2H935.16Z" transform="translate(0 -1298.96)"/><path class="p" d="M935.16,1662h11.11a23.94,23.94,0,0,0-11.11-3.18V1662Z" transform="translate(0 -1298.96)"/><path class="p" d="M935.16,1668.09v3.2h20.05a22.16,22.16,0,0,0-2-3.2h-18Z" transform="translate(0 -1298.96)"/><path class="p" d="M935.16,1672.75v3.2H957a21.44,21.44,0,0,0-1.06-3.2H935.16Z" transform="translate(0 -1298.96)"/><path class="p" d="M935.16,1696.08v3.2h18.78c0.36-1.07.69-2.14,1-3.2H935.16Z" transform="translate(0 -1298.96)"/><path class="p" d="M935.16,1719.41v3.2h6.37a38.55,38.55,0,0,0,2.54-3.2h-8.91Z" transform="translate(0 -1298.96)"/><path class="p" d="M935.16,1724.07v3.09a11.09,11.09,0,0,0,5-3.09h-5Z" transform="translate(0 -1298.96)"/><path class="p" d="M933.35,1724.07h-5a11.09,11.09,0,0,0,5,3.09v-3.09Z" transform="translate(0 -1298.96)"/><path class="p" d="M935.16,1714.74v3.2h9.92q1-1.5,2-3.2H935.16Z" transform="translate(0 -1298.96)"/><path class="p" d="M933.35,1722.6v-3.2h-8.91a38.54,38.54,0,0,0,2.54,3.2h6.37Z" transform="translate(0 -1298.96)"/><path class="p" d="M935.16,1700.74v3.2h17.07q0.63-1.59,1.2-3.2H935.16Z" transform="translate(0 -1298.96)"/><path class="p" d="M935.16,1705.41v3.2h15.07q0.73-1.58,1.41-3.2H935.16Z" transform="translate(0 -1298.96)"/><path class="p" d="M926.17,1750s7.26,6.12,16.18,0C942.35,1750,934.27,1759.14,926.17,1750Z" transform="translate(0 -1298.96)"/><path class="p" d="M926.17,1754s7.26,6.12,16.18,0C942.35,1754,934.27,1763.22,926.17,1754Z" transform="translate(0 -1298.96)"/><path class="p" d="M926.17,1758.12s7.26,6.12,16.18,0C942.35,1758.12,934.27,1767.3,926.17,1758.12Z" transform="translate(0 -1298.96)"/><path class="p" d="M926.17,1762.2s7.26,6.12,16.18,0C942.35,1762.2,934.27,1771.37,926.17,1762.2Z" transform="translate(0 -1298.96)"/><path class="p" d="M926.17,1766.28s7.26,6.12,16.18,0C942.35,1766.28,934.27,1775.45,926.17,1766.28Z" transform="translate(0 -1298.96)"/><path class="p" d="M927.4,1736.56a20.91,20.91,0,0,0,13.71,10.73S930.62,1747,927.4,1736.56Z" transform="translate(0 -1298.96)"/><path class="p" d="M941.11,1736.56a20.91,20.91,0,0,1-13.71,10.73S937.89,1747,941.11,1736.56Z" transform="translate(0 -1298.96)"/><rect class="q" x="483.22" y="456.44" width="73.9" height="17.03"/><rect class="q" x="483.22" y="597.81" width="73.9" height="22.97"/><rect class="q" x="483.22" y="451.69" width="4.98" height="187.3"/><rect class="q" x="552.15" y="451.69" width="4.98" height="187.3"/><rect class="q" x="477.62" y="638.99" width="85.11" height="4.36"/><path class="y" d="M605.42,1780.83a1212,1212,0,0,1-127.63,6.47l0.3,5.13A1179.29,1179.29,0,0,0,604.42,1786c1.08-.1,2.49-5.35,1-5.19h0Z" transform="translate(0 -1298.96)"/><path class="z" d="M439.55,1786.44c15.42,0.38,30.75.9,46.14,0.83a13.1,13.1,0,0,0-.2,5.16c-15.36.54-30.75-.38-46.11-0.83-2-.06-2-5.19.17-5.16h0Z" transform="translate(0 -1298.96)"/><path class="y" d="M479.37,1789.71a14.17,14.17,0,0,0-.83-5.5l0-1.62c0-.29-0.13-0.54-0.3-0.51l-0.71.06a0.55,0.55,0,0,0-.27.58l0,2a17.08,17.08,0,0,0-.59,5.09,14.87,14.87,0,0,0,.84,5.54l0,1.45a0.49,0.49,0,0,0,.3.51l0.74-.06a0.57,0.57,0,0,0,.27-0.58l0-1.88A17.62,17.62,0,0,0,479.37,1789.71Z" transform="translate(0 -1298.96)"/><path class="aa" d="M438,1786.41l5.28,0.13v0h-0.57c-2.15-.06-2.18,5-0.2,5.13-1.58-.06-3.13-0.1-4.7-0.16-2-.06-2-5.19.2-5.13h0Zm4.87,5.29,0.24,0h0Z" transform="translate(0 -1298.96)"/><path class="ab" d="M474.1,1790l-0.77,1.67s-0.07,0-.07,0l-0.64-1.73a0.19,0.19,0,0,1,0-.19l0.77-1.67c0-.06,0-0.06.07,0l0.64,1.7V1790h0Z" transform="translate(0 -1298.96)"/><path class="ab" d="M444.73,1789l-0.77,1.67q-0.05.1-.1,0l-0.6-1.73a0.19,0.19,0,0,1,0-.19L444,1787q0.05-.1.1,0l0.64,1.73V1789h0Z" transform="translate(0 -1298.96)"/><path class="ab" d="M448.89,1789.39l-0.74,1.67q-0.05.1-.1,0l-0.64-1.7v-0.22l0.77-1.67s0.07,0,.07,0l0.64,1.73a0.19,0.19,0,0,1,0,.19h0Z" transform="translate(0 -1298.96)"/><path class="ab" d="M453.09,1789.71l-0.77,1.67s-0.07,0-.07,0l-0.64-1.73a0.19,0.19,0,0,1,0-.19l0.77-1.67c0-.06.07-0.06,0.07,0l0.64,1.7a0.26,0.26,0,0,1,0,.22h0Z" transform="translate(0 -1298.96)"/><path class="ab" d="M457.29,1789.84l-0.77,1.67c0,0.06-.07.06-0.07,0l-0.64-1.73a0.19,0.19,0,0,1,0-.19l0.77-1.67c0-.06,0-0.06.07,0l0.64,1.73v0.19h0Z" transform="translate(0 -1298.96)"/><path class="ab" d="M461.5,1790l-0.77,1.67q-0.05.1-.1,0l-0.6-1.7a0.26,0.26,0,0,1,0-.22l0.74-1.67a0.07,0.07,0,0,1,.1,0l0.64,1.73V1790h0Z" transform="translate(0 -1298.96)"/><path class="ab" d="M465.66,1790.12l-0.74,1.67q-0.05.1-.1,0l-0.6-1.73a0.2,0.2,0,0,1,0-.19l0.74-1.67q0.05-.1.1,0l0.64,1.7a0.52,0.52,0,0,1,0,.22h0Z" transform="translate(0 -1298.96)"/><path class="ab" d="M469.86,1790.09l-0.74,1.67q-0.05.1-.1,0l-0.6-1.7a0.26,0.26,0,0,1,0-.22l0.74-1.67q0.05-.1.1,0l0.64,1.73a0.39,0.39,0,0,1,0,.19h0Z" transform="translate(0 -1298.96)"/><path class="y" d="M605.42,1803.27a1212,1212,0,0,1-127.63,6.47l0.3,5.13a1179.29,1179.29,0,0,0,126.32-6.41c1.08-.1,2.49-5.35,1-5.19h0Z" transform="translate(0 -1298.96)"/><path class="z" d="M439.55,1808.88c15.42,0.38,30.75.9,46.14,0.83a13.1,13.1,0,0,0-.2,5.16c-15.36.54-30.75-.38-46.11-0.83-2-.06-2-5.19.17-5.16h0Z" transform="translate(0 -1298.96)"/><path class="y" d="M479.37,1812.15a14.17,14.17,0,0,0-.83-5.5l0-1.62c0-.29-0.13-0.54-0.3-0.51l-0.71.06a0.55,0.55,0,0,0-.27.58l0,2a17.08,17.08,0,0,0-.59,5.09,14.87,14.87,0,0,0,.84,5.54l0,1.45a0.49,0.49,0,0,0,.3.51l0.74-.06a0.57,0.57,0,0,0,.27-0.58l0-1.88A17.62,17.62,0,0,0,479.37,1812.15Z" transform="translate(0 -1298.96)"/><path class="aa" d="M438,1808.84l5.28,0.13v0h-0.57c-2.15-.06-2.18,5-0.2,5.13-1.58-.06-3.13-0.1-4.7-0.16-2-.06-2-5.19.2-5.13h0Zm4.87,5.29,0.24,0h0Z" transform="translate(0 -1298.96)"/><path class="ab" d="M474.1,1812.4l-0.77,1.67s-0.07,0-.07,0l-0.64-1.73a0.19,0.19,0,0,1,0-.19l0.77-1.67c0-.06,0-0.06.07,0l0.64,1.7v0.22h0Z" transform="translate(0 -1298.96)"/><path class="ab" d="M444.73,1811.41l-0.77,1.67q-0.05.1-.1,0l-0.6-1.73a0.19,0.19,0,0,1,0-.19l0.74-1.67q0.05-.1.1,0l0.64,1.73v0.19h0Z" transform="translate(0 -1298.96)"/><path class="ab" d="M448.89,1811.82l-0.74,1.67q-0.05.1-.1,0l-0.64-1.7v-0.22l0.77-1.67s0.07,0,.07,0l0.64,1.73a0.19,0.19,0,0,1,0,.19h0Z" transform="translate(0 -1298.96)"/><path class="ab" d="M453.09,1812.15l-0.77,1.67s-0.07,0-.07,0l-0.64-1.73a0.19,0.19,0,0,1,0-.19l0.77-1.67c0-.06.07-0.06,0.07,0l0.64,1.7a0.26,0.26,0,0,1,0,.22h0Z" transform="translate(0 -1298.96)"/><path class="ab" d="M457.29,1812.27l-0.77,1.67c0,0.06-.07.06-0.07,0l-0.64-1.73a0.19,0.19,0,0,1,0-.19l0.77-1.67c0-.06,0-0.06.07,0l0.64,1.73v0.19h0Z" transform="translate(0 -1298.96)"/><path class="ab" d="M461.5,1812.4l-0.77,1.67q-0.05.1-.1,0l-0.6-1.7a0.26,0.26,0,0,1,0-.22l0.74-1.67a0.07,0.07,0,0,1,.1,0l0.64,1.73v0.19h0Z" transform="translate(0 -1298.96)"/><path class="ab" d="M465.66,1812.56l-0.74,1.67q-0.05.1-.1,0l-0.6-1.73a0.2,0.2,0,0,1,0-.19l0.74-1.67q0.05-.1.1,0l0.64,1.7a0.52,0.52,0,0,1,0,.22h0Z" transform="translate(0 -1298.96)"/><path class="ab" d="M469.86,1812.53l-0.74,1.67q-0.05.1-.1,0l-0.6-1.7a0.26,0.26,0,0,1,0-.22l0.74-1.67q0.05-.1.1,0l0.64,1.73a0.39,0.39,0,0,1,0,.19h0Z" transform="translate(0 -1298.96)"/><path class="ac" d="M437,1846.08a1211.93,1211.93,0,0,1,127.63-6.47l-0.3-5.13A1179.29,1179.29,0,0,0,438,1840.89c-1.08.1-2.49,5.35-1,5.19h0Z" transform="translate(0 -1298.96)"/><path class="ad" d="M564.33,1834.48l0.3,5.13A1211.93,1211.93,0,0,0,437,1846.08h0c-0.64.07-.74-0.89-0.55-2,0,0,86.4-7.05,126-6.14" transform="translate(0 -1298.96)"/><path class="z" d="M602.87,1840.47c-15.42-.38-30.75-0.9-46.14-0.83a13.1,13.1,0,0,0,.2-5.16c15.36-.54,30.75.38,46.11,0.83,2,0.06,2,5.19-.17,5.16h0Z" transform="translate(0 -1298.96)"/><path class="y" d="M563.05,1837.2a14.16,14.16,0,0,0,.83,5.5l0,1.62c0,0.29.13,0.54,0.3,0.51l0.71-.06a0.55,0.55,0,0,0,.27-0.58l0-2a17.08,17.08,0,0,0,.59-5.09,14.87,14.87,0,0,0-.84-5.54l0-1.45a0.49,0.49,0,0,0-.3-0.51l-0.74.06a0.57,0.57,0,0,0-.27.58l0,1.88A17.61,17.61,0,0,0,563.05,1837.2Z" transform="translate(0 -1298.96)"/><path class="ac" d="M604.39,1840.5l-5.28-.13v0h0.57c2.15,0.06,2.18-5,.2-5.13,1.58,0.06,3.13.1,4.7,0.16,2,0.06,2,5.19-.2,5.13h0Zm-4.87-5.29-0.24,0h0Z" transform="translate(0 -1298.96)"/><path class="ac" d="M568.33,1836.94l0.77-1.67s0.07,0,.07,0l0.64,1.73a0.19,0.19,0,0,1,0,.19l-0.77,1.67c0,0.06,0,.06-0.07,0l-0.64-1.7v-0.22h0Z" transform="translate(0 -1298.96)"/><path class="ac" d="M597.7,1837.94l0.77-1.67q0.05-.1.1,0l0.6,1.73a0.19,0.19,0,0,1,0,.19l-0.74,1.67q-0.05.1-.1,0l-0.64-1.73v-0.19h0Z" transform="translate(0 -1298.96)"/><path class="ac" d="M593.53,1837.52l0.74-1.67q0.05-.1.1,0l0.64,1.7v0.22l-0.77,1.67s-0.07,0-.07,0l-0.64-1.73a0.19,0.19,0,0,1,0-.19h0Z" transform="translate(0 -1298.96)"/><path class="ac" d="M589.33,1837.2l0.77-1.67s0.07,0,.07,0l0.64,1.73a0.19,0.19,0,0,1,0,.19l-0.77,1.67c0,0.06-.07.06-0.07,0l-0.64-1.7a0.26,0.26,0,0,1,0-.22h0Z" transform="translate(0 -1298.96)"/><path class="ac" d="M585.13,1837.07l0.77-1.67c0-.06.07-0.06,0.07,0l0.64,1.73a0.19,0.19,0,0,1,0,.19l-0.77,1.67c0,0.06,0,.06-0.07,0l-0.64-1.73v-0.19h0Z" transform="translate(0 -1298.96)"/><path class="ac" d="M580.93,1836.94l0.77-1.67q0.05-.1.1,0l0.6,1.7a0.26,0.26,0,0,1,0,.22l-0.74,1.67a0.06,0.06,0,0,1-.1,0l-0.64-1.73v-0.19h0Z" transform="translate(0 -1298.96)"/><path class="ac" d="M576.76,1836.78l0.74-1.67q0.05-.1.1,0l0.6,1.73a0.2,0.2,0,0,1,0,.19l-0.74,1.67q-0.05.1-.1,0l-0.64-1.7a0.52,0.52,0,0,1,0-.22h0Z" transform="translate(0 -1298.96)"/><path class="ac" d="M572.56,1836.82l0.74-1.67q0.05-.1.1,0l0.6,1.7a0.26,0.26,0,0,1,0,.22l-0.74,1.67q-0.05.1-.1,0l-0.64-1.73a0.39,0.39,0,0,1,0-.19h0Z" transform="translate(0 -1298.96)"/><path class="y" d="M437,1870.52A1211.93,1211.93,0,0,1,564.63,1864l-0.3-5.13A1179.29,1179.29,0,0,0,438,1865.32c-1.08.1-2.49,5.35-1,5.19h0Z" transform="translate(0 -1298.96)"/><path class="z" d="M602.87,1864.91c-15.42-.38-30.75-0.9-46.14-0.83a13.1,13.1,0,0,0,.2-5.16c15.36-.54,30.75.38,46.11,0.83,2,0.06,2,5.19-.17,5.16h0Z" transform="translate(0 -1298.96)"/><path class="y" d="M563.05,1861.64a14.16,14.16,0,0,0,.83,5.5l0,1.62c0,0.29.13,0.54,0.3,0.51l0.71-.06a0.55,0.55,0,0,0,.27-0.58l0-2a17.08,17.08,0,0,0,.59-5.09,14.87,14.87,0,0,0-.84-5.54l0-1.45a0.49,0.49,0,0,0-.3-0.51l-0.74.06a0.57,0.57,0,0,0-.27.58l0,1.88A17.61,17.61,0,0,0,563.05,1861.64Z" transform="translate(0 -1298.96)"/><path class="aa" d="M604.39,1864.94l-5.28-.13v0h0.57c2.15,0.06,2.18-5,.2-5.13,1.58,0.06,3.13.1,4.7,0.16,2,0.06,2,5.19-.2,5.13h0Zm-4.87-5.29-0.24,0h0Z" transform="translate(0 -1298.96)"/><path class="ab" d="M568.33,1861.38l0.77-1.67s0.07,0,.07,0l0.64,1.73a0.19,0.19,0,0,1,0,.19l-0.77,1.67c0,0.06,0,.06-0.07,0l-0.64-1.7v-0.22h0Z" transform="translate(0 -1298.96)"/><path class="ab" d="M597.7,1862.38l0.77-1.67q0.05-.1.1,0l0.6,1.73a0.19,0.19,0,0,1,0,.19l-0.74,1.67q-0.05.1-.1,0l-0.64-1.73v-0.19h0Z" transform="translate(0 -1298.96)"/><path class="ab" d="M593.53,1862l0.74-1.67q0.05-.1.1,0L595,1862v0.22l-0.77,1.67s-0.07,0-.07,0l-0.64-1.73a0.19,0.19,0,0,1,0-.19h0Z" transform="translate(0 -1298.96)"/><path class="ab" d="M589.33,1861.64l0.77-1.67s0.07,0,.07,0l0.64,1.73a0.19,0.19,0,0,1,0,.19l-0.77,1.67c0,0.06-.07.06-0.07,0l-0.64-1.7a0.26,0.26,0,0,1,0-.22h0Z" transform="translate(0 -1298.96)"/><path class="ab" d="M585.13,1861.51l0.77-1.67c0-.06.07-0.06,0.07,0l0.64,1.73a0.19,0.19,0,0,1,0,.19l-0.77,1.67c0,0.06,0,.06-0.07,0l-0.64-1.73v-0.19h0Z" transform="translate(0 -1298.96)"/><path class="ab" d="M580.93,1861.38l0.77-1.67q0.05-.1.1,0l0.6,1.7a0.26,0.26,0,0,1,0,.22l-0.74,1.67a0.06,0.06,0,0,1-.1,0l-0.64-1.73v-0.19h0Z" transform="translate(0 -1298.96)"/><path class="ab" d="M576.76,1861.22l0.74-1.67q0.05-.1.1,0l0.6,1.73a0.2,0.2,0,0,1,0,.19l-0.74,1.67q-0.05.1-.1,0l-0.64-1.7a0.52,0.52,0,0,1,0-.22h0Z" transform="translate(0 -1298.96)"/><path class="ab" d="M572.56,1861.25l0.74-1.67q0.05-.1.1,0l0.6,1.7a0.26,0.26,0,0,1,0,.22l-0.74,1.67q-0.05.1-.1,0l-0.64-1.73a0.39,0.39,0,0,1,0-.19h0Z" transform="translate(0 -1298.96)"/><rect class="q" x="1305.68" y="456.44" width="73.9" height="17.03"/><rect class="q" x="1305.68" y="597.81" width="73.9" height="22.97"/><rect class="q" x="1305.68" y="451.69" width="4.98" height="187.3"/><rect class="q" x="1374.6" y="451.69" width="4.98" height="187.3"/><rect class="q" x="1300.07" y="638.99" width="85.11" height="4.36"/><path class="y" d="M1427.88,1780.83a1212,1212,0,0,1-127.63,6.47l0.3,5.13a1179.29,1179.29,0,0,0,126.32-6.41c1.08-.1,2.49-5.35,1-5.19h0Z" transform="translate(0 -1298.96)"/><path class="z" d="M1262,1786.44c15.42,0.38,30.75.9,46.14,0.83a13.1,13.1,0,0,0-.2,5.16c-15.36.54-30.75-.38-46.11-0.83-2-.06-2-5.19.17-5.16h0Z" transform="translate(0 -1298.96)"/><path class="y" d="M1301.83,1789.71a14.17,14.17,0,0,0-.83-5.5l0-1.62c0-.29-0.13-0.54-0.3-0.51l-0.71.06a0.55,0.55,0,0,0-.27.58l0,2a17.08,17.08,0,0,0-.59,5.09,14.87,14.87,0,0,0,.84,5.54l0,1.45a0.49,0.49,0,0,0,.3.51l0.74-.06a0.57,0.57,0,0,0,.27-0.58l0-1.88A17.62,17.62,0,0,0,1301.83,1789.71Z" transform="translate(0 -1298.96)"/><path class="aa" d="M1260.5,1786.41l5.28,0.13v0h-0.57c-2.15-.06-2.18,5-0.2,5.13-1.58-.06-3.13-0.1-4.7-0.16-2-.06-2-5.19.2-5.13h0Zm4.87,5.29,0.24,0h0Z" transform="translate(0 -1298.96)"/><path class="ab" d="M1296.55,1790l-0.77,1.67s-0.07,0-.07,0l-0.64-1.73a0.19,0.19,0,0,1,0-.19l0.77-1.67c0-.06,0-0.06.07,0l0.64,1.7V1790h0Z" transform="translate(0 -1298.96)"/><path class="ab" d="M1267.18,1789l-0.77,1.67q-0.05.1-.1,0l-0.6-1.73a0.19,0.19,0,0,1,0-.19l0.74-1.67q0.05-.1.1,0l0.64,1.73V1789h0Z" transform="translate(0 -1298.96)"/><path class="ab" d="M1271.35,1789.39l-0.74,1.67q-0.05.1-.1,0l-0.64-1.7v-0.22l0.77-1.67s0.07,0,.07,0l0.64,1.73a0.19,0.19,0,0,1,0,.19h0Z" transform="translate(0 -1298.96)"/><path class="ab" d="M1275.55,1789.71l-0.77,1.67s-0.07,0-.07,0l-0.64-1.73a0.19,0.19,0,0,1,0-.19l0.77-1.67c0-.06.07-0.06,0.07,0l0.64,1.7a0.26,0.26,0,0,1,0,.22h0Z" transform="translate(0 -1298.96)"/><path class="ab" d="M1279.75,1789.84l-0.77,1.67c0,0.06-.07.06-0.07,0l-0.64-1.73a0.19,0.19,0,0,1,0-.19l0.77-1.67c0-.06,0-0.06.07,0l0.64,1.73v0.19h0Z" transform="translate(0 -1298.96)"/><path class="ab" d="M1284,1790l-0.77,1.67q-0.05.1-.1,0l-0.6-1.7a0.26,0.26,0,0,1,0-.22l0.74-1.67a0.07,0.07,0,0,1,.1,0l0.64,1.73V1790h0Z" transform="translate(0 -1298.96)"/><path class="ab" d="M1288.12,1790.12l-0.74,1.67q-0.05.1-.1,0l-0.6-1.73a0.2,0.2,0,0,1,0-.19l0.74-1.67q0.05-.1.1,0l0.64,1.7a0.52,0.52,0,0,1,0,.22h0Z" transform="translate(0 -1298.96)"/><path class="ab" d="M1292.32,1790.09l-0.74,1.67q-0.05.1-.1,0l-0.6-1.7a0.26,0.26,0,0,1,0-.22l0.74-1.67q0.05-.1.1,0l0.64,1.73a0.39,0.39,0,0,1,0,.19h0Z" transform="translate(0 -1298.96)"/><path class="y" d="M1427.88,1803.27a1212,1212,0,0,1-127.63,6.47l0.3,5.13a1179.29,1179.29,0,0,0,126.32-6.41c1.08-.1,2.49-5.35,1-5.19h0Z" transform="translate(0 -1298.96)"/><path class="z" d="M1262,1808.88c15.42,0.38,30.75.9,46.14,0.83a13.1,13.1,0,0,0-.2,5.16c-15.36.54-30.75-.38-46.11-0.83-2-.06-2-5.19.17-5.16h0Z" transform="translate(0 -1298.96)"/><path class="y" d="M1301.83,1812.15a14.17,14.17,0,0,0-.83-5.5l0-1.62c0-.29-0.13-0.54-0.3-0.51l-0.71.06a0.55,0.55,0,0,0-.27.58l0,2a17.08,17.08,0,0,0-.59,5.09,14.87,14.87,0,0,0,.84,5.54l0,1.45a0.49,0.49,0,0,0,.3.51l0.74-.06a0.57,0.57,0,0,0,.27-0.58l0-1.88A17.62,17.62,0,0,0,1301.83,1812.15Z" transform="translate(0 -1298.96)"/><path class="aa" d="M1260.5,1808.84l5.28,0.13v0h-0.57c-2.15-.06-2.18,5-0.2,5.13-1.58-.06-3.13-0.1-4.7-0.16-2-.06-2-5.19.2-5.13h0Zm4.87,5.29,0.24,0h0Z" transform="translate(0 -1298.96)"/><path class="ab" d="M1296.55,1812.4l-0.77,1.67s-0.07,0-.07,0l-0.64-1.73a0.19,0.19,0,0,1,0-.19l0.77-1.67c0-.06,0-0.06.07,0l0.64,1.7v0.22h0Z" transform="translate(0 -1298.96)"/><path class="ab" d="M1267.18,1811.41l-0.77,1.67q-0.05.1-.1,0l-0.6-1.73a0.19,0.19,0,0,1,0-.19l0.74-1.67q0.05-.1.1,0l0.64,1.73v0.19h0Z" transform="translate(0 -1298.96)"/><path class="ab" d="M1271.35,1811.82l-0.74,1.67q-0.05.1-.1,0l-0.64-1.7v-0.22l0.77-1.67s0.07,0,.07,0l0.64,1.73a0.19,0.19,0,0,1,0,.19h0Z" transform="translate(0 -1298.96)"/><path class="ab" d="M1275.55,1812.15l-0.77,1.67s-0.07,0-.07,0l-0.64-1.73a0.19,0.19,0,0,1,0-.19l0.77-1.67c0-.06.07-0.06,0.07,0l0.64,1.7a0.26,0.26,0,0,1,0,.22h0Z" transform="translate(0 -1298.96)"/><path class="ab" d="M1279.75,1812.27l-0.77,1.67c0,0.06-.07.06-0.07,0l-0.64-1.73a0.19,0.19,0,0,1,0-.19l0.77-1.67c0-.06,0-0.06.07,0l0.64,1.73v0.19h0Z" transform="translate(0 -1298.96)"/><path class="ab" d="M1284,1812.4l-0.77,1.67q-0.05.1-.1,0l-0.6-1.7a0.26,0.26,0,0,1,0-.22l0.74-1.67a0.07,0.07,0,0,1,.1,0l0.64,1.73v0.19h0Z" transform="translate(0 -1298.96)"/><path class="ab" d="M1288.12,1812.56l-0.74,1.67q-0.05.1-.1,0l-0.6-1.73a0.2,0.2,0,0,1,0-.19l0.74-1.67q0.05-.1.1,0l0.64,1.7a0.52,0.52,0,0,1,0,.22h0Z" transform="translate(0 -1298.96)"/><path class="ab" d="M1292.32,1812.53l-0.74,1.67q-0.05.1-.1,0l-0.6-1.7a0.26,0.26,0,0,1,0-.22l0.74-1.67q0.05-.1.1,0l0.64,1.73a0.39,0.39,0,0,1,0,.19h0Z" transform="translate(0 -1298.96)"/><path class="ac" d="M1259.46,1846.08a1211.93,1211.93,0,0,1,127.63-6.47l-0.3-5.13a1179.29,1179.29,0,0,0-126.32,6.41c-1.08.1-2.49,5.35-1,5.19h0Z" transform="translate(0 -1298.96)"/><path class="ad" d="M1386.78,1834.48l0.3,5.13a1211.93,1211.93,0,0,0-127.63,6.47h0c-0.64.07-.74-0.89-0.55-2,0,0,86.4-7.05,126-6.14" transform="translate(0 -1298.96)"/><path class="z" d="M1425.33,1840.47c-15.42-.38-30.75-0.9-46.14-0.83a13.1,13.1,0,0,0,.2-5.16c15.36-.54,30.75.38,46.11,0.83,2,0.06,2,5.19-.17,5.16h0Z" transform="translate(0 -1298.96)"/><path class="y" d="M1385.51,1837.2a14.16,14.16,0,0,0,.83,5.5l0,1.62c0,0.29.13,0.54,0.3,0.51l0.71-.06a0.55,0.55,0,0,0,.27-0.58l0-2a17.08,17.08,0,0,0,.59-5.09,14.87,14.87,0,0,0-.84-5.54l0-1.45a0.49,0.49,0,0,0-.3-0.51l-0.74.06a0.57,0.57,0,0,0-.27.58l0,1.88A17.61,17.61,0,0,0,1385.51,1837.2Z" transform="translate(0 -1298.96)"/><path class="ac" d="M1426.84,1840.5l-5.28-.13v0h0.57c2.15,0.06,2.18-5,.2-5.13,1.58,0.06,3.13.1,4.7,0.16,2,0.06,2,5.19-.2,5.13h0Zm-4.87-5.29-0.24,0h0Z" transform="translate(0 -1298.96)"/><path class="ac" d="M1390.78,1836.94l0.77-1.67s0.07,0,.07,0l0.64,1.73a0.19,0.19,0,0,1,0,.19l-0.77,1.67c0,0.06,0,.06-0.07,0l-0.64-1.7v-0.22h0Z" transform="translate(0 -1298.96)"/><path class="ac" d="M1420.15,1837.94l0.77-1.67q0.05-.1.1,0l0.6,1.73a0.19,0.19,0,0,1,0,.19l-0.74,1.67q-0.05.1-.1,0l-0.64-1.73v-0.19h0Z" transform="translate(0 -1298.96)"/><path class="ac" d="M1416,1837.52l0.74-1.67q0.05-.1.1,0l0.64,1.7v0.22l-0.77,1.67s-0.07,0-.07,0l-0.64-1.73a0.19,0.19,0,0,1,0-.19h0Z" transform="translate(0 -1298.96)"/><path class="ac" d="M1411.79,1837.2l0.77-1.67s0.07,0,.07,0l0.64,1.73a0.19,0.19,0,0,1,0,.19l-0.77,1.67c0,0.06-.07.06-0.07,0l-0.64-1.7a0.26,0.26,0,0,1,0-.22h0Z" transform="translate(0 -1298.96)"/><path class="ac" d="M1407.59,1837.07l0.77-1.67c0-.06.07-0.06,0.07,0l0.64,1.73a0.19,0.19,0,0,1,0,.19l-0.77,1.67c0,0.06,0,.06-0.07,0l-0.64-1.73v-0.19h0Z" transform="translate(0 -1298.96)"/><path class="ac" d="M1403.39,1836.94l0.77-1.67q0.05-.1.1,0l0.6,1.7a0.26,0.26,0,0,1,0,.22l-0.74,1.67a0.06,0.06,0,0,1-.1,0l-0.64-1.73v-0.19h0Z" transform="translate(0 -1298.96)"/><path class="ac" d="M1399.22,1836.78l0.74-1.67q0.05-.1.1,0l0.6,1.73a0.2,0.2,0,0,1,0,.19l-0.74,1.67q-0.05.1-.1,0l-0.64-1.7a0.52,0.52,0,0,1,0-.22h0Z" transform="translate(0 -1298.96)"/><path class="ac" d="M1395,1836.82l0.74-1.67q0.05-.1.1,0l0.6,1.7a0.26,0.26,0,0,1,0,.22l-0.74,1.67q-0.05.1-.1,0L1395,1837a0.39,0.39,0,0,1,0-.19h0Z" transform="translate(0 -1298.96)"/><path class="y" d="M1259.46,1870.52a1211.93,1211.93,0,0,1,127.63-6.47l-0.3-5.13a1179.29,1179.29,0,0,0-126.32,6.41c-1.08.1-2.49,5.35-1,5.19h0Z" transform="translate(0 -1298.96)"/><path class="z" d="M1425.33,1864.91c-15.42-.38-30.75-0.9-46.14-0.83a13.1,13.1,0,0,0,.2-5.16c15.36-.54,30.75.38,46.11,0.83,2,0.06,2,5.19-.17,5.16h0Z" transform="translate(0 -1298.96)"/><path class="y" d="M1385.51,1861.64a14.16,14.16,0,0,0,.83,5.5l0,1.62c0,0.29.13,0.54,0.3,0.51l0.71-.06a0.55,0.55,0,0,0,.27-0.58l0-2a17.08,17.08,0,0,0,.59-5.09,14.87,14.87,0,0,0-.84-5.54l0-1.45a0.49,0.49,0,0,0-.3-0.51l-0.74.06a0.57,0.57,0,0,0-.27.58l0,1.88A17.61,17.61,0,0,0,1385.51,1861.64Z" transform="translate(0 -1298.96)"/><path class="aa" d="M1426.84,1864.94l-5.28-.13v0h0.57c2.15,0.06,2.18-5,.2-5.13,1.58,0.06,3.13.1,4.7,0.16,2,0.06,2,5.19-.2,5.13h0Zm-4.87-5.29-0.24,0h0Z" transform="translate(0 -1298.96)"/><path class="ab" d="M1390.78,1861.38l0.77-1.67s0.07,0,.07,0l0.64,1.73a0.19,0.19,0,0,1,0,.19l-0.77,1.67c0,0.06,0,.06-0.07,0l-0.64-1.7v-0.22h0Z" transform="translate(0 -1298.96)"/><path class="ab" d="M1420.15,1862.38l0.77-1.67q0.05-.1.1,0l0.6,1.73a0.19,0.19,0,0,1,0,.19l-0.74,1.67q-0.05.1-.1,0l-0.64-1.73v-0.19h0Z" transform="translate(0 -1298.96)"/><path class="ab" d="M1416,1862l0.74-1.67q0.05-.1.1,0l0.64,1.7v0.22l-0.77,1.67s-0.07,0-.07,0l-0.64-1.73a0.19,0.19,0,0,1,0-.19h0Z" transform="translate(0 -1298.96)"/><path class="ab" d="M1411.79,1861.64l0.77-1.67s0.07,0,.07,0l0.64,1.73a0.19,0.19,0,0,1,0,.19l-0.77,1.67c0,0.06-.07.06-0.07,0l-0.64-1.7a0.26,0.26,0,0,1,0-.22h0Z" transform="translate(0 -1298.96)"/><path class="ab" d="M1407.59,1861.51l0.77-1.67c0-.06.07-0.06,0.07,0l0.64,1.73a0.19,0.19,0,0,1,0,.19l-0.77,1.67c0,0.06,0,.06-0.07,0l-0.64-1.73v-0.19h0Z" transform="translate(0 -1298.96)"/><path class="ab" d="M1403.39,1861.38l0.77-1.67q0.05-.1.1,0l0.6,1.7a0.26,0.26,0,0,1,0,.22l-0.74,1.67a0.06,0.06,0,0,1-.1,0l-0.64-1.73v-0.19h0Z" transform="translate(0 -1298.96)"/><path class="ab" d="M1399.22,1861.22l0.74-1.67q0.05-.1.1,0l0.6,1.73a0.2,0.2,0,0,1,0,.19l-0.74,1.67q-0.05.1-.1,0l-0.64-1.7a0.52,0.52,0,0,1,0-.22h0Z" transform="translate(0 -1298.96)"/><path class="ab" d="M1395,1861.25l0.74-1.67q0.05-.1.1,0l0.6,1.7a0.26,0.26,0,0,1,0,.22l-0.74,1.67q-0.05.1-.1,0l-0.64-1.73a0.39,0.39,0,0,1,0-.19h0Z" transform="translate(0 -1298.96)"/><rect class="ae" x="299.66" y="672.85" width="1264.79" height="43.69"/><rect class="v" x="741.35" y="324.73" width="7.03" height="325.94"/><rect class="v" x="1119.7" y="324.73" width="7.03" height="325.94"/><rect class="x" x="1471.62" y="328.11" width="12.5" height="315.24"/><rect class="x" x="383.95" y="328.11" width="12.5" height="315.24"/><polygon class="af" points="299.67 643.35 247.17 663.62 247.17 673.66 299.67 652.45 299.67 643.35"/><polyline class="p" points="1563.94 716.27 1920.01 1032.04 1917.01 1080.04 944.06 1080.04 877.21 1080.04 0 1080.04 0 840.36 299.17 716.27"/><polygon class="e" points="1215.02 716.27 1673.65 1080.34 1896.46 1080.34 1283.71 716.27 1215.02 716.27"/><polygon class="e" points="1648.25 1080.34 1201.39 716.26 1128.6 716.26 1429.33 1080.34 1648.25 1080.34"/><polygon class="e" points="1402.67 1080.04 1115.22 716.27 1039.13 716.27 1192.2 1080.04 1402.67 1080.04"/><polygon class="e" points="1163.89 1080.34 1027.67 716.27 951.13 716.27 945.76 1080.04 1163.89 1080.34"/><polyline class="e" points="1920.01 1080.04 1920 866.25 1564.97 716.26 1300.16 716.27 1917.01 1080.04"/><path class="ag" d="M1082.63,2014.66c4.74,0,281.75,364.64,281.75,364.64L1920,2379v-93.17l-514.17-270.66Z" transform="translate(0 -1298.96)"/><polygon class="e" points="578.73 716.22 0 1056.14 0.17 1032.04 0 840.36 299.17 716.27 578.73 716.22"/><polygon class="e" points="663.46 716.27 203.17 1080.04 0 1080.04 0 1068.35 595.53 716.22 663.46 716.27"/><polygon class="e" points="228.29 1080.04 677.81 716.22 750.55 716.27 447.1 1080.04 228.29 1080.04"/><polygon class="e" points="473.27 1080.34 763.91 716.27 840 716.27 683.99 1080.04 473.27 1080.34"/><polygon class="e" points="712.92 1080.34 852.08 716.27 930.91 716.27 919.67 1080.34 712.92 1080.34"/><polygon class="ag" points="718.48 716.13 444.66 717.19 0.11 963.04 0 1080.04 352.35 1080.04 718.48 716.13"/><path class="p" d="M299.74,1995.37" transform="translate(0 -1298.96)"/></g></svg>