<svg xmlns="http://www.w3.org/2000/svg" viewBox="0 0 68.96 173"><defs><style>.a,.b{fill:#e80000;}.a{stroke:#161616;}.a,.c,.d,.f{stroke-miterlimit:10;}.a,.d{stroke-width:3px;}.c,.d{fill:none;}.c{stroke:#ffcd8a;stroke-width:5px;}.d{stroke:#ff9700;}.e{fill:#e7d09b;}.f{fill:#ff9700;stroke:#ffc476;}</style></defs><title>Door2</title><rect class="a" x="1.5" y="1.5" width="65.96" height="170"/><path class="b" d="M22,159.39c0-8-5.4-14.56-11.56-14.58V28.11c6.13,0,11.54-6.5,11.56-14.5H46.76c0,8,5,14.55,11.15,14.55v116.7c-6.16,0-11.15,6.51-11.15,14.55H22v0Z" transform="translate(0.02 0)"/><path class="c" d="M22,159.39c0-8-5.4-14.56-11.56-14.58V28.11c6.13,0,11.54-6.5,11.56-14.5H46.76c0,8,5,14.55,11.15,14.55v116.7c-6.16,0-11.15,6.51-11.15,14.55H22v0Z" transform="translate(0.02 0)"/><path class="d" d="M22,159.39c0-8-5.4-14.56-11.56-14.58V28.11c6.13,0,11.1-6.5,11.12-14.5H46.76c0,8,5,14.55,11.15,14.55v116.7c-6.16,0-11.15,6.51-11.15,14.55H21.57Z" transform="translate(0.02 0)"/><path class="e" d="M50.2,119.1a9.91,9.91,0,0,1,0-19.81h0a9.91,9.91,0,0,1,0,19.81h0Z" transform="translate(0.02 0)"/><path class="b" d="M50.22,100.67a8.55,8.55,0,1,1-8.55,8.55,8.55,8.55,0,0,1,8.55-8.55m0-2.68a11.23,11.23,0,1,0,11.23,11.23A11.24,11.24,0,0,0,50.22,98h0Z" transform="translate(0.02 0)"/><path class="f" d="M23,45a3.49,3.49,0,0,1,4.93,0l2.51,2.51,3-3-2.37-2.37a1.78,1.78,0,0,1,0-2.52l2.09-2.09a1.83,1.83,0,0,1,2.52,0l2.09,2.09a1.78,1.78,0,0,1,0,2.52L35.39,44.5l3,3L40.91,45a3.51,3.51,0,0,1,5,5l-2.51,2.51L45.86,55a3.51,3.51,0,0,1-5,5l-2.51-2.51-3,3,2.37,2.37a1.78,1.78,0,0,1,0,2.52l-2.09,2.09a1.78,1.78,0,0,1-2.52,0L31,65.34a1.78,1.78,0,0,1,0-2.52l2.37-2.37-3-3L27.9,60a3.44,3.44,0,0,1-2.45,1,3.58,3.58,0,0,1-2.52-1.05,3.49,3.49,0,0,1,0-4.93l2.51-2.51L22.93,50A3.48,3.48,0,0,1,23,45Zm6.46,3.49L26.92,46a2.07,2.07,0,0,0-1.47-.61,2.15,2.15,0,0,0-1.53.65,2.09,2.09,0,0,0,0,3l2.51,2.51Zm0,8-3-3L23.91,56a2.07,2.07,0,0,0-.61,1.47A2.15,2.15,0,0,0,24,59a2.1,2.1,0,0,0,3,0Zm4-4-3-3-3,3,3,3Zm4-4-3-3-3,3,3,3Zm0,8-3-3-3,3,3,3ZM37,40.88L34.4,38.23l-2.66,2.65,2.65,2.66Zm0,23.2-2.66-2.65-2.65,2.65,2.65,2.66Zm4.34-11.6-3-3-3,3,3,3Zm4.1-5A2.15,2.15,0,0,0,44.8,46a2.09,2.09,0,0,0-3,0l-2.51,2.51,3,3L44.87,49a2.08,2.08,0,0,0,.62-1.48h0Zm0,9.94A2.08,2.08,0,0,0,44.87,56l-2.51-2.51-3,3L41.86,59a2.06,2.06,0,0,0,1.47.61,2.15,2.15,0,0,0,1.54-.65,2.08,2.08,0,0,0,.62-1.48h0Z" transform="translate(0.02 0)"/></svg>