<svg xmlns="http://www.w3.org/2000/svg" viewBox="0 0 68.96 173"><defs><style>.a,.b{fill:#e80000;}.a{stroke:#161616;}.a,.c,.d,.f{stroke-miterlimit:10;}.a,.d{stroke-width:3px;}.c,.d{fill:none;}.c{stroke:#ffcd8a;stroke-width:5px;}.d{stroke:#ff9700;}.e{fill:#e7d09b;}.f{fill:#ff9700;stroke:#ffc476;}</style></defs><title>Door1</title><rect class="a" x="1.5" y="1.5" width="65.96" height="170"/><path class="b" d="M46.91,159.41H22.15c0-8-5-14.55-11.15-14.55V28.16c6.16,0,11.15-6.51,11.15-14.55H46.91c0,8,5.43,14.48,11.56,14.5v116.7c-6.16,0-11.57,6.54-11.56,14.58v0Z" transform="translate(0.02)"/><path class="c" d="M46.91,159.41H22.15c0-8-5-14.55-11.15-14.55V28.16c6.16,0,11.15-6.51,11.15-14.55H46.91c0,8,5.43,14.48,11.56,14.5v116.7c-6.16,0-11.57,6.54-11.56,14.58v0Z" transform="translate(0.02)"/><path class="d" d="M47.34,159.41H22.15c0-8-5-14.55-11.15-14.55V28.16c6.16,0,11.15-6.51,11.15-14.55H47.34c0,8,5,14.48,11.12,14.5v116.7c-6.16,0-11.57,6.54-11.56,14.58Z" transform="translate(0.02)"/><path class="e" d="M18.7,119.1a9.91,9.91,0,0,1,0-19.81h0a9.91,9.91,0,0,1,0,19.81h0Z" transform="translate(0.02)"/><path class="b" d="M18.7,100.67a8.55,8.55,0,1,1-8.55,8.55,8.55,8.55,0,0,1,8.55-8.55m0-2.68a11.23,11.23,0,1,0,11.23,11.23A11.24,11.24,0,0,0,18.7,98h0Z" transform="translate(0.02)"/><path class="f" d="M47,47.5A3.46,3.46,0,0,1,46,50l-2.51,2.51L46,55a3.49,3.49,0,0,1,0,4.93A3.58,3.58,0,0,1,43.47,61,3.44,3.44,0,0,1,41,60L38.5,57.44l-3,3,2.37,2.37a1.78,1.78,0,0,1,0,2.52l-2.09,2.09a1.78,1.78,0,0,1-2.52,0l-2.09-2.09a1.78,1.78,0,0,1,0-2.52l2.37-2.37-3-3L28,59.95a3.51,3.51,0,0,1-5-5l2.51-2.51L23.06,50a3.51,3.51,0,0,1,5-5l2.51,2.51,3-3-2.37-2.37a1.78,1.78,0,0,1,0-2.52l2.09-2.09a1.83,1.83,0,0,1,2.52,0l2.09,2.09a1.78,1.78,0,0,1,0,2.52L35.49,44.5l3,3L41,45A3.53,3.53,0,0,1,47,47.5Zm-4.51,4L45,49a2.09,2.09,0,0,0,0-3,2.15,2.15,0,0,0-1.53-.65A2.07,2.07,0,0,0,42,46l-2.53,2.51ZM42,59a2.1,2.1,0,0,0,3,0,2.15,2.15,0,0,0,.65-1.54A2.07,2.07,0,0,0,45,56l-2.51-2.51-3,3ZM38.5,55.48l3-3-3-3-3,3Zm-4-4,3-3-3-3-3,3Zm0,8,3-3-3-3-3,3Zm0-15.94,2.65-2.66-2.66-2.65-2.65,2.65Zm0,23.2,2.65-2.66-2.65-2.65-2.66,2.65Zm-4-11.25,3-3-3-3-3,3Zm-7.11-8A2.08,2.08,0,0,0,24,49l2.54,2.51,3-3L27.08,46a2.09,2.09,0,0,0-3,0,2.15,2.15,0,0,0-.69,1.52h0Zm0,9.94A2.08,2.08,0,0,0,24,58.93a2.15,2.15,0,0,0,1.54.65A2.06,2.06,0,0,0,27.06,59l2.51-2.51-3-3L24,56a2.08,2.08,0,0,0-.62,1.47h0Z" transform="translate(0.02)"/></svg>