<svg id="Layer_1" data-name="Layer 1" xmlns="http://www.w3.org/2000/svg" xmlns:xlink="http://www.w3.org/1999/xlink" viewBox="0 0 5.86 9.22"><defs><style>.cls-1{fill:url(#New_Gradient_Swatch_2);}.cls-2{fill:url(#New_Gradient_Swatch_2-2);}.cls-3{fill:url(#New_Gradient_Swatch_2-3);}.cls-4{fill:url(#New_Gradient_Swatch_2-4);}.cls-5{fill:url(#New_Gradient_Swatch_2-5);}.cls-6{fill:url(#New_Gradient_Swatch_1);}.cls-7{fill:url(#New_Gradient_Swatch_2-6);}.cls-8{fill:url(#New_Gradient_Swatch_2-7);}.cls-9{fill:url(#New_Gradient_Swatch_2-8);}.cls-10{fill:url(#New_Gradient_Swatch_2-9);}.cls-11{fill:url(#New_Gradient_Swatch_2-10);}.cls-12{fill:url(#New_Gradient_Swatch_1-2);}</style><linearGradient id="New_Gradient_Swatch_2" x1="157.22" y1="57.8" x2="157.22" y2="48.78" gradientUnits="userSpaceOnUse"><stop offset="0" stop-color="#630000"/><stop offset="0.99" stop-color="#600000"/></linearGradient><linearGradient id="New_Gradient_Swatch_2-2" x1="157.17" y1="57.75" x2="157.17" y2="48.73" xlink:href="#New_Gradient_Swatch_2"/><linearGradient id="New_Gradient_Swatch_2-3" x1="157.12" y1="57.7" x2="157.12" y2="48.68" xlink:href="#New_Gradient_Swatch_2"/><linearGradient id="New_Gradient_Swatch_2-4" x1="157.07" y1="57.65" x2="157.07" y2="48.63" xlink:href="#New_Gradient_Swatch_2"/><linearGradient id="New_Gradient_Swatch_2-5" x1="157.02" y1="57.6" x2="157.02" y2="48.58" xlink:href="#New_Gradient_Swatch_2"/><linearGradient id="New_Gradient_Swatch_1" x1="157.02" y1="57.6" x2="157.02" y2="48.58" gradientUnits="userSpaceOnUse"><stop offset="0" stop-color="#d31c1c"/><stop offset="1" stop-color="#c25400"/></linearGradient><linearGradient id="New_Gradient_Swatch_2-6" x1="155.74" y1="52.91" x2="158.69" y2="52.91" xlink:href="#New_Gradient_Swatch_2"/><linearGradient id="New_Gradient_Swatch_2-7" x1="155.69" y1="52.86" x2="158.64" y2="52.86" xlink:href="#New_Gradient_Swatch_2"/><linearGradient id="New_Gradient_Swatch_2-8" x1="155.64" y1="52.81" x2="158.59" y2="52.81" xlink:href="#New_Gradient_Swatch_2"/><linearGradient id="New_Gradient_Swatch_2-9" x1="155.59" y1="52.76" x2="158.54" y2="52.76" xlink:href="#New_Gradient_Swatch_2"/><linearGradient id="New_Gradient_Swatch_2-10" x1="155.54" y1="52.71" x2="158.49" y2="52.71" xlink:href="#New_Gradient_Swatch_2"/><linearGradient id="New_Gradient_Swatch_1-2" x1="157.02" y1="53.58" x2="157.02" y2="51.84" xlink:href="#New_Gradient_Swatch_1"/></defs><title>f</title><path class="cls-1" d="M156.79,49.16a6.28,6.28,0,0,1,2.13-.38,1.87,1.87,0,0,1,.59.07,0.74,0.74,0,0,1,.53.5,1.26,1.26,0,0,1-.49,1,2.52,2.52,0,0,1-1.3.38c-0.3,0-.61,0-0.91.07a2.54,2.54,0,0,0-.79.29,2.15,2.15,0,0,0-1.15,1.55,3.18,3.18,0,0,0,.66,2.86,2.92,2.92,0,0,0,.52.45,3.41,3.41,0,0,1,1,.86,0.71,0.71,0,0,1,.06.68,0.78,0.78,0,0,1-.72.33,1.56,1.56,0,0,1-1-.39,2.4,2.4,0,0,1-.54-0.78,10.49,10.49,0,0,1-.86-2.75,5,5,0,0,1,.07-2.45A3.8,3.8,0,0,1,156.79,49.16Z" transform="translate(-154.19 -48.58)"/><path class="cls-2" d="M156.74,49.11a6.28,6.28,0,0,1,2.13-.38,1.87,1.87,0,0,1,.59.07,0.74,0.74,0,0,1,.53.5,1.26,1.26,0,0,1-.49,1,2.52,2.52,0,0,1-1.3.38c-0.3,0-.61,0-0.91.07a2.54,2.54,0,0,0-.79.29,2.15,2.15,0,0,0-1.15,1.55,3.18,3.18,0,0,0,.66,2.86,2.92,2.92,0,0,0,.52.45,3.41,3.41,0,0,1,1,.86,0.71,0.71,0,0,1,.06.68,0.78,0.78,0,0,1-.72.33,1.56,1.56,0,0,1-1-.39,2.4,2.4,0,0,1-.54-0.78,10.49,10.49,0,0,1-.86-2.75,5,5,0,0,1,.07-2.45A3.8,3.8,0,0,1,156.74,49.11Z" transform="translate(-154.19 -48.58)"/><path class="cls-3" d="M156.69,49.06a6.28,6.28,0,0,1,2.13-.38,1.87,1.87,0,0,1,.59.07,0.74,0.74,0,0,1,.53.5,1.26,1.26,0,0,1-.49,1,2.52,2.52,0,0,1-1.3.38c-0.3,0-.61,0-0.91.07a2.54,2.54,0,0,0-.79.29,2.15,2.15,0,0,0-1.15,1.55,3.18,3.18,0,0,0,.66,2.86,2.92,2.92,0,0,0,.52.45,3.41,3.41,0,0,1,1,.86,0.71,0.71,0,0,1,.06.68,0.78,0.78,0,0,1-.72.33,1.56,1.56,0,0,1-1-.39,2.4,2.4,0,0,1-.54-0.78,10.49,10.49,0,0,1-.86-2.75,5,5,0,0,1,.07-2.45A3.8,3.8,0,0,1,156.69,49.06Z" transform="translate(-154.19 -48.58)"/><path class="cls-4" d="M156.64,49a6.28,6.28,0,0,1,2.13-.38,1.87,1.87,0,0,1,.59.07,0.74,0.74,0,0,1,.53.5,1.26,1.26,0,0,1-.49,1,2.52,2.52,0,0,1-1.3.38c-0.3,0-.61,0-0.91.07a2.54,2.54,0,0,0-.79.29,2.15,2.15,0,0,0-1.15,1.55,3.18,3.18,0,0,0,.66,2.86,2.92,2.92,0,0,0,.52.45,3.41,3.41,0,0,1,1,.86,0.71,0.71,0,0,1,.06.68,0.78,0.78,0,0,1-.72.33,1.56,1.56,0,0,1-1-.39,2.4,2.4,0,0,1-.54-0.78,10.49,10.49,0,0,1-.86-2.75,5,5,0,0,1,.07-2.45A3.8,3.8,0,0,1,156.64,49Z" transform="translate(-154.19 -48.58)"/><path class="cls-5" d="M156.59,49a6.28,6.28,0,0,1,2.13-.38,1.87,1.87,0,0,1,.59.07,0.74,0.74,0,0,1,.53.5,1.26,1.26,0,0,1-.49,1,2.52,2.52,0,0,1-1.3.38c-0.3,0-.61,0-0.91.07a2.54,2.54,0,0,0-.79.29,2.15,2.15,0,0,0-1.15,1.55,3.18,3.18,0,0,0,.66,2.86,2.92,2.92,0,0,0,.52.45,3.41,3.41,0,0,1,1,.86,0.71,0.71,0,0,1,.06.68,0.78,0.78,0,0,1-.72.33,1.56,1.56,0,0,1-1-.39,2.4,2.4,0,0,1-.54-0.78,10.49,10.49,0,0,1-.86-2.75,5,5,0,0,1,.07-2.45A3.8,3.8,0,0,1,156.59,49Z" transform="translate(-154.19 -48.58)"/><path class="cls-6" d="M156.59,49a6.28,6.28,0,0,1,2.13-.38,1.87,1.87,0,0,1,.59.07,0.74,0.74,0,0,1,.53.5,1.26,1.26,0,0,1-.49,1,2.52,2.52,0,0,1-1.3.38c-0.3,0-.61,0-0.91.07a2.54,2.54,0,0,0-.79.29,2.15,2.15,0,0,0-1.15,1.55,3.18,3.18,0,0,0,.66,2.86,2.92,2.92,0,0,0,.52.45,3.41,3.41,0,0,1,1,.86,0.71,0.71,0,0,1,.06.68,0.78,0.78,0,0,1-.72.33,1.56,1.56,0,0,1-1-.39,2.4,2.4,0,0,1-.54-0.78,10.49,10.49,0,0,1-.86-2.75,5,5,0,0,1,.07-2.45A3.8,3.8,0,0,1,156.59,49Z" transform="translate(-154.19 -48.58)"/><path class="cls-7" d="M158.36,53.18a1.08,1.08,0,0,0,.32-0.48,0.54,0.54,0,0,0-.21-0.52,0.77,0.77,0,0,0-.71-0.08,2,2,0,0,0-.37.23l-0.38.26a3.82,3.82,0,0,1-.69.37,0.86,0.86,0,0,0-.57.38c-0.05.17,0.15,0.26,0.27,0.31a2,2,0,0,0,1.47,0,3,3,0,0,0,.52-0.22l0.24-.16Z" transform="translate(-154.19 -48.58)"/><path class="cls-8" d="M158.31,53.13a1.08,1.08,0,0,0,.32-0.48,0.54,0.54,0,0,0-.21-0.52A0.77,0.77,0,0,0,157.7,52a2,2,0,0,0-.37.23l-0.38.26a3.82,3.82,0,0,1-.69.37,0.86,0.86,0,0,0-.57.38c-0.05.17,0.15,0.26,0.27,0.31a2,2,0,0,0,1.47,0,3,3,0,0,0,.52-0.22l0.24-.16Z" transform="translate(-154.19 -48.58)"/><path class="cls-9" d="M158.26,53.08a1.08,1.08,0,0,0,.32-0.48,0.54,0.54,0,0,0-.21-0.52,0.77,0.77,0,0,0-.71-0.08,2,2,0,0,0-.37.23l-0.38.26a3.82,3.82,0,0,1-.69.37,0.86,0.86,0,0,0-.57.38c-0.05.17,0.15,0.26,0.27,0.31a2,2,0,0,0,1.47,0,3,3,0,0,0,.52-0.22l0.24-.16Z" transform="translate(-154.19 -48.58)"/><path class="cls-10" d="M158.21,53a1.08,1.08,0,0,0,.32-0.48,0.54,0.54,0,0,0-.21-0.52,0.77,0.77,0,0,0-.71-0.08,2,2,0,0,0-.37.23l-0.38.26a3.82,3.82,0,0,1-.69.37,0.86,0.86,0,0,0-.57.38c-0.05.17,0.15,0.26,0.27,0.31a2,2,0,0,0,1.47,0,3,3,0,0,0,.52-0.22l0.24-.16Z" transform="translate(-154.19 -48.58)"/><path class="cls-11" d="M158.16,53a1.08,1.08,0,0,0,.32-0.48,0.54,0.54,0,0,0-.21-0.52,0.77,0.77,0,0,0-.71-0.08,2,2,0,0,0-.37.23l-0.38.26a3.82,3.82,0,0,1-.69.37,0.86,0.86,0,0,0-.57.38c-0.05.17,0.15,0.26,0.27,0.31a2,2,0,0,0,1.47,0,3,3,0,0,0,.52-0.22l0.24-.16Z" transform="translate(-154.19 -48.58)"/><path class="cls-12" d="M158.16,53a1.08,1.08,0,0,0,.32-0.48,0.54,0.54,0,0,0-.21-0.52,0.77,0.77,0,0,0-.71-0.08,2,2,0,0,0-.37.23l-0.38.26a3.82,3.82,0,0,1-.69.37,0.86,0.86,0,0,0-.57.38c-0.05.17,0.15,0.26,0.27,0.31a2,2,0,0,0,1.47,0,3,3,0,0,0,.52-0.22l0.24-.16Z" transform="translate(-154.19 -48.58)"/></svg>