<svg xmlns="http://www.w3.org/2000/svg" xmlns:xlink="http://www.w3.org/1999/xlink" viewBox="0 0 581.77 261.65"><defs><style>.a{fill:none;}.b{fill:#1e1e1e;}.b,.k{opacity:0.3;}.ai,.am,.an,.ao,.b,.k{isolation:isolate;}.c{fill:url(#a);}.d{fill:url(#b);}.e{fill:url(#c);}.f{fill:url(#d);}.g{fill:url(#e);}.h{fill:url(#f);}.i{fill:url(#g);}.j{fill:#51321d;}.k{fill:#511414;}.l{fill:#121212;}.m{fill:#232323;}.n{fill:#404041;}.o{fill:#fff;}.p{fill:#f09f41;}.q{fill:#51a960;}.r{fill:#e04837;}.s{fill:#8a281b;}.t{fill:#f4c548;}.u{fill:#7f4c1d;}.v{fill:#7a431f;}.w{fill:#9b5b2c;}.x{fill:#663b18;}.y{clip-path:url(#h);}.z{fill:#603716;}.aa{fill:#6d3f19;}.ab{fill:#af733e;}.ac{fill:#ddcaaa;}.ad{fill:#e8d8bf;}.ae{fill:#d6bf9d;}.af{fill:#cead80;}.ag,.ai{fill:#f4e5d0;}.ah{fill:#c9ac85;}.ai{opacity:0.48;}.aj{fill:#bc986d;}.ak,.an{fill:#bc9d67;}.al{fill:#f4e3b7;}.am{fill:#968051;}.am,.an,.ao{opacity:0.61;}.ao{fill:#9b8054;}.ap{fill:#ba7d4a;}.aq{fill:#fff9d9;}.ar{fill:#ead1a9;}.as{fill:#f5b309;}.at{fill:#ffc84d;}.au{fill:#e52b31;}.av{fill:#f4404e;}</style><linearGradient id="a" x1="3326.2" y1="902.81" x2="3350.59" y2="902.81" gradientUnits="userSpaceOnUse"><stop offset="0" stop-color="#493016"/><stop offset="1" stop-color="#462d1f"/></linearGradient><linearGradient id="b" x1="3297.63" y1="920.16" x2="3331.65" y2="920.16" gradientUnits="userSpaceOnUse"><stop offset="0" stop-color="#714a2c"/><stop offset="1" stop-color="#56371c"/></linearGradient><linearGradient id="c" x1="3630.17" y1="910.31" x2="3654.46" y2="910.31" xlink:href="#a"/><linearGradient id="d" x1="3601.23" y1="922.94" x2="3635.42" y2="922.94" xlink:href="#b"/><linearGradient id="e" x1="3256.97" y1="902.24" x2="3676.67" y2="902.24" xlink:href="#b"/><linearGradient id="f" x1="3676.29" y1="870.8" x2="3718.75" y2="870.8" xlink:href="#a"/><linearGradient id="g" x1="3256.97" y1="861.4" x2="3717.87" y2="861.4" gradientUnits="userSpaceOnUse"><stop offset="0" stop-color="#7a4f30"/><stop offset="1" stop-color="#674326"/></linearGradient><clipPath id="h" transform="translate(-3195.04 -748.89)"><path class="a" d="M3533.22,770.87c33.54-.88,61.1,13.63,61.1,32.43s-27.56,34.34-61.1,34.72c-33,.37-59.45-14.17-59.45-32.46S3500.19,771.74,3533.22,770.87Z"/></clipPath></defs><title>Hospitality</title><path class="b" d="M3728.79,1010.53L3208,996.63a13.35,13.35,0,0,1-13-13.26,12.72,12.72,0,0,1,1.41-5.83l37.93-73.8a13.17,13.17,0,0,1,11.77-7.11L3760,897.8c9.26,0,16.82,6.59,16.86,14.74a13,13,0,0,1-.84,4.64l-31.34,83.67C3742.39,1006.85,3736,1010.76,3728.79,1010.53Z" transform="translate(-3195.04 -748.89)"/><path class="c" d="M3349.18,929.88l-18.85,24.25-4.13-69.18,24.38-33.45v74.28A6.69,6.69,0,0,1,3349.18,929.88Z" transform="translate(-3195.04 -748.89)"/><path class="d" d="M3327.11,955.44l-24.8-.31a4.48,4.48,0,0,1-4.42-4.46L3297.63,885l33.77-.09,0.24,66.06A4.48,4.48,0,0,1,3327.11,955.44Z" transform="translate(-3195.04 -748.89)"/><path class="e" d="M3652.81,933.72l-18.45,25.41-4.2-74.25,24.29-23.38v67.16A8.61,8.61,0,0,1,3652.81,933.72Z" transform="translate(-3195.04 -748.89)"/><path class="f" d="M3630.45,961l-24.12-.3a4.92,4.92,0,0,1-4.86-4.9L3601.23,885l34-.1,0.24,71.19A4.92,4.92,0,0,1,3630.45,961Z" transform="translate(-3195.04 -748.89)"/><path class="g" d="M3257,892.71l419.7,2.54V910a1.78,1.78,0,0,1-1.79,1.78l-414-2.23a4,4,0,0,1-3.93-4V892.71Z" transform="translate(-3195.04 -748.89)"/><path class="h" d="M3718,847.78l-41.74,63.29,0.23-15.83,41.32-64.73,0.9,14.59A4.47,4.47,0,0,1,3718,847.78Z" transform="translate(-3195.04 -748.89)"/><path class="i" d="M3673.56,896.05l-413.93-.8a2.66,2.66,0,0,1-2.29-4L3290.26,835a5.52,5.52,0,0,1,4.69-2.73l418.61-5.5a4.25,4.25,0,0,1,3.63,6.56l-38.74,60.09A5.8,5.8,0,0,1,3673.56,896.05Z" transform="translate(-3195.04 -748.89)"/><path class="j" d="M3671.27,838.48a14.85,14.85,0,0,1-11.06-2c-2.53-1.52-5.09-3-7.73-4.47l-1.62,0c1.12,0.57,2.22,1.13,3.28,1.73,6.37,3.58,11.78,8.83,24,2.84a55.19,55.19,0,0,0,8.07-4.66h-0.39a30.64,30.64,0,0,1-4.21,2.43C3678.31,836,3674.78,837.85,3671.27,838.48Z" transform="translate(-3195.04 -748.89)"/><path class="j" d="M3551.66,894.65a6.73,6.73,0,0,0,1.17-2.51c0.16-.72,0-2.13,1.17-2.74a14.24,14.24,0,0,1,4.79-1.29,23.11,23.11,0,0,1,11.39,1.09c2.78,1,5.58,2.52,9,2.8,30.68,2.38,65-1.6,98.18-2.15l0.6-1.09c-11.94.16-24.23,0.93-36.24,1.62-10.75.61-21.5,1.22-32,1.51-10,.26-21.29.94-30.23-0.51-7.48-1.23-12-5.58-21.55-3.68-2.35.46-4.75,1.22-5.31,3.15-0.12.5-.16,1-0.25,1.46" transform="translate(-3195.04 -748.89)"/><path class="j" d="M3535.63,835.34c10.79,2.31,21.39,6.11,34.61,5.17,12.05-.86,24.87-4.6,37.53-7.62,0.86-.21,1.73-0.45,2.58-0.73l-2.2,0c-2.71.71-5.43,1.3-8.24,2-6.08,1.53-12.15,3.13-18.19,4.19a80.45,80.45,0,0,1-17.94,1.5,98.51,98.51,0,0,1-16.61-2.8q-10.71-2.39-21.46-4.66l-3.92,0Q3528.73,833.85,3535.63,835.34Z" transform="translate(-3195.04 -748.89)"/><path class="j" d="M3528.45,855.61a9.09,9.09,0,0,1-3.1-2.94,7.7,7.7,0,0,1-.68-1.4,43.49,43.49,0,0,1,5.47-2.14,63.05,63.05,0,0,1,17-2.93c11.93-.31,22,2.24,34.53,1.09,13.6-1.29,27.48-3.95,40.21-2.91s24.65,3.21,38.78,2.24,29.18-4.24,44.08-7.08l0.48-.89c-7.29,1.41-14.58,3-21.82,4.26a183,183,0,0,1-28.77,3.23c-9.37.16-17.76-1-26.39-1.92a122.56,122.56,0,0,0-28.3.21c-9.74,1.2-19.92,3-28.89,2.54-15.24-.78-28.91-3.82-46.65,3.8a1,1,0,0,0-.37.68c2.62,8.46,17.53,8.73,29.38,8.22,14.76-.67,30.36-3.19,45.33-4,7.61-.39,14.61.37,22.07,0.39,10,0,20.29-.35,30.46-0.42,14.86-.1,30.16.22,42.66,3.66l0.4-.73c-17.36-5-40.47-3.71-61-3.34-6.24,0-12.49.2-18.53,0-4.38-.14-8.59-0.57-13.12-0.4-8.85.31-18,1.47-27.07,2.4a252.17,252.17,0,0,1-26.94,1.81C3540.72,859,3533.08,858.57,3528.45,855.61Z" transform="translate(-3195.04 -748.89)"/><path class="j" d="M3432.59,878.76L3433,878l-0.73.21C3432.39,878.42,3432.49,878.6,3432.59,878.76Z" transform="translate(-3195.04 -748.89)"/><path class="j" d="M3463.17,843c-11.42-1.65-23.43-2.81-33.12-6.41-3.24-1.22-6.37-2.53-9.5-3.81l-2.74,0c3.55,1.39,7.07,2.83,10.74,4.19,9.74,3.59,21.39,4.93,32.79,6.56,6,0.86,12.11,1.73,18,2.86,4.87,0.94,9.41,2.31,14.32,3.24,4.58,0.88,10.62,2.32,16.46.88,3.75-.95,5.48-3.4,5.3-5.73-0.48-5.77-6.5-7.38-13.69-8-4.15-.4-8.48-0.5-12.68-0.83a85.81,85.81,0,0,1-12.83-2.24c-1.43-.32-2.84-0.66-4.24-1l-3.57,0q4.94,1.22,10,2.27c7.94,1.66,16.66,1.56,25,2.66,3.83,0.52,8.33,1.27,10.23,3.64,1.39,1.76,3.19,6.89-2.43,8.32-6,1.51-11.81.27-16.53-.62-5.07-1-9.73-2.42-14.83-3.36C3474.28,844.64,3468.75,843.79,3463.17,843Z" transform="translate(-3195.04 -748.89)"/><path class="j" d="M3345.75,894.78a200.91,200.91,0,0,1,71.23-5.36c9.18,1,18.41,2.12,28.48,1.75,10.88-.41,22.12-1.56,33.21-2.25a182,182,0,0,1,30.79.46c8.6,0.92,17.58,1.89,27.72-.51a0.87,0.87,0,0,0,.37-0.63c-1.32-4.7-10.5-5.76-16.3-6.5a202.71,202.71,0,0,0-27.63-1.43,57.56,57.56,0,0,0-8.84.39c-4.34.67-8.76,1.64-13,2s-9.25.57-9.79-2.78c-0.5-3.13,6.37-3.51,8.64-3.69,9.52-.71,19.15-1.63,28.17-1.07,11.67,0.74,22.64,2.6,34.65,3,13,0.44,26.17.72,39.14,1.46,13.41,0.79,25.91,2.87,39.3,3.86s28.06,0.77,42.57.39c5.82-.15,11.38,0,17.09.16a69.79,69.79,0,0,0,8.91-.23l0.35-.68c-8,.92-15.37-0.55-23-0.14a377.13,377.13,0,0,1-39,.16c-13.71-.69-26.28-3-39.7-3.87-12.86-.87-26-1.17-38.93-1.66-12.39-.4-23.89-1.78-35.73-2.81a125.07,125.07,0,0,0-18.07-.48c-4.08.23-8.25,0.74-12.33,1-2.72.15-10.38,0-12.16,3.22-2.9,5.26,6,5.19,10.68,4.57,4.35-.57,9.24-1.93,13.48-2.1,2.7-.12,5.38-0.18,8-0.18a214.64,214.64,0,0,1,23.15,1c6.37,0.68,14.45,1.4,18.33,4.75a4.85,4.85,0,0,1,1.12,1.21c0.38,0.7.62,0.44-.62,0.69a53.74,53.74,0,0,1-8.45,1.09,112,112,0,0,1-16.52-.77,203.48,203.48,0,0,0-36.94-.24c-13,1-26.35,2.47-38.51,1.85-11.27-.56-21.58-2.46-32.76-2.91s-22.73.69-34.43,2.33a214.41,214.41,0,0,0-23.57,4.63" transform="translate(-3195.04 -748.89)"/><path class="j" d="M3333.55,840.31c-4.86-2.43-9.64-4.92-14.59-7.26l-1.9,0,2.95,1.4c3.57,1.73,7.15,3.52,10.66,5.29,3.17,1.61,6.18,3.41,10.08,4.29,7.05,1.58,15.42.35,23.74-.41,5.91-.54,11.19.26,17,0.1,3,0,9.13-.19,11.63-3.35,3.18-4,1.86-6.13-.91-7.59l-1.64,0c2.2,1,4,2.3,3.61,4.79-0.49,3.07-3.75,4.47-7.15,5-5.36.82-10.25,0.4-15.15,0.24-6.09-.2-12.7.9-19,1.25A35.81,35.81,0,0,1,3333.55,840.31Z" transform="translate(-3195.04 -748.89)"/><path class="j" d="M3278.52,861.08a190.82,190.82,0,0,1,26.1-.31c13.71,0.66,27.12,2,40.61,3.38,30.57,3.06,62.31,5.49,96.28,4.23,5.76-.22,11.62-0.34,17.61-1,1.8-.21,4.66-0.32,6.57-1.36s1.07-2.39,0-2.93c-3.92-2.09-9.37-3-14.39-3.82a78.06,78.06,0,0,0-16.8-1.34c-8.77.46-18,1.72-26.47,1.51-3.8-.09-8-0.28-10.75-1.71-1.85-1-1.75-1,.72-2.36a46.84,46.84,0,0,1,4.67-2.15c16.14-6.22,32.4-4.17,45.32-1.79,14.52,2.67,27.74,7,41.66,10.61,18.1,4.72,38.86,6.06,60.26,6.65,44.71,1.24,89.81,3.35,136.19,5l0.51-.92c-26-1.05-51.83-1.9-77.29-2.85-25.94-1-52-1.26-77.11-2.67a232.71,232.71,0,0,1-50.89-8.3c-14.06-4-28.2-8.21-44-9.79-12.53-1.24-28.15-1.27-41.93,7.31a0.92,0.92,0,0,0-.36.67c4.94,4.49,17,3.16,25.76,2.5,8.19-.61,16.28-1.45,23.74-0.54a96.35,96.35,0,0,1,16.94,3.29c1.63,0.5,4.12,1.05,4.84,2.3,0.6,1.06-4.2,1.67-5.09,1.79-11.82,1.51-23.41,1.5-34.47,1.54-12.6.06-24.87-.3-37-0.95-22.31-1.24-43.72-3.53-65.14-5.47-14.63-1.32-29.87-2.61-45.86-1Z" transform="translate(-3195.04 -748.89)"/><path class="j" d="M3272.58,873.14a123.28,123.28,0,0,0,13.44,2.24c11.24,1.12,23.72.72,35.65,0.89,10.58,0.16,21.26.54,32.33-.08,14.4-.87,29.45-3.12,44-3.79,11.47-.53,29.61-1.69,34.35,5.91l0.73-.21h0c-4.16-8-22.2-7-33.73-6.43-14.9.72-30.28,3-45,3.83-11.58.62-22.75,0.28-33.83,0.09-11.8-.19-24.41.4-35.4-1-4.18-.52-8.17-1.36-12.19-2.25Z" transform="translate(-3195.04 -748.89)"/><path class="j" d="M3317.53,894.38a97.84,97.84,0,0,1,28.56-8.86c10.66-1.6,21.17-2.55,31.88-4A122.68,122.68,0,0,1,3392.5,880c4.71,0,9.17.31,13.68,0.61,8.25,0.54,16.88,1.16,26.43-1.81a1,1,0,0,0,.43-0.75h0l-0.43.74-0.3-.52c-9.71,2.86-18.53,2.09-26.94,1.5a122,122,0,0,0-13.68-.49c-4.72.2-9.82,1.13-14.72,1.75-18.79,2.36-37.91,2.8-56.85,11.7" transform="translate(-3195.04 -748.89)"/><path class="j" d="M3302.84,889.36c-10.22,4.48-22,3.79-30.69,3.09-3-.24-6.06-0.58-9-1l-0.41.81a119.75,119.75,0,0,0,15.52,1.16c7.08,0.15,22,.57,28.9-6.46,2.11-2.14,3.78-5.38,2.73-7.22-2-3.61-10.24-2-15.5-1.12-3.31.59-6.69,1.38-10,1.83-3.88.54-7.37-.15-10.69-0.64-1.51-.23-3-0.49-4.48-0.76l-0.34.7,2.1,0.36c3.49,0.53,7.42,1.61,11.42,1.23,2.4-.22,4.9-0.76,7.36-1.23,5.52-1.07,13.35-3.06,17.66-1.34C3312.24,880.59,3308.71,886.74,3302.84,889.36Z" transform="translate(-3195.04 -748.89)"/><path class="j" d="M3295,836.88c-1.39-.22-2.78-0.41-4.22-0.56l-0.36.75,2.23,0.28c8.86,1.26,14.75,5.24,22.43,7.8,9.6,3.23,20,4.5,31.49,5.14,6,0.33,12,.65,17.81,1.26,4.16,0.43,9.3.69,12.43,2.43,3.35,1.87-3.15,3.31-5.47,3.45a116,116,0,0,1-17.3-.67c-10.74-1-21-2.59-31.55-3.76-12.61-1.42-26.32-1.09-38.94-2.25l-0.43.86c13.07,1.39,27.87.7,40.77,2.32,12.49,1.55,24.91,3.53,38.2,4.16,1.36,0.06,17.36,1,16.2-3.62-0.51-2.14-5.46-2.49-7.92-2.86-5.52-.82-11.3-1.23-17.07-1.59-11.8-.73-23.13-1.17-33.32-4.13C3311.22,843.35,3304.61,838.43,3295,836.88Z" transform="translate(-3195.04 -748.89)"/><path class="k" d="M3652,833.27c14.62-.17,26.53,4.37,26.53,10.16S3666.57,854,3652,854.09s-26.23-4.44-26.23-10.16S3637.44,833.44,3652,833.27Z" transform="translate(-3195.04 -748.89)"/><path class="l" d="M3644.27,815.73v33.36a39.14,39.14,0,0,0,7.42.63c12-.1,21.69-5.3,21.69-11.6V815.27l-29.17.46h0.06Z" transform="translate(-3195.04 -748.89)"/><path class="m" d="M3630.22,815.95v22.63c0,4.88,5.86,9,14.06,10.5V815.73Z" transform="translate(-3195.04 -748.89)"/><path class="n" d="M3651.69,804.25c12-.22,21.69,4.72,21.69,11s-9.74,11.55-21.69,11.71-21.48-4.78-21.48-11S3639.8,804.47,3651.69,804.25Z" transform="translate(-3195.04 -748.89)"/><path class="o" d="M3651.69,805.74c10.39-.19,18.85,4.11,18.85,9.59s-8.46,10-18.85,10.19-18.7-4.15-18.7-9.59S3641.35,805.92,3651.69,805.74Z" transform="translate(-3195.04 -748.89)"/><path class="p" d="M3651.69,808.4c6.65-.12,12,2.64,12,6.15s-5.4,6.43-12,6.53-12-2.66-12-6.15S3645.07,808.52,3651.69,808.4Z" transform="translate(-3195.04 -748.89)"/><path class="q" d="M3655.48,808.67c-1.71,1.55-3.58,3.59-3.78,5.28a36.85,36.85,0,0,0,12,.26C3663.44,811.56,3660.1,809.39,3655.48,808.67Z" transform="translate(-3195.04 -748.89)"/><path class="r" d="M3648.69,808.64c-5.17.8-9,3.32-9,6.27a3.45,3.45,0,0,0,.22,1.18c2.34-2.15,5-.4,6.9-0.43,4.15-.07,4.84-1.73,4.84-1.73A41.88,41.88,0,0,0,3648.69,808.64Z" transform="translate(-3195.04 -748.89)"/><path class="s" d="M3651.69,814l5.35-5a21.11,21.11,0,0,0-5.35-.57,20.42,20.42,0,0,0-6.69,1.19Z" transform="translate(-3195.04 -748.89)"/><path class="t" d="M3639.42,828.56a0.35,0.35,0,0,1-.07.52l-1.38,1a0.45,0.45,0,0,1-.58,0h0a0.35,0.35,0,0,1,0-.52l1.38-1a0.45,0.45,0,0,1,.58,0h0.07Z" transform="translate(-3195.04 -748.89)"/><path class="t" d="M3632.49,825.18a0.44,0.44,0,0,1,.57.09h0l1,1.36a0.35,0.35,0,0,1-.12.52h0a0.44,0.44,0,0,1-.57-0.09h0l-1-1.36a0.35,0.35,0,0,1,.1-0.52h0Z" transform="translate(-3195.04 -748.89)"/><path class="t" d="M3634.93,831.61a0.41,0.41,0,0,1-.46.33h0l-1.74-.2a0.38,0.38,0,0,1-.36-0.41h0a0.41,0.41,0,0,1,.46-0.33h0l1.81,0.2a0.38,0.38,0,0,1,.36.41h-0.07Z" transform="translate(-3195.04 -748.89)"/><path class="t" d="M3638.74,833.65a0.35,0.35,0,0,1,0,.52h0l-1.16,1.26a0.45,0.45,0,0,1-.58,0h0a0.35,0.35,0,0,1,0-.52l1.16-1.25a0.45,0.45,0,0,1,.58,0h0Z" transform="translate(-3195.04 -748.89)"/><path class="t" d="M3634,837.69a0.44,0.44,0,0,1-.58-0.08h0l-1-1.4a0.35,0.35,0,0,1,.09-0.52h0a0.44,0.44,0,0,1,.57.08h0l1,1.34a0.35,0.35,0,0,1-.09.52h0v0.06Z" transform="translate(-3195.04 -748.89)"/><path class="t" d="M3640.38,838.31a0.44,0.44,0,0,1,.56-0.11h0l1.52,0.9a0.35,0.35,0,0,1,.11.52h0a0.44,0.44,0,0,1-.57.11h0l-1.52-.92a0.35,0.35,0,0,1-.11-0.51h0Z" transform="translate(-3195.04 -748.89)"/><path class="t" d="M3641.11,843a0.35,0.35,0,0,1,.08.52h0l-1.1,1.33a0.44,0.44,0,0,1-.58.08h0a0.35,0.35,0,0,1-.08-0.52h0l1.1-1.33a0.45,0.45,0,0,1,.58-0.08h0Z" transform="translate(-3195.04 -748.89)"/><path class="t" d="M3637.59,840.86a0.39,0.39,0,0,1-.39.39h0l-1.82,0a0.39,0.39,0,0,1-.43-0.36h0a0.4,0.4,0,0,1,.4-0.39h0l1.82,0a0.39,0.39,0,0,1,.43.34h0Z" transform="translate(-3195.04 -748.89)"/><path class="t" d="M3652.19,831.67a0.35,0.35,0,0,1,0,.52h0l-1.38,1a0.45,0.45,0,0,1-.58-0.06h0a0.35,0.35,0,0,1,0-.52h0l1.38-1a0.45,0.45,0,0,1,.58.06h0Z" transform="translate(-3195.04 -748.89)"/><path class="t" d="M3645.21,828.25a0.44,0.44,0,0,1,.57.1h0l1,1.37a0.35,0.35,0,0,1-.12.52h0a0.44,0.44,0,0,1-.57-0.1h0l-1-1.37a0.35,0.35,0,0,1,.11-0.52h0Z" transform="translate(-3195.04 -748.89)"/><path class="t" d="M3647.67,834.72a0.41,0.41,0,0,1-.46.33h0l-1.82-.2a0.38,0.38,0,0,1-.36-0.41h0a0.41,0.41,0,0,1,.46-0.33h0l1.82,0.2a0.38,0.38,0,0,1,.36.41h0Z" transform="translate(-3195.04 -748.89)"/><path class="t" d="M3651.53,836.71a0.35,0.35,0,0,1,0,.52h0l-1.16,1.26a0.45,0.45,0,0,1-.58,0h0a0.35,0.35,0,0,1,0-.52l1.16-1.26a0.45,0.45,0,0,1,.58,0h0Z" transform="translate(-3195.04 -748.89)"/><path class="t" d="M3646.69,840.81a0.44,0.44,0,0,1-.58-0.08h0l-1-1.36a0.35,0.35,0,0,1,.09-0.52h0a0.44,0.44,0,0,1,.58.09h0l1,1.34a0.35,0.35,0,0,1-.09.52h0Z" transform="translate(-3195.04 -748.89)"/><path class="t" d="M3653.15,841.44a0.45,0.45,0,0,1,.58-0.11h0l1.52,0.91a0.35,0.35,0,0,1,.11.52h0a0.45,0.45,0,0,1-.58.11h0l-1.52-.91a0.35,0.35,0,0,1-.11-0.52h0Z" transform="translate(-3195.04 -748.89)"/><path class="t" d="M3653.88,846.13a0.35,0.35,0,0,1,.08.52l-1.11,1.33a0.45,0.45,0,0,1-.58.08h0a0.35,0.35,0,0,1-.08-0.52l1.11-1.33a0.45,0.45,0,0,1,.58-0.08h0Z" transform="translate(-3195.04 -748.89)"/><path class="t" d="M3650.34,844a0.4,0.4,0,0,1-.39.39h0l-1.83.08a0.39,0.39,0,0,1-.43-0.36h0a0.4,0.4,0,0,1,.4-0.39h0l1.83,0a0.39,0.39,0,0,1,.43.36h0V844Z" transform="translate(-3195.04 -748.89)"/><path class="t" d="M3657.57,836.83a0.35,0.35,0,0,1-.07.52l-1.39,1a0.45,0.45,0,0,1-.58,0h0a0.35,0.35,0,0,1,.07-0.52l1.39-1a0.45,0.45,0,0,1,.58.06h0v-0.06Z" transform="translate(-3195.04 -748.89)"/><path class="t" d="M3655.82,833.06a0.42,0.42,0,0,1,.49-0.29h0l1.8,0.32a0.37,0.37,0,0,1,.32.44h0a0.42,0.42,0,0,1-.49.29h0l-1.76-.38a0.37,0.37,0,0,1-.32-0.44h0Z" transform="translate(-3195.04 -748.89)"/><path class="t" d="M3656.77,829.69a0.42,0.42,0,0,1-.46.33h0l-1.83-.2a0.38,0.38,0,0,1-.36-0.41h0a0.42,0.42,0,0,1,.46-0.33h0l1.83,0.2a0.38,0.38,0,0,1,.36.41h0Z" transform="translate(-3195.04 -748.89)"/><path class="t" d="M3662.67,836.58a0.35,0.35,0,0,1,0,.52l-1.17,1.26a0.45,0.45,0,0,1-.58,0h0a0.35,0.35,0,0,1,0-.53h0l1.17-1.26a0.45,0.45,0,0,1,.58,0h0Z" transform="translate(-3195.04 -748.89)"/><path class="t" d="M3642.16,833a0.39,0.39,0,0,1-.4-0.38h0l0.08-1.64a0.4,0.4,0,0,1,.43-0.37h0a0.39,0.39,0,0,1,.4.38h0l-0.08,1.64a0.4,0.4,0,0,1-.43.37h0Z" transform="translate(-3195.04 -748.89)"/><path class="t" d="M3658.53,840.55a0.45,0.45,0,0,1,.58-0.11h0l1.53,0.91a0.35,0.35,0,0,1,.11.52h0a0.45,0.45,0,0,1-.57.11h0l-1.53-.91a0.35,0.35,0,0,1-.11-0.52h0Z" transform="translate(-3195.04 -748.89)"/><path class="t" d="M3659,844.26a0.36,0.36,0,0,1,.26.47h0l-0.61,1.56a0.43,0.43,0,0,1-.53.24h0a0.36,0.36,0,0,1-.26-0.47h0l0.61-1.56a0.43,0.43,0,0,1,.53-0.24h0Z" transform="translate(-3195.04 -748.89)"/><path class="t" d="M3645.36,847.25a0.42,0.42,0,0,1-.51-0.25h0l-0.5-1.59a0.37,0.37,0,0,1,.29-0.46h0a0.42,0.42,0,0,1,.51.25h0l0.5,1.59a0.37,0.37,0,0,1-.29.46h0Z" transform="translate(-3195.04 -748.89)"/><path class="t" d="M3672.36,835.75a0.39,0.39,0,0,0-.39-0.4h0l-1.84-.1a0.41,0.41,0,0,0-.45.35h0a0.38,0.38,0,0,0,.38.4h0l1.84,0.1a0.41,0.41,0,0,0,.45-0.35h0Z" transform="translate(-3195.04 -748.89)"/><path class="t" d="M3669.39,841.37a0.4,0.4,0,0,0,.42-0.38v-1.65a0.39,0.39,0,0,0-.42-0.37h0a0.4,0.4,0,0,0-.42.38h0V841a0.39,0.39,0,0,0,.42.37h0Z" transform="translate(-3195.04 -748.89)"/><path class="t" d="M3667.7,835.53a0.45,0.45,0,0,0-.59,0h0l-1.39,1.12a0.35,0.35,0,0,0,0,.52h0a0.45,0.45,0,0,0,.59,0h0l1.39-1.12a0.35,0.35,0,0,0,0-.53h0Z" transform="translate(-3195.04 -748.89)"/><path class="t" d="M3669.12,831.88a0.37,0.37,0,0,0-.28-0.46h0l-1.77-.47a0.43,0.43,0,0,0-.52.26h0a0.37,0.37,0,0,0,.28.46h0l1.77,0.47a0.44,0.44,0,0,0,.53-0.25h0Z" transform="translate(-3195.04 -748.89)"/><path class="t" d="M3663.86,826.92a0.36,0.36,0,0,0-.15.51h0l0.92,1.42a0.44,0.44,0,0,0,.57.15h0a0.36,0.36,0,0,0,.15-0.51h0l-0.91-1.39a0.44,0.44,0,0,0-.57-0.13h0v0Z" transform="translate(-3195.04 -748.89)"/><path class="t" d="M3668.1,826.46a0.44,0.44,0,0,0,.54-0.21h0l0.7-1.55a0.36,0.36,0,0,0-.23-0.48h0a0.44,0.44,0,0,0-.54.22h0l-0.7,1.55a0.36,0.36,0,0,0,.22.48h0Z" transform="translate(-3195.04 -748.89)"/><path class="t" d="M3671.87,826.53a0.45,0.45,0,0,0-.59,0h0l-1.19,1.27a0.35,0.35,0,0,0,0,.53h0a0.45,0.45,0,0,0,.59,0l1.19-1.27a0.35,0.35,0,0,0,0-.53h0Z" transform="translate(-3195.04 -748.89)"/><path class="t" d="M3662.23,832.77a0.39,0.39,0,0,0,.38-0.41h0l-0.18-1.65a0.4,0.4,0,0,0-.45-0.33h0a0.39,0.39,0,0,0-.38.41h0l0.18,1.65a0.4,0.4,0,0,0,.45.33h0Z" transform="translate(-3195.04 -748.89)"/><path class="t" d="M3665,844a0.43,0.43,0,0,1-.53-0.23h0l-0.6-1.57a0.37,0.37,0,0,1,.26-0.48h0a0.43,0.43,0,0,1,.53.23h0l0.6,1.57a0.37,0.37,0,0,1-.26.48h0Z" transform="translate(-3195.04 -748.89)"/><path class="k" d="M3428.66,832.3c15.46-.2,28.07,5,28.07,11.64s-12.61,12.09-28.07,12.2-27.71-5.1-27.71-11.65S3413.31,832.49,3428.66,832.3Z" transform="translate(-3195.04 -748.89)"/><path class="k" d="M3379,868.5c20.5-.09,37.26,4.77,37.26,10.85s-16.76,11-37.26,11c-20.31,0-36.63-4.87-36.63-10.85S3358.7,868.59,3379,868.5Z" transform="translate(-3195.04 -748.89)"/><path class="k" d="M3340.39,835c20.13-.25,36.59,4.44,36.59,10.46s-16.46,11-36.59,11.18c-19.94.14-36-4.54-36-10.47S3320.45,835.29,3340.39,835Z" transform="translate(-3195.04 -748.89)"/><path class="l" d="M3421,815.54v36.37a38.64,38.64,0,0,0,7.71.69c12.39-.1,22.49-5.76,22.49-12.62V815l-30.15.5Z" transform="translate(-3195.04 -748.89)"/><path class="m" d="M3406.44,815.78v24.66c0,5.32,6.06,9.8,14.57,11.46V815.54Z" transform="translate(-3195.04 -748.89)"/><path class="n" d="M3428.7,803c12.39-.24,22.49,5.14,22.49,12s-10.1,12.6-22.49,12.77-22.26-5.22-22.26-12S3416.37,803.24,3428.7,803Z" transform="translate(-3195.04 -748.89)"/><path class="o" d="M3428.7,804.61c10.78-.21,19.56,4.48,19.56,10.46s-8.78,11-19.56,11.11-19.38-4.53-19.38-10.47S3418,804.82,3428.7,804.61Z" transform="translate(-3195.04 -748.89)"/><path class="p" d="M3428.7,807.54c6.89-.13,12.49,2.87,12.49,6.69s-5.6,7-12.49,7.11-12.42-2.89-12.42-6.69S3421.83,807.66,3428.7,807.54Z" transform="translate(-3195.04 -748.89)"/><path class="q" d="M3432.62,807.82c-1.78,1.69-3.76,3.91-3.92,5.77a36.46,36.46,0,0,0,12.45.27C3440.89,811,3437.39,808.61,3432.62,807.82Z" transform="translate(-3195.04 -748.89)"/><path class="r" d="M3425.58,807.77c-5.33.87-9.31,3.63-9.31,6.83a3.93,3.93,0,0,0,.24,1.29c2.49-2.35,5.16-.43,7.18-0.46,4.31-.07,5-1.9,5-1.9A46.35,46.35,0,0,0,3425.58,807.77Z" transform="translate(-3195.04 -748.89)"/><path class="s" d="M3428.7,813.63l5.55-5.42a20.86,20.86,0,0,0-5.55-.62,20.25,20.25,0,0,0-6.94,1.31Z" transform="translate(-3195.04 -748.89)"/><path class="t" d="M3416,829.51a0.4,0.4,0,0,1-.07.56l-1.49,1.14a0.45,0.45,0,0,1-.58-0.06h0a0.4,0.4,0,0,1,.07-0.56l1.49-1.14a0.45,0.45,0,0,1,.58.06h0Z" transform="translate(-3195.04 -748.89)"/><path class="t" d="M3408.79,825.82a0.45,0.45,0,0,1,.58.11l1,1.48a0.4,0.4,0,0,1-.12.56h0a0.45,0.45,0,0,1-.58-0.11l-1-1.48a0.4,0.4,0,0,1,.12-0.56h0Z" transform="translate(-3195.04 -748.89)"/><path class="t" d="M3411.33,832.8a0.44,0.44,0,0,1-.48.35l-1.87-.21a0.41,0.41,0,0,1-.36-0.46h0a0.44,0.44,0,0,1,.48-0.35l1.87,0.21a0.41,0.41,0,0,1,.36.46h0Z" transform="translate(-3195.04 -748.89)"/><path class="t" d="M3415.28,835a0.4,0.4,0,0,1,0,.55l-1.18,1.41a0.45,0.45,0,0,1-.58.07h0a0.4,0.4,0,0,1-.06-0.55l1.18-1.41a0.44,0.44,0,0,1,.58-0.07h0.06Z" transform="translate(-3195.04 -748.89)"/><path class="t" d="M3410.32,839.44a0.45,0.45,0,0,1-.58-0.1l-1.07-1.46a0.4,0.4,0,0,1,.11-0.56h0a0.45,0.45,0,0,1,.58.1l1.07,1.46a0.4,0.4,0,0,1-.11.56h0Z" transform="translate(-3195.04 -748.89)"/><path class="t" d="M3417,840.13a0.45,0.45,0,0,1,.59-0.11l1.57,1a0.4,0.4,0,0,1,.11.55h0a0.45,0.45,0,0,1-.59.11l-1.57-1a0.39,0.39,0,0,1-.12-0.55h0Z" transform="translate(-3195.04 -748.89)"/><path class="t" d="M3417.73,845.23a0.4,0.4,0,0,1,.09.55l-1.15,1.45a0.45,0.45,0,0,1-.59.09h0a0.4,0.4,0,0,1-.09-0.55l1.15-1.44a0.45,0.45,0,0,1,.59-0.09h0Z" transform="translate(-3195.04 -748.89)"/><path class="t" d="M3414.07,842.92a0.43,0.43,0,0,1-.41.43l-1.89.09a0.42,0.42,0,0,1-.45-0.38h0a0.43,0.43,0,0,1,.41-0.43l1.89-.09a0.41,0.41,0,0,1,.45.37h0Z" transform="translate(-3195.04 -748.89)"/><path class="t" d="M3429.21,832.89a0.39,0.39,0,0,1-.08.56l-1.5,1.14a0.45,0.45,0,0,1-.59-0.06h0a0.4,0.4,0,0,1,.08-0.56l1.5-1.14a0.45,0.45,0,0,1,.59.06h0Z" transform="translate(-3195.04 -748.89)"/><path class="t" d="M3422,829.19a0.45,0.45,0,0,1,.59.11l1,1.49a0.4,0.4,0,0,1-.12.56h0a0.45,0.45,0,0,1-.59-0.11l-1-1.49a0.4,0.4,0,0,1,.12-0.56h0Z" transform="translate(-3195.04 -748.89)"/><path class="t" d="M3424.47,836.18a0.44,0.44,0,0,1-.49.35l-1.89-.21a0.41,0.41,0,0,1-.36-0.46h0a0.44,0.44,0,0,1,.49-0.35l1.89,0.21a0.41,0.41,0,0,1,.36.46h0Z" transform="translate(-3195.04 -748.89)"/><path class="t" d="M3428.49,838.4a0.4,0.4,0,0,1,.06.56l-1.19,1.41a0.46,0.46,0,0,1-.59,0h0a0.4,0.4,0,0,1,0-.56l1.19-1.41a0.46,0.46,0,0,1,.59-0.07h0Z" transform="translate(-3195.04 -748.89)"/><path class="t" d="M3423.51,842.87a0.45,0.45,0,0,1-.59-0.1l-1.07-1.47a0.4,0.4,0,0,1,.11-0.56h0a0.45,0.45,0,0,1,.59.1l1.07,1.47a0.4,0.4,0,0,1-.11.56h0Z" transform="translate(-3195.04 -748.89)"/><path class="t" d="M3430.21,843.56a0.46,0.46,0,0,1,.59-0.11l1.58,1a0.4,0.4,0,0,1,.11.56h0a0.46,0.46,0,0,1-.59.11l-1.58-1a0.4,0.4,0,0,1-.11-0.56h0Z" transform="translate(-3195.04 -748.89)"/><path class="t" d="M3431,848.67a0.4,0.4,0,0,1,.09.56l-1.15,1.44a0.46,0.46,0,0,1-.59.09h0a0.4,0.4,0,0,1-.09-0.56l1.15-1.46a0.46,0.46,0,0,1,.59-0.09h0Z" transform="translate(-3195.04 -748.89)"/><path class="t" d="M3427.29,846.35a0.43,0.43,0,0,1-.41.43l-1.9.09a0.42,0.42,0,0,1-.45-0.39h0a0.43,0.43,0,0,1,.41-0.43l1.9-.09a0.42,0.42,0,0,1,.45.39h0Z" transform="translate(-3195.04 -748.89)"/><path class="t" d="M3434.85,838.53a0.4,0.4,0,0,1-.08.56l-1.51,1.14a0.46,0.46,0,0,1-.59-0.06h0a0.4,0.4,0,0,1,.08-0.56l1.51-1.14a0.46,0.46,0,0,1,.59.06h0Z" transform="translate(-3195.04 -748.89)"/><path class="t" d="M3433,834.41a0.45,0.45,0,0,1,.51-0.33l1.87,0.34a0.41,0.41,0,0,1,.34.48h0a0.45,0.45,0,0,1-.51.33l-1.87-.34a0.41,0.41,0,0,1-.34-0.48h0Z" transform="translate(-3195.04 -748.89)"/><path class="t" d="M3434,830.68a0.44,0.44,0,0,1-.49.35l-1.89-.21a0.41,0.41,0,0,1-.36-0.46h0a0.44,0.44,0,0,1,.49-0.36h0l1.89,0.21a0.41,0.41,0,0,1,.36.46h0Z" transform="translate(-3195.04 -748.89)"/><path class="t" d="M3440.08,838.27a0.4,0.4,0,0,1,0,.56l-1.2,1.41a0.46,0.46,0,0,1-.59.07h0a0.4,0.4,0,0,1-.06-0.56l1.28-1.37a0.46,0.46,0,0,1,.59-0.07h0Z" transform="translate(-3195.04 -748.89)"/><path class="t" d="M3418.8,834.4a0.41,0.41,0,0,1-.41-0.41h0l0.09-1.8a0.43,0.43,0,0,1,.45-0.4h0a0.42,0.42,0,0,1,.41.42h0l-0.09,1.8a0.42,0.42,0,0,1-.44.4h0Z" transform="translate(-3195.04 -748.89)"/><path class="t" d="M3435.74,842.59a0.46,0.46,0,0,1,.59-0.11l1.61,1a0.4,0.4,0,0,1,.11.56h0a0.46,0.46,0,0,1-.59.11l-1.58-1a0.4,0.4,0,0,1-.11-0.56h0Z" transform="translate(-3195.04 -748.89)"/><path class="t" d="M3436.17,846.64a0.41,0.41,0,0,1,.26.52h0l-0.63,1.69a0.45,0.45,0,0,1-.55.25h0a0.41,0.41,0,0,1-.26-0.52h0l0.63-1.69a0.45,0.45,0,0,1,.55-0.25h0Z" transform="translate(-3195.04 -748.89)"/><path class="t" d="M3422.13,849.93a0.44,0.44,0,0,1-.52-0.28l-0.51-1.73a0.42,0.42,0,0,1,.3-0.51h0a0.44,0.44,0,0,1,.54.28h0l0.51,1.73a0.42,0.42,0,0,1-.3.51h0Z" transform="translate(-3195.04 -748.89)"/><path class="t" d="M3450.12,837.32a0.42,0.42,0,0,0-.4-0.44l-1.91-.12a0.44,0.44,0,0,0-.47.39h0a0.42,0.42,0,0,0,.4.44l1.91,0.12a0.44,0.44,0,0,0,.47-0.39h0Z" transform="translate(-3195.04 -748.89)"/><path class="t" d="M3447.08,843.49a0.43,0.43,0,0,0,.43-0.42v-1.81a0.43,0.43,0,0,0-.44-0.4h0a0.43,0.43,0,0,0-.43.42v1.77a0.43,0.43,0,0,0,.44.4h0v0Z" transform="translate(-3195.04 -748.89)"/><path class="t" d="M3445.33,837.13a0.46,0.46,0,0,0-.59,0l-1.45,1.2a0.4,0.4,0,0,0,0,.56h0a0.46,0.46,0,0,0,.59,0l1.44-1.2a0.4,0.4,0,0,0,0-.56h0Z" transform="translate(-3195.04 -748.89)"/><path class="t" d="M3446.77,833.13a0.41,0.41,0,0,0-.29-0.51l-1.83-.51a0.45,0.45,0,0,0-.54.28h0a0.41,0.41,0,0,0,.29.51l1.83,0.51a0.45,0.45,0,0,0,.54-0.28h0Z" transform="translate(-3195.04 -748.89)"/><path class="t" d="M3441.31,827.67a0.41,0.41,0,0,0-.16.56h0l1,1.55a0.45,0.45,0,0,0,.59.15h0a0.41,0.41,0,0,0,.16-0.56h0l-1-1.56a0.45,0.45,0,0,0-.59-0.15h0Z" transform="translate(-3195.04 -748.89)"/><path class="t" d="M3445.71,827.23a0.45,0.45,0,0,0,.58-0.18h0l0.73-1.7a0.4,0.4,0,0,0-.2-0.54h0a0.46,0.46,0,0,0-.58.2h0l-0.73,1.7a0.4,0.4,0,0,0,.24.53h0Z" transform="translate(-3195.04 -748.89)"/><path class="t" d="M3449.6,827.31a0.45,0.45,0,0,0-.59,0l-1.26,1.41a0.4,0.4,0,0,0,0,.56h0a0.46,0.46,0,0,0,.59,0l1.26-1.41a0.4,0.4,0,0,0,0-.56h0Z" transform="translate(-3195.04 -748.89)"/><path class="t" d="M3439.61,834.13a0.43,0.43,0,0,0,.39-0.46l-0.19-1.79a0.43,0.43,0,0,0-.48-0.36h0a0.43,0.43,0,0,0-.39.46h0l0.19,1.79a0.43,0.43,0,0,0,.48.36h0Z" transform="translate(-3195.04 -748.89)"/><path class="t" d="M3442.46,846.33a0.44,0.44,0,0,1-.55-0.24l-0.59-1.68a0.41,0.41,0,0,1,.26-0.53h0a0.44,0.44,0,0,1,.55.24l0.59,1.68a0.41,0.41,0,0,1-.28.53h0Z" transform="translate(-3195.04 -748.89)"/><path class="k" d="M3532.14,826.48c40.73-.56,74.3,13.21,74.3,30.76S3572.87,889,3532.14,889c-40,0-71.88-13.8-71.88-30.78S3492.15,827,3532.14,826.48Z" transform="translate(-3195.04 -748.89)"/><path class="u" d="M3574.54,814.34a117.61,117.61,0,0,0-81.89,1.34l-26.55.43v30.8h0c1.73,19.16,30.88,34.38,67.11,34.33,38-.05,69.36-16.82,69.36-37.47v-29.9Z" transform="translate(-3195.04 -748.89)"/><path class="v" d="M3533.22,881.25c38-.05,69.36-16.82,69.36-37.47v-29.9h-0.64l-2.61,28.1s-1.77,32.91-60.06,34.61c-45.61,1.31-66.6-20.59-73.16-29.35C3468.21,866.28,3497.21,881.3,3533.22,881.25Z" transform="translate(-3195.04 -748.89)"/><path class="w" d="M3533.22,778.22c38-.94,69.31,15,69.31,35.67s-31.3,37.62-69.31,37.93c-37.37.3-67.2-15.69-67.2-35.7S3495.85,779.14,3533.22,778.22Z" transform="translate(-3195.04 -748.89)"/><path class="x" d="M3533.22,777.13c34.81-.87,63.43,13.74,63.43,32.63s-28.62,34.49-63.43,34.82c-34.27.33-61.66-14.3-61.66-32.66S3499,778,3533.22,777.13Z" transform="translate(-3195.04 -748.89)"/><path class="u" d="M3533.22,770.87c33.54-.88,61.1,13.63,61.1,32.43s-27.56,34.34-61.1,34.72c-33,.37-59.45-14.17-59.45-32.46S3500.19,771.74,3533.22,770.87Z" transform="translate(-3195.04 -748.89)"/><g class="y"><polygon class="z" points="278.68 34.49 283.43 33 309.82 111.99 305.01 113.41 278.68 34.49"/><polygon class="z" points="289.58 31.06 294.36 29.56 320.88 108.73 316.04 110.16 289.58 31.06"/><polygon class="z" points="300.54 27.63 305.34 26.12 332 105.47 327.14 106.9 300.54 27.63"/><polygon class="z" points="311.53 24.17 316.36 22.66 343.15 102.19 338.27 103.62 311.53 24.17"/><polygon class="z" points="322.6 20.7 327.45 19.18 354.38 98.89 349.47 100.33 322.6 20.7"/><polygon class="z" points="333.73 17.21 338.6 15.68 365.67 95.57 360.73 97.02 333.73 17.21"/><polygon class="z" points="344.9 13.7 349.8 12.16 377 92.23 372.05 93.69 344.9 13.7"/><polygon class="z" points="356.12 10.17 361.05 8.62 388.39 88.88 383.4 90.34 356.12 10.17"/><polygon class="z" points="365.21 1.56 370.15 0 397.61 80.37 392.6 81.84 365.21 1.56"/></g><path class="aa" d="M3533.22,794.78c25.88-.54,48.19,8.07,57.05,20.71a21.45,21.45,0,0,0,4-12.16c0-18.8-27.55-33.31-61.1-32.43-33,.87-59.47,16.39-59.47,34.68a20.65,20.65,0,0,0,3.84,11.74C3486,804.65,3507.64,795.31,3533.22,794.78Z" transform="translate(-3195.04 -748.89)"/><path class="ab" d="M3533.22,839.67c-16.35.18-31.66-3.21-43.12-9.52C3478.42,823.75,3472,815,3472,805.58s6.4-18.4,18.08-25.26c11.47-6.73,26.75-10.69,43.12-11.13s32.12,2.75,44,9c12.21,6.43,19,15.34,19,25.06s-6.74,18.87-19,25.77C3565.32,835.74,3549.7,839.5,3533.22,839.67Zm0-67.15c-32,.83-57.73,15.63-57.73,33s25.73,31.21,57.7,30.84c32.44-.37,59.25-15.2,59.25-33S3565.68,771.68,3533.22,772.52Z" transform="translate(-3195.04 -748.89)"/><path class="aa" d="M3513.74,856.08S3481,849.74,3467.56,831v6S3487.74,857.37,3513.74,856.08Z" transform="translate(-3195.04 -748.89)"/><path class="aa" d="M3513.74,865.45S3481,859,3467.58,840.3v6S3487.74,866.64,3513.74,865.45Z" transform="translate(-3195.04 -748.89)"/><path class="aa" d="M3602.54,828.32c-8.75,14.28-31.93,20.93-31.93,20.93,16.82-.72,29.36-13.46,31.93-16.21v-4.72Z" transform="translate(-3195.04 -748.89)"/><path class="aa" d="M3602.54,835.92c-9.17,13.63-31.31,19.93-31.31,19.93,15.75-.64,27.77-11.84,31.31-15.53v-4.4Z" transform="translate(-3195.04 -748.89)"/><path class="ac" d="M3580.9,797.16a21.26,21.26,0,0,1-3.87,12.17c-4.54,6.14-12.9,9.06-20.84,9.49-8.3.47-16.95-1.51-23.07-6.5s-9.4-13.15-7-20.47a24,24,0,0,1,6.55-9.69,35.19,35.19,0,0,1,19.19-9.53,27.34,27.34,0,0,1,20.6,5.17A23.83,23.83,0,0,1,3580.9,797.16Z" transform="translate(-3195.04 -748.89)"/><path class="ad" d="M3550.57,771.49a5.82,5.82,0,0,1,3.83-2.2h0a7.23,7.23,0,0,0,5.31,3.34,25.43,25.43,0,0,1,12.72,5.19,24.06,24.06,0,0,1,8.49,19.41,24.8,24.8,0,0,1-.6,4.85c-2.55.26-5.09-.74-7.47-1.72-8.93-3.72-18.16-8.18-22.81-16-1.94-3.29-3.13-6.91-5.54-9.74q1.25-.48,2.51-0.87A7.81,7.81,0,0,0,3550.57,771.49Z" transform="translate(-3195.04 -748.89)"/><path class="ae" d="M3526.08,791.84a18.09,18.09,0,0,1,1.15-2.75,26.78,26.78,0,0,1,5.36-6.93,36.71,36.71,0,0,1,6.1-4.71c-2.22,7.34-2.84,15.2.91,21.71,3.49,6.08,10.35,10,17.61,11.84a67.19,67.19,0,0,0,16.66,1.64c-4.72,3.89-11.33,5.82-17.68,6.17a40.36,40.36,0,0,1-10.06-.67,29.84,29.84,0,0,1-13-5.86C3527,807.36,3523.72,799.17,3526.08,791.84Z" transform="translate(-3195.04 -748.89)"/><path class="af" d="M3567.28,789c1.43,0.15,2.54-1.28,2.67-2.61,0.29-2.66-1.8-5-4.22-6.48s-5.2-2.32-7.58-3.79-4.17-4.08-3.53-6.69c-1.6,1.77-1.33,4.48-.08,6.41a19.28,19.28,0,0,0,5.23,4.75,13.35,13.35,0,0,1,4.79,5C3565.19,786.95,3565.66,788.82,3567.28,789Z" transform="translate(-3195.04 -748.89)"/><path class="af" d="M3548.63,792.3c1.48-.1,2.16-1.78,2.41-3.11a53.71,53.71,0,0,0,.81-14.1,9.14,9.14,0,0,1,.11-3.23,3.25,3.25,0,0,1,2.25-2.33,6.4,6.4,0,0,0-3.23,5.09c-0.28,2,0,4-.26,6.09a12.12,12.12,0,0,1-2.1,5.34,10.14,10.14,0,0,0-2,3.48A2.24,2.24,0,0,0,3548.63,792.3Z" transform="translate(-3195.04 -748.89)"/><path class="af" d="M3558,785.14l-3.07-6.44a15.42,15.42,0,0,1-2.11-7.4A5.46,5.46,0,0,0,3553,776a24.26,24.26,0,0,1,1.88,4.44,15.08,15.08,0,0,1-.13,4.88,9.52,9.52,0,0,0,.33,4.87,4.6,4.6,0,0,0,1.19,1.64,2.08,2.08,0,0,0,2.76-.1,1.75,1.75,0,0,0,.55-1.33A14.32,14.32,0,0,0,3558,785.14Z" transform="translate(-3195.04 -748.89)"/><path class="af" d="M3564.87,776a19.73,19.73,0,0,1-8.34-3c1.67,2.23,4.72,3.11,7.58,3.86l3.92,1.06a0.81,0.81,0,0,0,.91-0.61,0.69,0.69,0,0,0-.4-0.74h0A20.5,20.5,0,0,0,3564.87,776Z" transform="translate(-3195.04 -748.89)"/><path class="af" d="M3539.93,777.8a2.68,2.68,0,0,0-1.32,1.06,1.47,1.47,0,0,0,1,1.88,2.85,2.85,0,0,0,2.44-.41,7.86,7.86,0,0,0,1.77-1.77c1.93-2.36,4-4.87,6.9-6.1Z" transform="translate(-3195.04 -748.89)"/><path class="af" d="M3545,784.9c2.44-1.43,3.2-4.35,3.7-7s1.19-5.53,3.59-7c-2.32.88-3.23,3.42-3.84,5.64s-1.48,4.76-3.77,5.68c-0.57.23-1.19,0.33-1.75,0.59a1.7,1.7,0,0,0-1.11,1.24,1.38,1.38,0,0,0,1.25,1.27A3,3,0,0,0,3545,784.9Z" transform="translate(-3195.04 -748.89)"/><path class="ag" d="M3569.45,781.55a1.73,1.73,0,0,1-1-1.48,1.47,1.47,0,0,1,1.21-.92,4.37,4.37,0,0,1,3.34.8,8.42,8.42,0,0,1,2.19,2.53,21.34,21.34,0,0,1,3.17,12.18c0,1.08-.4,2.46-1.54,2.69a2,2,0,0,1-2.28-1.46,7,7,0,0,1,0-2.82A13,13,0,0,0,3569.45,781.55Z" transform="translate(-3195.04 -748.89)"/><path class="ah" d="M3532.92,809.94a33.83,33.83,0,0,0,14.93,6.86,45.25,45.25,0,0,0,11.56.79,42.13,42.13,0,0,0,8.21-1.29,35.46,35.46,0,0,1-11.44,2.5,40.36,40.36,0,0,1-10.06-.67,29.84,29.84,0,0,1-13-5.86,21.06,21.06,0,0,1-7.51-12.39A25.39,25.39,0,0,0,3532.92,809.94Z" transform="translate(-3195.04 -748.89)"/><path class="ai" d="M3571.44,810.25l4.29-5.55a5.17,5.17,0,0,0,1.54-3.7,1.58,1.58,0,0,0-.16-0.49,1.71,1.71,0,0,0-2.23-.56,1.55,1.55,0,0,0-.84,1.15c-0.41,3-3.26,5.47-6,7.3s-6,3.77-7.34,6.65a1,1,0,0,0,.59,1.3l0.27,0.07a8.14,8.14,0,0,0,5.33-1.39A20.08,20.08,0,0,0,3571.44,810.25Z" transform="translate(-3195.04 -748.89)"/><path class="aj" d="M3567.28,777.12l-1.15-.68,1.59,0.11a0.69,0.69,0,0,1,.73.42,0.47,0.47,0,0,1-.51.39A1.37,1.37,0,0,1,3567.28,777.12Z" transform="translate(-3195.04 -748.89)"/><path class="aj" d="M3539.74,779.13a0.94,0.94,0,0,0-.25.47,0.79,0.79,0,0,0,.88.68,2.25,2.25,0,0,0,1.65-.88,7.49,7.49,0,0,0,.91-1.61,4.22,4.22,0,0,1,1.07-1.52A9.58,9.58,0,0,0,3539.74,779.13Z" transform="translate(-3195.04 -748.89)"/><path class="ak" d="M3510.33,778.73a2.18,2.18,0,0,0-.35,2.67c2.44,5.63,8.67,9,15.26,8.19,6.56-1.06,11.76-5.89,12.87-12,0.16-1,2-1.51,1.42-2.34s-3.26-1.84-4.26-2.09c-4.66-1.23-9.64,1.4-14.48,1.12a31.9,31.9,0,0,0-3.41-.24,3.86,3.86,0,0,0-3,1.36c-0.61.88-.65,2.17-1.63,2.69C3512,778.49,3511,778.26,3510.33,778.73Z" transform="translate(-3195.04 -748.89)"/><path class="al" d="M3539.3,780.17q-3,5.23-6.34,10.26c6.25,3.64,12.76,7.49,16.51,13.41s3.77,14.55-2,19-14,3.2-21.28,3.3c-6.17.09-12.31,1.27-18.43,1s-12.56-2.46-15.6-7.33c-3.53-5.65-1.29-13.27,3.39-18.28s11.35-8.06,17.85-11a5.91,5.91,0,0,0-2.35-4,8.65,8.65,0,0,1-2.9-3.74c-0.39-1.51.71-3.51,2.42-3.46,1.3,0.05,2.51,1.31,3.81.93,1.09-.33,1.46-1.58,2.23-2.39a6.33,6.33,0,0,1,3.82-1.38l15.13-1.87c1.5-.18,3.25-0.29,4.24.74C3541,776.62,3540.17,778.63,3539.3,780.17Z" transform="translate(-3195.04 -748.89)"/><path class="am" d="M3525,791.17a0.6,0.6,0,0,0,.18-0.46c0.12-1.49-.25-3-0.24-4.45a4.66,4.66,0,0,1,1.83-4,9.72,9.72,0,0,1,3.62-1,6,6,0,0,0,2-.69,0.73,0.73,0,0,0,.24-1,0.8,0.8,0,0,0-.54-0.32,10.69,10.69,0,0,0-3.84.22c-4.11,1.07-6.59,5-5.55,8.77a6.73,6.73,0,0,0,1.45,2.66A0.69,0.69,0,0,0,3525,791.17Z" transform="translate(-3195.04 -748.89)"/><path class="an" d="M3511.14,782.43a0.81,0.81,0,0,1,1,0,8,8,0,0,1,.81.74,2.24,2.24,0,0,0,3-.36,2,2,0,0,0,.17-0.23l-5.12-1.7a2,2,0,0,0-1.3-.11,1.37,1.37,0,0,0-.58,1.73,3.43,3.43,0,0,0,3.08,2.27,1,1,0,0,0-.61-1.13A0.9,0.9,0,0,1,3511.14,782.43Z" transform="translate(-3195.04 -748.89)"/><path class="am" d="M3546.8,803.53a12.73,12.73,0,0,1,2.78,5.83,6.49,6.49,0,0,1-2.12,5.93c0.77-4.36.38-9.13-2.51-12.58-3.44-4.1-10-5.88-11.85-10.69C3538.1,795.37,3543.21,798.85,3546.8,803.53Z" transform="translate(-3195.04 -748.89)"/><path class="am" d="M3543.78,820.3a4.28,4.28,0,0,1-5-.76,10,10,0,0,1-2.37-4.58l-6-19c3.24,4.78,10.24,6.47,13.22,11.37a16.5,16.5,0,0,1,1.85,8.32C3545.44,817.32,3545.28,819.3,3543.78,820.3Z" transform="translate(-3195.04 -748.89)"/><path class="am" d="M3525.93,814.16c-0.72-6-3.45-12-2.72-18.11a30.24,30.24,0,0,0-7.32,13.25,13.82,13.82,0,0,0-.5,6,6.74,6.74,0,0,0,3.47,4.88,5.26,5.26,0,0,0,6-.89A6.48,6.48,0,0,0,3525.93,814.16Z" transform="translate(-3195.04 -748.89)"/><path class="am" d="M3501.67,817.06a6.81,6.81,0,0,0,3.69,3.94,4,4,0,0,0,5-1.62,5.33,5.33,0,0,0,0-3,32,32,0,0,1-.23-11,17.77,17.77,0,0,1,5.2-9.89c-4.79,2.45-9.79,5.1-12.55,9.46A13.2,13.2,0,0,0,3501.67,817.06Z" transform="translate(-3195.04 -748.89)"/><path class="an" d="M3496.88,804.38c1.9-3.06,5.17-5.11,8.39-7l7.79-4.78c-5.55,3.56-12.9,4.79-17,9.7A14.38,14.38,0,0,0,3493,809c-0.54,3-.18,6.36,2.08,8.52C3494.76,813,3494.47,808.27,3496.88,804.38Z" transform="translate(-3195.04 -748.89)"/><path class="ao" d="M3504.84,825.8a14.25,14.25,0,0,0,5.83-1.35c1.51-.76,3-1.89,4.7-1.73,2.14,0.21,3.45,2.37,5.57,2.83s3.92-1,6.05-1.24a20.47,20.47,0,0,1,4.43.3,27.4,27.4,0,0,0,5.61-.31l10.1-1.26c-5.64,4.12-13.77,3-21,3.06l-1.48,0c-0.61,0-1.24,0-1.86.09-5.05.32-10.08,1.07-15.08,0.82a25.67,25.67,0,0,1-9.56-2.28A18.89,18.89,0,0,0,3504.84,825.8Z" transform="translate(-3195.04 -748.89)"/><path class="am" d="M3526.49,797.76a5.08,5.08,0,0,0,.48,2,2,2,0,0,0,1.73,1.12,14.8,14.8,0,0,1,1.14-14.77,8.69,8.69,0,0,0-3.32,5.39A20.77,20.77,0,0,0,3526.49,797.76Z" transform="translate(-3195.04 -748.89)"/><path class="am" d="M3515.71,798.94a25.36,25.36,0,0,0,3.09-8.52,8.29,8.29,0,0,1-2.71,8.76,0.27,0.27,0,0,1-.35-0.1A0.22,0.22,0,0,1,3515.71,798.94Z" transform="translate(-3195.04 -748.89)"/><path class="am" d="M3543.78,820.3a4.28,4.28,0,0,1-5-.76,10,10,0,0,1-2.37-4.58l-2.39-7.55a16.42,16.42,0,0,0,3.44,4.13,8.28,8.28,0,0,0,7.41,1.78l0.45-.15c0.08,0.81.12,1.64,0.13,2.43C3545.44,817.32,3545.28,819.3,3543.78,820.3Z" transform="translate(-3195.04 -748.89)"/><path class="am" d="M3524.87,819.33a5.26,5.26,0,0,1-6,.89,6.74,6.74,0,0,1-3.47-4.88,11.33,11.33,0,0,1,0-3.93,2.51,2.51,0,0,0,.18.73,5.91,5.91,0,0,0,2.61,3.58,4.18,4.18,0,0,0,4.5-.18c1.86-1.45,1.46-4.13,2.28-6.22a44.49,44.49,0,0,1,.9,4.83A6.45,6.45,0,0,1,3524.87,819.33Z" transform="translate(-3195.04 -748.89)"/><path class="am" d="M3510.31,819.4a4,4,0,0,1-5,1.62,7.06,7.06,0,0,1-3.69-3.94,12.45,12.45,0,0,1-.72-2.28,7.12,7.12,0,0,0,8.84-3.82h0a41.89,41.89,0,0,0,.61,5.46A5.69,5.69,0,0,1,3510.31,819.4Z" transform="translate(-3195.04 -748.89)"/><path class="ap" d="M3364.44,840.46l-0.24-4.77-3.29,0c-4.1-2.69-11.46-4.41-19.81-4.3s-15.56,2-19.63,4.77l-3.3,0v4.25a3.56,3.56,0,0,0,0,1.36v0.2h0c1,4.81,10.86,8.51,22.9,8.41,12.8-.11,23.25-4.47,23.25-9.74v-0.18Z" transform="translate(-3195.04 -748.89)"/><path class="aq" d="M3341.12,818.23c20.46-.33,37.19,5.27,37.19,12.51s-16.73,13.29-37.19,13.5c-20.26.21-36.55-5.4-36.55-12.52S3320.86,818.56,3341.12,818.23Z" transform="translate(-3195.04 -748.89)"/><path class="ar" d="M3341.15,844.85c-20.92.21-37.19-5.56-37.19-13.13s16.25-13.77,37.19-14.11c21.15-.35,37.85,5.42,37.85,13.12S3362.27,844.64,3341.15,844.85Zm0-26c-9.75.16-18.88,1.63-25.69,4.16-6.51,2.4-10.23,5.57-10.23,8.69s3.72,6.19,10.23,8.42c6.83,2.34,15.94,3.58,25.69,3.48s19-1.54,26-4.06c6.69-2.41,10.54-5.63,10.54-8.8s-3.85-6.29-10.54-8.52c-7-2.34-16.21-3.52-26-3.36h0Z" transform="translate(-3195.04 -748.89)"/><path class="as" d="M3340.7,821.75c16.29-.25,29.59,4,29.59,9.41s-13.3,10-29.59,10.19-29.18-4-29.18-9.42S3324.53,822,3340.7,821.75Z" transform="translate(-3195.04 -748.89)"/><path class="at" d="M3357.41,825.62c3.13,0.81,6.71,2.53,6.56,5.84a4.88,4.88,0,0,1-1.72,3.37c-4.58,4.05-14,4.12-19.73,4.65-2.4.21-4.8,0.27-7.2,0.29-0.61,0-3.77,0-4.24-.32a0.7,0.7,0,0,1-.33-0.84c4.4-1.21,9.74-1.06,14.4-1.51a4.38,4.38,0,0,0,3-1.07,1.58,1.58,0,0,0,.42-1.35c-0.28-1.41-2.21-1.08-2.74-2.09-0.79-1.52,2.63-3,.66-4.88a3.54,3.54,0,0,0-2.13-1,107.32,107.32,0,0,0-11.1-.55,0.46,0.46,0,0,1-.47-0.47,0.48,0.48,0,0,1,.37-0.45A52.32,52.32,0,0,1,3357.41,825.62Z" transform="translate(-3195.04 -748.89)"/><path class="ap" d="M3405.18,875.11l-0.24-5.31-3.71,0c-4.61-3-12.88-5-22.27-5s-17.51,2.11-22,5.15l-3.73,0v4.72a3.92,3.92,0,0,0,0,1.51v0.15h0c1.15,5.36,12.12,9.57,25.7,9.57,14.38,0,26.11-4.72,26.11-10.61v-0.19Z" transform="translate(-3195.04 -748.89)"/><path class="aq" d="M3379,850.16c23-.2,41.81,6.18,41.81,14.25S3402,879.05,3379,879.1c-22.75,0-41-6.34-41-14.25S3356.23,850.36,3379,850.16Z" transform="translate(-3195.04 -748.89)"/><path class="ar" d="M3379,879.79c-23.49,0-41.72-6.53-41.72-14.94s18.23-15.17,41.72-15.38c23.75-.21,42.52,6.34,42.52,14.91S3402.72,879.74,3379,879.79Zm0-28.95c-11,.09-21.18,1.66-28.84,4.42-7.29,2.62-11.47,6.12-11.47,9.58s4.17,6.94,11.47,9.46c7.65,2.67,17.89,4.14,28.84,4.11s21.39-1.54,29.24-4.29c7.52-2.63,11.85-6.18,11.85-9.72s-4.32-7.06-11.85-9.59c-7.85-2.66-18.24-4.06-29.24-4h0Z" transform="translate(-3195.04 -748.89)"/><path class="au" d="M3378.5,854.06c18.3-.14,33.25,4.66,33.25,10.73s-15,11-33.25,11.08c-18.15,0-32.74-4.76-32.74-10.74S3360.35,854.2,3378.5,854.06Z" transform="translate(-3195.04 -748.89)"/><path class="av" d="M3397.26,858.52c3.52,0.93,7.54,2.87,7.42,6.56a5.37,5.37,0,0,1-2,3.74c-5.14,4.49-15.71,4.48-22.15,5-2.72.22-5.43,0.26-8.13,0.25-0.68,0-4.24,0-4.75-.39a0.78,0.78,0,0,1-.38-0.94c4.95-1.33,11-1.09,16.13-1.57a4.92,4.92,0,0,0,3.36-1.19,1.73,1.73,0,0,0,.47-1.5c-0.31-1.57-2.45-1.16-3.08-2.33-0.88-1.71,2.95-3.25.74-5.43a4,4,0,0,0-2.45-1.1,121.71,121.71,0,0,0-12.46-.7,0.51,0.51,0,0,1-.11-1A59.35,59.35,0,0,1,3397.26,858.52Z" transform="translate(-3195.04 -748.89)"/></svg>