<svg xmlns="http://www.w3.org/2000/svg" xmlns:xlink="http://www.w3.org/1999/xlink" viewBox="0 0 454.59 210.61"><defs><style>.a{fill:none;}.b{fill:#1e1e1e;}.b,.i{opacity:0.3;}.ag,.ak,.al,.am,.b,.i{isolation:isolate;}.c{fill:#663f2b;}.d{fill:#774a31;}.e{fill:#7a4f30;}.f{fill:#8e5b39;}.g{fill:#995f3f;}.h{fill:#51321d;}.i{fill:#511414;}.j{fill:#121212;}.k{fill:#232323;}.l{fill:#404041;}.m{fill:#fff;}.n{fill:#f09f41;}.o{fill:#51a960;}.p{fill:#e04837;}.q{fill:#8a281b;}.r{fill:#f4c548;}.s{fill:#7f4c1d;}.t{fill:#7a431f;}.u{fill:#9b5b2c;}.v{fill:#663b18;}.w{clip-path:url(#a);}.x{fill:#603716;}.y{fill:#6d3f19;}.z{fill:#af733e;}.aa{fill:#ddcaaa;}.ab{fill:#e8d8bf;}.ac{fill:#d6bf9d;}.ad{fill:#cead80;}.ae,.ag{fill:#f4e5d0;}.af{fill:#c9ac85;}.ag{opacity:0.48;}.ah{fill:#bc986d;}.ai,.al{fill:#bc9d67;}.aj{fill:#f4e3b7;}.ak{fill:#968051;}.ak,.al,.am{opacity:0.61;}.am{fill:#9b8054;}.an{fill:#ba7d4a;}.ao{fill:#fff9d9;}.ap{fill:#ead1a9;}.aq{fill:#f5b309;}.ar{fill:#ffc84d;}.as{fill:#e52b31;}.at{fill:#f4404e;}</style><clipPath id="a" transform="translate(-435.05 -472.9)"><ellipse class="a" cx="713.9" cy="517.89" rx="45.89" ry="27.68"/></clipPath></defs><title>Hospitality</title><path class="b" d="M856.51,683.51H446.6a11.53,11.53,0,0,1-10.28-16.76l33.53-66a11.53,11.53,0,0,1,10.28-6.31h398a11.53,11.53,0,0,1,11,15.12l-21.59,66A11.53,11.53,0,0,1,856.51,683.51Z" transform="translate(-435.05 -472.9)"/><polygon class="c" points="363.65 151.7 349.8 174.06 345.91 117.06 363.65 60.67 363.65 151.7"/><polygon class="d" points="349.9 174 325.08 174.11 324.88 117.11 349.71 117.01 349.9 174"/><polygon class="c" points="122.08 151.7 108.23 174.06 104.5 117.01 122.08 60.67 122.08 151.7"/><polygon class="d" points="108.33 174 83.51 174.11 83.32 117.11 108.14 117.01 108.33 174"/><polygon class="e" points="384.69 120.3 52.77 120.3 84.43 65.34 416.35 65.34 384.69 120.3"/><rect class="f" x="52.77" y="120.3" width="331.88" height="12.55"/><polygon class="g" points="416.35 77.89 384.65 132.85 384.65 120.3 416.35 65.34 416.35 77.89"/><path class="h" d="M815.84,547.17a9.81,9.81,0,0,1-7.94-1.67c-1.82-1.24-3.67-2.48-5.57-3.66h-1.17c0.81,0.47,1.6.93,2.37,1.42,4.59,2.93,8.48,7.18,17.19,2.49a37.86,37.86,0,0,0,5.75-3.64h-0.28a21,21,0,0,1-3,1.9C820.87,545.24,818.35,546.7,815.84,547.17Z" transform="translate(-435.05 -472.9)"/><path class="h" d="M727.88,592.24a5.77,5.77,0,0,0,.88-2.06c0.12-.59,0-1.75.88-2.25a10.06,10.06,0,0,1,3.61-1.06,16,16,0,0,1,8.55.89c2.08,0.82,4.17,2.06,6.74,2.28,22.73,1.9,47.82-1.34,71.66-1.8l0.43-.87c-8.55.13-17.39,0.75-26.08,1.31-7.82.5-15.67,1-23.36,1.24-7.39.22-15.74,0.78-22.39-.39-5.59-1-9-4.56-16.15-3-1.77.38-3.58,1-4,2.59-0.09.41-.12,0.8-0.19,1.2" transform="translate(-435.05 -472.9)"/><path class="h" d="M715.73,543.39c8.19,2,16.19,5.22,26.12,4.56,9-.6,18.52-3.53,27.87-5.86,0.63-.16,1.27-0.35,1.9-0.57H770c-2,.55-4,1-6.08,1.56-4.5,1.19-9,2.43-13.5,3.24A55.07,55.07,0,0,1,737,547.39a69.24,69.24,0,0,1-12.52-2.45q-8.12-2.07-16.32-4.05l-3,0Q710.48,542.09,715.73,543.39Z" transform="translate(-435.05 -472.9)"/><path class="h" d="M710.26,560.05a7.29,7.29,0,0,1-2.37-2.45,6.65,6.65,0,0,1-.52-1.16,31.44,31.44,0,0,1,4.18-1.73,44.32,44.32,0,0,1,12.94-2.29c9-.16,16.59,2,25.93,1.15,10.1-.95,20.35-3,29.69-2.06s17.94,2.77,28.14,2.09,20.86-3.17,31.41-5.31l0.34-.7c-5.15,1.06-10.32,2.23-15.47,3.21a117.71,117.71,0,0,1-20.62,2.37c-6.77.06-12.86-.95-19.15-1.74a81.68,81.68,0,0,0-20.78-.05c-7.21.9-14.79,2.29-21.49,1.85-11.45-.75-21.78-3.36-35.29,2.79a0.81,0.81,0,0,0-.28.56c2,7,13.35,7.3,22.32,6.94,11.1-.47,22.75-2.45,33.86-3,5.62-.27,10.77.38,16.24,0.44,7.32,0.08,14.79-.17,22.15-0.17,10.7,0,21.64.34,30.53,3.15l0.28-.58c-12.35-4.1-28.94-3.18-43.79-3-4.55,0-9.12.09-13.55-.1-3.22-.14-6.32-0.51-9.66-0.4-6.55.2-13.38,1.09-20.11,1.8A174,174,0,0,1,724.93,563C719.6,562.91,713.79,562.52,710.26,560.05Z" transform="translate(-435.05 -472.9)"/><path class="h" d="M635.49,579l0.34-.62-0.58.18C635.33,578.72,635.41,578.87,635.49,579Z" transform="translate(-435.05 -472.9)"/><path class="h" d="M659.7,549.08c-9-1.48-18.52-2.57-26.24-5.7-2.59-1.06-5.09-2.2-7.6-3.32h-2.2c2.85,1.21,5.67,2.47,8.6,3.65,7.76,3.12,17,4.35,26,5.82,4.75,0.77,9.5,1.55,14.08,2.54,3.8,0.82,7.33,2,11.14,2.81,3.55,0.76,8.21,2,12.71.85,2.88-.76,4.21-2.78,4.07-4.71-0.37-4.78-5-6.17-10.54-6.78-3.21-.37-6.56-0.5-9.82-0.81a63.34,63.34,0,0,1-10-2c-1.12-.28-2.22-0.58-3.32-0.89l-2.8,0q3.87,1.07,7.8,2C677.77,544,684.54,544,691,545c2.95,0.47,6.42,1.13,7.88,3.11,1.07,1.47,2.45,5.73-1.87,6.87-4.61,1.21-9.11.14-12.76-.63-3.93-.84-7.56-2.09-11.53-2.91C668.41,550.56,664.08,549.8,659.7,549.08Z" transform="translate(-435.05 -472.9)"/><path class="h" d="M564.83,592.65A157.19,157.19,0,0,1,623,588c7.36,0.85,14.72,1.78,22.72,1.46,8.6-.35,17.44-1.32,26.12-1.9a131.46,131.46,0,0,1,23.87.37c6.61,0.76,13.48,1.55,21.2-.43a0.73,0.73,0,0,0,.28-0.52c-1-3.87-8-4.75-12.43-5.37a145.24,145.24,0,0,0-21.29-1.22,41.73,41.73,0,0,0-6.87.31c-3.38.55-6.83,1.36-10.14,1.69s-7.26.47-7.68-2.34c-0.39-2.62,5-2.93,6.78-3.07,7.44-.57,14.94-1.32,21.93-0.83,9,0.64,17.42,2.2,26.59,2.57,9.86,0.38,19.81.63,29.54,1.26,10,0.66,19.27,2.37,29.14,3.18s20.5,0.64,31,.34c4.19-.12,8.19,0,12.28.14a44.64,44.64,0,0,0,6.37-.18l0.25-.54c-5.7.73-11-.45-16.48-0.13a247.21,247.21,0,0,1-28.34.1c-10.08-.57-19.37-2.43-29.35-3.19-9.62-.73-19.47-1-29.29-1.42-9.43-.35-18.23-1.52-27.34-2.4a90.31,90.31,0,0,0-14-.44c-3.18.18-6.43,0.6-9.62,0.77-2.13.12-8.14,0-9.54,2.67-2.28,4.41,4.75,4.35,8.38,3.84,3.4-.47,7.22-1.6,10.52-1.74,2.1-.1,4.18-0.14,6.23-0.14a153.93,153.93,0,0,1,17.85.88c4.88,0.57,11.05,1.17,14,3.93a3.9,3.9,0,0,1,.85,1c0.29,0.58.47,0.36-.47,0.57a38,38,0,0,1-6.44.9,79.59,79.59,0,0,1-12.66-.63,147.16,147.16,0,0,0-28.65-.19c-10.22.82-20.74,2.08-30.39,1.57-9-.47-17.27-2.07-26.28-2.45s-18.47.59-28.06,2a171.28,171.28,0,0,0-19.47,4" transform="translate(-435.05 -472.9)"/><path class="h" d="M554.67,545.63c-4.06-2.15-8.07-4.35-12.23-6.43h-1.6l2.48,1.25c3,1.54,6,3.12,8.94,4.69,2.65,1.42,5.16,3,8.41,3.8,5.86,1.42,12.79.44,19.65-.14,4.86-.41,9.19.32,13.91,0.23,2.46,0,7.44-.08,9.47-2.75,2.58-3.4,1.51-5.2-.74-6.47h-1.33c1.79,0.84,3.25,2,2.93,4.12-0.4,2.61-3.05,3.77-5.81,4.17-4.37.65-8.37,0.25-12.38,0.07-5-.23-10.45.66-15.67,0.9A29.07,29.07,0,0,1,554.67,545.63Z" transform="translate(-435.05 -472.9)"/><path class="h" d="M508.1,563.27a158.81,158.81,0,0,1,22.24-.13c11.57,0.65,22.82,1.9,34.06,3.13,25.21,2.76,51,4.95,78.19,4,4.57-.16,9.2-0.24,13.93-0.79,1.42-.17,3.67-0.25,5.17-1.11s0.84-2,0-2.45c-3.08-1.77-7.37-2.56-11.34-3.28a58.6,58.6,0,0,0-13.33-1.22c-7,.34-14.41,1.35-21.22,1.13-3.07-.1-6.44-0.28-8.69-1.51-1.5-.82-1.42-0.9.58-2a36.74,36.74,0,0,1,3.78-1.8c13-5.16,26-3.3,36.26-1.2,11.46,2.34,21.82,6,32.67,9.12,14,4,29.92,5.19,46.17,5.75,33.45,1.16,66.53,3,99.86,4.43l0.36-.73c-18.6-.91-37.29-1.66-55.92-2.51-19.2-.87-38.75-1.2-57.74-2.45a168.24,168.24,0,0,1-39.22-7.12c-11-3.42-22.13-7.05-34.67-8.49-10-1.14-22.54-1.29-33.69,5.91a0.79,0.79,0,0,0-.29.57c4,3.85,13.77,2.78,20.78,2.27,6.55-.47,13-1.13,18.93-0.33a72.39,72.39,0,0,1,13.38,2.85c1.28,0.43,3.24.9,3.8,1.95,0.47,0.89-3.3,1.38-4,1.48-9.33,1.22-18.52,1.17-27.34,1.16-10.1,0-20-.35-29.81-0.95-18.24-1.15-35.93-3.22-53.8-5-12.31-1.22-25.23-2.43-38.89-1.13Z" transform="translate(-435.05 -472.9)"/><path class="h" d="M503,573.8a103.86,103.86,0,0,0,11.52,2c9.58,1,20.15.68,30.2,0.86,8.86,0.16,17.77.51,26.95,0,11.87-.71,24.19-2.6,36-3.13,9.27-.42,23.83-1.34,27.61,5.09l0.58-.18h0c-3.32-6.76-17.79-6-27.1-5.53-12.11.57-24.69,2.51-36.82,3.15-9.6.51-18.92,0.19-28.2,0-9.94-.19-20.63.29-30-0.95-3.58-.47-7-1.21-10.45-2Z" transform="translate(-435.05 -472.9)"/><path class="h" d="M541.24,592.35a79.91,79.91,0,0,1,23.87-7.67c8.83-1.37,17.49-2.18,26.27-3.37A95.66,95.66,0,0,1,603.22,580c3.82,0,7.43.28,11.08,0.54,6.65,0.47,13.57,1,21.2-1.49a0.86,0.86,0,0,0,.34-0.63h0l-0.34.62c-0.08-.15-0.16-0.3-0.24-0.44-7.76,2.4-14.84,1.74-21.62,1.23a94.16,94.16,0,0,0-11.08-.44c-3.84.16-8,.95-12,1.47-15.44,2-31.3,2.37-47.15,10.06" transform="translate(-435.05 -472.9)"/><path class="h" d="M528.83,588c-8.68,3.91-18.71,3.32-26.2,2.72-2.62-.21-5.22-0.5-7.74-0.89l-0.35.71a101.2,101.2,0,0,0,13.36,1c6.06,0.12,18.77.47,24.61-5.65,1.78-1.86,3.19-4.67,2.31-6.27-1.71-3.14-8.67-1.8-13.14-1-2.82.51-5.7,1.19-8.49,1.58-3.32.47-6.31-.14-9.16-0.58-1.3-.2-2.57-0.43-3.85-0.67l-0.29.61,1.81,0.32c3,0.47,6.37,1.42,9.8,1.09,2.05-.19,4.19-0.66,6.29-1.06,4.7-.92,11.35-2.64,15-1.14C536.78,580.39,533.8,585.72,528.83,588Z" transform="translate(-435.05 -472.9)"/><path class="h" d="M522.2,542.27c-1.18-.21-2.37-0.39-3.59-0.53l-0.31.65,1.9,0.27c7.53,1.19,12.52,4.71,19,7,8.07,2.88,16.75,4.06,26.33,4.7,4.94,0.33,9.9.65,14.72,1.21,3.42,0.4,7.64.66,10.2,2.17,2.74,1.62-2.58,2.81-4.48,2.92a91.93,91.93,0,0,1-14.25-.68c-8.91-.92-17.48-2.37-26.29-3.45-10.62-1.32-22.24-1.14-33-2.24l-0.37.75c11.15,1.31,23.68.81,34.54,2.31,10.45,1.42,20.78,3.21,31.76,3.83,1.12,0.06,14.25.95,13.3-3-0.42-1.83-4.47-2.17-6.49-2.5-4.54-.74-9.3-1.14-14.07-1.49-9.79-.72-19.24-1.19-27.79-3.83C535.92,548.06,530.33,543.72,522.2,542.27Z" transform="translate(-435.05 -472.9)"/><ellipse class="i" cx="366.9" cy="78.28" rx="19.05" ry="8.36"/><path class="j" d="M796.39,528.64v26.83a25.64,25.64,0,0,0,5.37.56c8.61,0,15.59-4.09,15.59-9.13V528.64h-21Z" transform="translate(-435.05 -472.9)"/><path class="k" d="M786.18,528.64V546.9c0,3.94,4.27,7.29,10.22,8.57V528.64H786.18Z" transform="translate(-435.05 -472.9)"/><ellipse class="l" cx="366.71" cy="55.75" rx="15.59" ry="9.13"/><ellipse class="m" cx="366.71" cy="55.75" rx="13.56" ry="7.94"/><ellipse class="n" cx="366.71" cy="55.04" rx="8.68" ry="5.09"/><path class="o" d="M804.49,523.12c-1.23,1.22-2.58,2.83-2.73,4.19a23.93,23.93,0,0,0,8.66.36C810.22,525.54,807.82,523.76,804.49,523.12Z" transform="translate(-435.05 -472.9)"/><path class="p" d="M799.59,523c-3.74.57-6.5,2.55-6.5,4.92a3.07,3.07,0,0,0,.16.95c1.7-1.7,3.61-.26,5-0.26,3,0,3.5-1.33,3.5-1.33A35.61,35.61,0,0,0,799.59,523Z" transform="translate(-435.05 -472.9)"/><path class="q" d="M801.76,527.32l3.86-3.92a13.86,13.86,0,0,0-3.86-.53,13.32,13.32,0,0,0-4.84.86Z" transform="translate(-435.05 -472.9)"/><path class="r" d="M792.87,538.91a0.3,0.3,0,0,1-.05.42l-1,.82a0.3,0.3,0,0,1-.42,0h0a0.3,0.3,0,0,1,0-.42l1-.82a0.3,0.3,0,0,1,.42,0h0Z" transform="translate(-435.05 -472.9)"/><path class="r" d="M787.83,536.11a0.3,0.3,0,0,1,.42.08h0l0.73,1.11a0.3,0.3,0,0,1-.09.42h0a0.3,0.3,0,0,1-.42-0.08h0l-0.73-1.11a0.3,0.3,0,0,1,.08-0.42h0Z" transform="translate(-435.05 -472.9)"/><path class="r" d="M789.61,541.32a0.3,0.3,0,0,1-.34.26L788,541.4a0.3,0.3,0,0,1-.26-0.34h0a0.3,0.3,0,0,1,.34-0.26h0l1.32,0.18a0.3,0.3,0,0,1,.26.34h0Z" transform="translate(-435.05 -472.9)"/><path class="r" d="M792.38,543a0.3,0.3,0,0,1,0,.42h0l-0.84,1a0.3,0.3,0,0,1-.42,0h0a0.3,0.3,0,0,1,0-.42l0.84-1a0.3,0.3,0,0,1,.42,0h0v0Z" transform="translate(-435.05 -472.9)"/><path class="r" d="M788.91,546.21a0.3,0.3,0,0,1-.42-0.07h0L787.73,545a0.3,0.3,0,0,1,.07-0.42h0a0.3,0.3,0,0,1,.42.07h0l0.76,1.09a0.3,0.3,0,0,1-.07.42h0Z" transform="translate(-435.05 -472.9)"/><path class="r" d="M793.57,546.77a0.3,0.3,0,0,1,.41-0.08h0l1.1,0.74a0.3,0.3,0,0,1,.08.42h0a0.3,0.3,0,0,1-.42.08l-1.1-.75a0.3,0.3,0,0,1-.08-0.41h0Z" transform="translate(-435.05 -472.9)"/><path class="r" d="M794.1,550.54a0.3,0.3,0,0,1,.06.42h0l-0.8,1.06a0.3,0.3,0,0,1-.42.06h0a0.3,0.3,0,0,1-.06-0.42h0l0.8-1.06a0.3,0.3,0,0,1,.42-0.06h0Z" transform="translate(-435.05 -472.9)"/><path class="r" d="M791.54,548.8a0.3,0.3,0,0,1-.28.31h0l-1.32,0a0.3,0.3,0,0,1-.31-0.29h0a0.3,0.3,0,0,1,.29-0.31l1.32,0a0.3,0.3,0,0,1,.31.28h0Z" transform="translate(-435.05 -472.9)"/><path class="r" d="M802.12,541.54a0.3,0.3,0,0,1,0,.42h0l-1,.82a0.3,0.3,0,0,1-.42-0.05h0a0.3,0.3,0,0,1,0-.42h0l1-.82a0.3,0.3,0,0,1,.42.05h0Z" transform="translate(-435.05 -472.9)"/><path class="r" d="M797.07,538.72a0.3,0.3,0,0,1,.42.09l0.73,1.11a0.3,0.3,0,0,1-.09.42h0a0.3,0.3,0,0,1-.42-0.09L797,539.14a0.3,0.3,0,0,1,.08-0.42h0Z" transform="translate(-435.05 -472.9)"/><path class="r" d="M798.85,543.95a0.3,0.3,0,0,1-.34.26h0l-1.32-.18a0.3,0.3,0,0,1-.26-0.34h0a0.3,0.3,0,0,1,.34-0.26l1.32,0.18a0.3,0.3,0,0,1,.26.34h0Z" transform="translate(-435.05 -472.9)"/><path class="r" d="M801.64,545.58a0.3,0.3,0,0,1,0,.42h0l-0.84,1a0.3,0.3,0,0,1-.42,0h0a0.3,0.3,0,0,1,0-.42l0.84-1a0.3,0.3,0,0,1,.42,0h0Z" transform="translate(-435.05 -472.9)"/><path class="r" d="M798.14,548.83a0.3,0.3,0,0,1-.42-0.07h0L797,547.66a0.3,0.3,0,0,1,.07-0.42h0a0.3,0.3,0,0,1,.42.08l0.75,1.09a0.3,0.3,0,0,1-.07.42h0Z" transform="translate(-435.05 -472.9)"/><path class="r" d="M802.81,549.39a0.3,0.3,0,0,1,.42-0.08l1.1,0.74a0.3,0.3,0,0,1,.08.42h0a0.3,0.3,0,0,1-.42.08l-1.1-.74a0.3,0.3,0,0,1-.08-0.42h0Z" transform="translate(-435.05 -472.9)"/><path class="r" d="M803.34,553.16a0.3,0.3,0,0,1,.06.42l-0.8,1.06a0.3,0.3,0,0,1-.42.06h0a0.3,0.3,0,0,1-.06-0.42l0.8-1.06a0.3,0.3,0,0,1,.42-0.06h0Z" transform="translate(-435.05 -472.9)"/><path class="r" d="M800.78,551.42a0.3,0.3,0,0,1-.28.31h0l-1.32.05a0.3,0.3,0,0,1-.31-0.29h0a0.3,0.3,0,0,1,.29-0.31l1.32,0a0.3,0.3,0,0,1,.31.29h0Z" transform="translate(-435.05 -472.9)"/><path class="r" d="M806,545.73a0.3,0.3,0,0,1-.05.42l-1,.82a0.3,0.3,0,0,1-.42,0h0a0.3,0.3,0,0,1,.05-0.42l1-.82a0.3,0.3,0,0,1,.42.05h0Z" transform="translate(-435.05 -472.9)"/><path class="r" d="M804.74,542.69a0.3,0.3,0,0,1,.36-0.23l1.3,0.27a0.3,0.3,0,0,1,.23.36h0a0.3,0.3,0,0,1-.36.23L805,543a0.3,0.3,0,0,1-.23-0.36h0Z" transform="translate(-435.05 -472.9)"/><path class="r" d="M805.42,540a0.3,0.3,0,0,1-.34.26l-1.32-.18a0.3,0.3,0,0,1-.26-0.34h0a0.3,0.3,0,0,1,.34-0.26h0l1.32,0.18a0.3,0.3,0,0,1,.26.34h0Z" transform="translate(-435.05 -472.9)"/><path class="r" d="M809.67,545.58a0.3,0.3,0,0,1,0,.42l-0.84,1a0.3,0.3,0,0,1-.42,0h0a0.3,0.3,0,0,1,0-.43l0.84-1a0.3,0.3,0,0,1,.42,0h0Z" transform="translate(-435.05 -472.9)"/><path class="r" d="M794.86,542.55a0.3,0.3,0,0,1-.29-0.31h0l0.06-1.32a0.3,0.3,0,0,1,.31-0.29h0a0.3,0.3,0,0,1,.29.31h0l-0.06,1.32a0.3,0.3,0,0,1-.31.29h0Z" transform="translate(-435.05 -472.9)"/><path class="r" d="M806.69,548.72a0.3,0.3,0,0,1,.42-0.08l1.1,0.74a0.3,0.3,0,0,1,.08.42h0a0.3,0.3,0,0,1-.41.08h0l-1.1-.74a0.3,0.3,0,0,1-.08-0.42h0Z" transform="translate(-435.05 -472.9)"/><path class="r" d="M807,551.7a0.3,0.3,0,0,1,.19.38l-0.44,1.25a0.3,0.3,0,0,1-.38.19h0a0.3,0.3,0,0,1-.19-0.38l0.44-1.25a0.3,0.3,0,0,1,.38-0.19h0Z" transform="translate(-435.05 -472.9)"/><path class="r" d="M797.18,554a0.3,0.3,0,0,1-.37-0.21h0l-0.36-1.28a0.3,0.3,0,0,1,.21-0.37h0a0.3,0.3,0,0,1,.37.21l0.36,1.28a0.3,0.3,0,0,1-.21.37h0Z" transform="translate(-435.05 -472.9)"/><path class="r" d="M816.62,545a0.3,0.3,0,0,0-.28-0.32l-1.32-.1a0.3,0.3,0,0,0-.32.28h0a0.3,0.3,0,0,0,.27.32h0l1.32,0.1a0.3,0.3,0,0,0,.32-0.28h0Z" transform="translate(-435.05 -472.9)"/><path class="r" d="M814.49,549.47a0.3,0.3,0,0,0,.3-0.3v-1.32a0.3,0.3,0,0,0-.3-0.3h0a0.3,0.3,0,0,0-.3.3h0v1.32a0.3,0.3,0,0,0,.3.3h0Z" transform="translate(-435.05 -472.9)"/><path class="r" d="M813.28,544.78a0.3,0.3,0,0,0-.43,0l-1,.88a0.3,0.3,0,0,0,0,.42h0a0.3,0.3,0,0,0,.42,0h0l1-.88a0.3,0.3,0,0,0,0-.43h0Z" transform="translate(-435.05 -472.9)"/><path class="r" d="M814.3,541.87a0.3,0.3,0,0,0-.2-0.37h0l-1.27-.39a0.3,0.3,0,0,0-.37.2h0a0.3,0.3,0,0,0,.2.37h0l1.27,0.39a0.3,0.3,0,0,0,.38-0.2h0Z" transform="translate(-435.05 -472.9)"/><path class="r" d="M810.52,537.85a0.3,0.3,0,0,0-.11.41l0.66,1.15a0.3,0.3,0,0,0,.41.12h0a0.3,0.3,0,0,0,.11-0.41L810.94,538a0.3,0.3,0,0,0-.41-0.11h0Z" transform="translate(-435.05 -472.9)"/><path class="r" d="M813.57,537.53a0.3,0.3,0,0,0,.39-0.16h0l0.5-1.23a0.3,0.3,0,0,0-.17-0.39h0a0.3,0.3,0,0,0-.39.17l-0.5,1.23a0.3,0.3,0,0,0,.16.39h0Z" transform="translate(-435.05 -472.9)"/><path class="r" d="M816.27,537.62a0.3,0.3,0,0,0-.42,0h0l-0.85,1a0.3,0.3,0,0,0,0,.42h0a0.3,0.3,0,0,0,.42,0l0.85-1a0.3,0.3,0,0,0,0-.42h0Z" transform="translate(-435.05 -472.9)"/><path class="r" d="M809.35,542.52a0.3,0.3,0,0,0,.27-0.33l-0.13-1.32a0.3,0.3,0,0,0-.33-0.27h0a0.3,0.3,0,0,0-.27.33l0.13,1.32a0.3,0.3,0,0,0,.33.27h0Z" transform="translate(-435.05 -472.9)"/><path class="r" d="M811.32,551.52a0.3,0.3,0,0,1-.38-0.19l-0.43-1.26a0.3,0.3,0,0,1,.19-0.38h0a0.3,0.3,0,0,1,.38.19h0l0.43,1.26a0.3,0.3,0,0,1-.19.38h0Z" transform="translate(-435.05 -472.9)"/><ellipse class="i" cx="197.3" cy="76.93" rx="22.28" ry="10.07"/><ellipse class="i" cx="157.18" cy="106.58" rx="30.2" ry="9.33"/><ellipse class="i" cx="125.32" cy="77.59" rx="30.2" ry="9.33"/><path class="j" d="M626.23,525.5v30.77a29.39,29.39,0,0,0,6.17.64c9.87,0,17.87-4.69,17.87-10.45v-21h-24Z" transform="translate(-435.05 -472.9)"/><path class="k" d="M614.51,525.5v20.93c0,4.52,4.88,8.36,11.72,9.83V525.5H614.51Z" transform="translate(-435.05 -472.9)"/><ellipse class="l" cx="197.33" cy="52.59" rx="17.87" ry="10.47"/><ellipse class="m" cx="197.33" cy="52.59" rx="15.55" ry="9.11"/><ellipse class="n" cx="197.33" cy="51.78" rx="9.95" ry="5.83"/><path class="o" d="M635.51,519.15c-1.42,1.4-3,3.24-3.13,4.81a27.5,27.5,0,0,0,9.92.41C642.09,521.93,639.31,519.89,635.51,519.15Z" transform="translate(-435.05 -472.9)"/><path class="p" d="M629.89,519c-4.27.65-7.46,2.93-7.46,5.64a3.52,3.52,0,0,0,.19,1.1c2-1.95,4.14-.29,5.76-0.29,3.45,0,4-1.53,4-1.53A40.84,40.84,0,0,0,629.89,519Z" transform="translate(-435.05 -472.9)"/><path class="q" d="M632.38,524l4.43-4.49a15.89,15.89,0,0,0-4.43-.61,15.28,15.28,0,0,0-5.55,1Z" transform="translate(-435.05 -472.9)"/><path class="r" d="M622.19,537.26a0.35,0.35,0,0,1-.06.47l-1.2.95a0.35,0.35,0,0,1-.47-0.06h0a0.35,0.35,0,0,1,.06-0.47l1.2-.95a0.35,0.35,0,0,1,.47.06h0Z" transform="translate(-435.05 -472.9)"/><path class="r" d="M616.41,534.05a0.35,0.35,0,0,1,.47.1l0.84,1.27a0.35,0.35,0,0,1-.1.47h0a0.35,0.35,0,0,1-.47-0.1l-0.84-1.27a0.35,0.35,0,0,1,.1-0.47h0Z" transform="translate(-435.05 -472.9)"/><path class="r" d="M618.45,540a0.35,0.35,0,0,1-.39.29l-1.51-.2a0.35,0.35,0,0,1-.29-0.39h0a0.35,0.35,0,0,1,.39-0.29l1.51,0.2a0.35,0.35,0,0,1,.29.39h0Z" transform="translate(-435.05 -472.9)"/><path class="r" d="M621.63,541.89a0.35,0.35,0,0,1,0,.47l-0.95,1.18a0.35,0.35,0,0,1-.47.05h0a0.35,0.35,0,0,1-.05-0.47l0.95-1.18a0.34,0.34,0,0,1,.47-0.05h0Z" transform="translate(-435.05 -472.9)"/><path class="r" d="M617.64,545.62a0.35,0.35,0,0,1-.47-0.09l-0.86-1.25a0.35,0.35,0,0,1,.09-0.47h0a0.35,0.35,0,0,1,.47.09l0.86,1.25a0.35,0.35,0,0,1-.09.47h0Z" transform="translate(-435.05 -472.9)"/><path class="r" d="M623,546.27a0.35,0.35,0,0,1,.47-0.09l1.26,0.85a0.35,0.35,0,0,1,.09.47h0a0.35,0.35,0,0,1-.47.09l-1.26-.85a0.34,0.34,0,0,1-.1-0.47h0Z" transform="translate(-435.05 -472.9)"/><path class="r" d="M623.6,550.59a0.35,0.35,0,0,1,.07.47l-0.92,1.22a0.35,0.35,0,0,1-.47.07h0a0.35,0.35,0,0,1-.07-0.47l0.92-1.21a0.35,0.35,0,0,1,.47-0.07h0Z" transform="translate(-435.05 -472.9)"/><path class="r" d="M620.66,548.6a0.35,0.35,0,0,1-.33.36l-1.52.06a0.35,0.35,0,0,1-.36-0.33h0a0.35,0.35,0,0,1,.33-0.36l1.52-.06a0.34,0.34,0,0,1,.36.33h0Z" transform="translate(-435.05 -472.9)"/><path class="r" d="M632.79,540.27a0.34,0.34,0,0,1-.06.47l-1.2.95a0.35,0.35,0,0,1-.47-0.06h0a0.35,0.35,0,0,1,.06-0.47l1.2-.95a0.35,0.35,0,0,1,.47.06h0Z" transform="translate(-435.05 -472.9)"/><path class="r" d="M627,537.06a0.35,0.35,0,0,1,.47.1l0.84,1.27a0.35,0.35,0,0,1-.1.47h0a0.35,0.35,0,0,1-.47-0.1l-0.84-1.27a0.35,0.35,0,0,1,.1-0.47h0Z" transform="translate(-435.05 -472.9)"/><path class="r" d="M629,543a0.35,0.35,0,0,1-.39.29l-1.51-.2a0.35,0.35,0,0,1-.29-0.39h0a0.35,0.35,0,0,1,.39-0.29l1.51,0.2a0.35,0.35,0,0,1,.29.39h0Z" transform="translate(-435.05 -472.9)"/><path class="r" d="M632.22,544.91a0.35,0.35,0,0,1,.05.47l-0.95,1.18a0.35,0.35,0,0,1-.47,0h0a0.35,0.35,0,0,1,0-.47l0.95-1.18a0.35,0.35,0,0,1,.47-0.05h0Z" transform="translate(-435.05 -472.9)"/><path class="r" d="M628.23,548.64a0.35,0.35,0,0,1-.47-0.09l-0.86-1.25a0.35,0.35,0,0,1,.09-0.47h0a0.35,0.35,0,0,1,.47.09l0.86,1.25a0.35,0.35,0,0,1-.09.47h0Z" transform="translate(-435.05 -472.9)"/><path class="r" d="M633.59,549.28a0.35,0.35,0,0,1,.47-0.09l1.26,0.85a0.35,0.35,0,0,1,.09.47h0a0.35,0.35,0,0,1-.47.09l-1.26-.85a0.35,0.35,0,0,1-.09-0.47h0Z" transform="translate(-435.05 -472.9)"/><path class="r" d="M634.19,553.6a0.35,0.35,0,0,1,.07.47l-0.92,1.21a0.35,0.35,0,0,1-.47.07h0a0.35,0.35,0,0,1-.07-0.47l0.92-1.22a0.35,0.35,0,0,1,.47-0.07h0Z" transform="translate(-435.05 -472.9)"/><path class="r" d="M631.26,551.62a0.35,0.35,0,0,1-.33.36l-1.52.06a0.35,0.35,0,0,1-.36-0.33h0a0.35,0.35,0,0,1,.33-0.36l1.52-.06a0.35,0.35,0,0,1,.36.33h0Z" transform="translate(-435.05 -472.9)"/><path class="r" d="M637.29,545.08a0.35,0.35,0,0,1-.06.47l-1.2.95a0.35,0.35,0,0,1-.47-0.06h0a0.35,0.35,0,0,1,.06-0.47l1.2-.95a0.35,0.35,0,0,1,.47.06h0Z" transform="translate(-435.05 -472.9)"/><path class="r" d="M635.8,541.59a0.35,0.35,0,0,1,.41-0.27l1.49,0.31a0.35,0.35,0,0,1,.27.41h0a0.35,0.35,0,0,1-.41.27l-1.49-.31a0.35,0.35,0,0,1-.27-0.41h0Z" transform="translate(-435.05 -472.9)"/><path class="r" d="M636.59,538.45a0.35,0.35,0,0,1-.39.29l-1.51-.2a0.35,0.35,0,0,1-.29-0.39h0a0.35,0.35,0,0,1,.39-0.3h0l1.51,0.2a0.35,0.35,0,0,1,.29.39h0Z" transform="translate(-435.05 -472.9)"/><path class="r" d="M641.45,544.91a0.35,0.35,0,0,1,0,.47l-0.95,1.18a0.35,0.35,0,0,1-.47.05h0a0.35,0.35,0,0,1-.05-0.47L641,545a0.35,0.35,0,0,1,.47-0.05h0Z" transform="translate(-435.05 -472.9)"/><path class="r" d="M624.46,541.43a0.34,0.34,0,0,1-.33-0.36h0l0.07-1.52a0.35,0.35,0,0,1,.36-0.33h0a0.35,0.35,0,0,1,.33.36h0l-0.07,1.52a0.34,0.34,0,0,1-.36.33h0Z" transform="translate(-435.05 -472.9)"/><path class="r" d="M638,548.51a0.35,0.35,0,0,1,.47-0.09l1.28,0.84a0.35,0.35,0,0,1,.09.47h0a0.35,0.35,0,0,1-.47.09l-1.26-.85a0.35,0.35,0,0,1-.09-0.47h0Z" transform="translate(-435.05 -472.9)"/><path class="r" d="M638.34,551.93a0.35,0.35,0,0,1,.21.44h0l-0.5,1.42a0.35,0.35,0,0,1-.44.21h0a0.35,0.35,0,0,1-.21-0.44h0l0.5-1.42a0.35,0.35,0,0,1,.44-0.21h0Z" transform="translate(-435.05 -472.9)"/><path class="r" d="M627.13,554.6a0.35,0.35,0,0,1-.42-0.24l-0.41-1.47a0.35,0.35,0,0,1,.24-0.43h0a0.35,0.35,0,0,1,.43.24h0l0.41,1.47a0.35,0.35,0,0,1-.24.43h0Z" transform="translate(-435.05 -472.9)"/><path class="r" d="M649.41,544.21a0.35,0.35,0,0,0-.32-0.37l-1.51-.12a0.35,0.35,0,0,0-.37.32h0a0.35,0.35,0,0,0,.32.37l1.51,0.12a0.35,0.35,0,0,0,.37-0.32h0Z" transform="translate(-435.05 -472.9)"/><path class="r" d="M647,549.37a0.35,0.35,0,0,0,.34-0.35V547.5a0.35,0.35,0,0,0-.35-0.34h0a0.35,0.35,0,0,0-.34.35V549a0.35,0.35,0,0,0,.35.34h0Z" transform="translate(-435.05 -472.9)"/><path class="r" d="M645.62,544a0.35,0.35,0,0,0-.47,0L644,545a0.35,0.35,0,0,0,0,.47h0a0.35,0.35,0,0,0,.47,0l1.14-1a0.35,0.35,0,0,0,0-.47h0Z" transform="translate(-435.05 -472.9)"/><path class="r" d="M646.76,540.65a0.35,0.35,0,0,0-.23-0.43l-1.45-.45a0.35,0.35,0,0,0-.43.23h0a0.35,0.35,0,0,0,.23.43l1.45,0.45a0.35,0.35,0,0,0,.43-0.23h0Z" transform="translate(-435.05 -472.9)"/><path class="r" d="M642.43,536a0.35,0.35,0,0,0-.13.47h0l0.76,1.32a0.35,0.35,0,0,0,.47.13h0a0.35,0.35,0,0,0,.13-0.47h0l-0.76-1.32a0.35,0.35,0,0,0-.47-0.13h0Z" transform="translate(-435.05 -472.9)"/><path class="r" d="M645.92,535.68a0.34,0.34,0,0,0,.46-0.15l0,0,0.58-1.42a0.35,0.35,0,0,0-.16-0.46h0a0.35,0.35,0,0,0-.46.16v0l-0.58,1.42a0.35,0.35,0,0,0,.19.45h0v0Z" transform="translate(-435.05 -472.9)"/><path class="r" d="M649,535.79a0.34,0.34,0,0,0-.47,0l-1,1.17a0.35,0.35,0,0,0,0,.47h0a0.35,0.35,0,0,0,.47,0l1-1.17a0.35,0.35,0,0,0,0-.47h0Z" transform="translate(-435.05 -472.9)"/><path class="r" d="M641.08,541.42a0.35,0.35,0,0,0,.31-0.38l-0.15-1.51a0.35,0.35,0,0,0-.38-0.31h0a0.35,0.35,0,0,0-.31.38h0l0.15,1.51a0.35,0.35,0,0,0,.38.31h0Z" transform="translate(-435.05 -472.9)"/><path class="r" d="M643.34,551.72a0.35,0.35,0,0,1-.44-0.21l-0.47-1.42a0.35,0.35,0,0,1,.21-0.44h0a0.35,0.35,0,0,1,.44.21l0.47,1.42a0.35,0.35,0,0,1-.22.44h0Z" transform="translate(-435.05 -472.9)"/><ellipse class="i" cx="278.03" cy="88.93" rx="55.67" ry="25.78"/><path class="s" d="M745.07,526.61a83.11,83.11,0,0,0-62.35,0H662V552.4h0c1.36,16.05,24.07,28.82,51.89,28.82,28.7,0,52-13.58,52-30.34V526.61H745.07Z" transform="translate(-435.05 -472.9)"/><path class="t" d="M713.9,581.22c28.7,0,52-13.58,52-30.34V526.61h-0.47L763.5,549.4s-1.31,26.73-45,28c-35,1-51.35-17.35-56.49-24.72C663.66,568.62,686.25,581.22,713.9,581.22Z" transform="translate(-435.05 -472.9)"/><ellipse class="u" cx="278.85" cy="53.71" rx="51.96" ry="30.34"/><ellipse class="v" cx="278.85" cy="50.28" rx="47.62" ry="27.81"/><ellipse class="s" cx="278.85" cy="44.99" rx="45.89" ry="27.68"/><g class="w"><rect class="x" x="678.12" y="497.23" width="3.89" height="69.18" transform="translate(-562 -247.73) rotate(-17.22)"/><rect class="x" x="686.63" y="494.59" width="3.89" height="69.18" transform="translate(-560.84 -245.33) rotate(-17.22)"/><rect class="x" x="695.14" y="491.96" width="3.89" height="69.18" transform="translate(-559.68 -242.93) rotate(-17.22)"/><rect class="x" x="703.64" y="489.32" width="3.89" height="69.18" transform="translate(-558.52 -240.53) rotate(-17.22)"/><rect class="x" x="712.15" y="486.69" width="3.89" height="69.18" transform="translate(-557.36 -238.13) rotate(-17.22)"/><rect class="x" x="720.65" y="484.05" width="3.89" height="69.18" transform="translate(-556.19 -235.73) rotate(-17.22)"/><rect class="x" x="729.16" y="481.41" width="3.89" height="69.18" transform="translate(-555.03 -233.33) rotate(-17.22)"/><rect class="x" x="737.66" y="478.77" width="3.89" height="69.18" transform="translate(-553.87 -230.93) rotate(-17.22)"/><rect class="x" x="744.51" y="471.93" width="3.89" height="69.18" transform="translate(-551.54 -229.21) rotate(-17.22)"/></g><path class="y" d="M713.9,509.92c19.59,0,36.3,7.4,42.89,17.83a18.33,18.33,0,0,0,3-9.84c0-15.29-20.54-27.68-45.89-27.68S668,502.62,668,517.91a18.33,18.33,0,0,0,3,9.86C677.59,517.33,694.31,509.92,713.9,509.92Z" transform="translate(-435.05 -472.9)"/><path class="z" d="M713.9,546.94c-12.5,0-24.28-2.95-33.16-8.31-9.09-5.48-14.1-12.85-14.1-20.75s5-15.26,14.1-20.75c8.88-5.36,20.65-8.31,33.16-8.31s24.28,2.95,33.16,8.31c9.09,5.48,14.1,12.85,14.1,20.75s-5,15.26-14.1,20.75C738.17,544,726.4,546.94,713.9,546.94Zm0-55.37c-24.55,0-44.54,11.81-44.54,26.34s20,26.32,44.52,26.32,44.52-11.81,44.52-26.32S738.44,491.57,713.9,491.57Z" transform="translate(-435.05 -472.9)"/><path class="y" d="M699,560.35s-25.34-5.48-35.85-21.24v5S678.91,561.27,699,560.35Z" transform="translate(-435.05 -472.9)"/><path class="y" d="M699,568.11s-25.34-5.48-35.84-21.24v5S678.91,569,699,568.11Z" transform="translate(-435.05 -472.9)"/><path class="y" d="M765.87,538.33c-6.47,11.52-23.74,16.77-23.74,16.77,12.55-.47,21.84-10.73,23.74-12.94v-3.83Z" transform="translate(-435.05 -472.9)"/><path class="y" d="M765.87,544.5c-6.78,11-23.27,16-23.27,16,11.75-.43,20.66-9.46,23.27-12.43V544.5Z" transform="translate(-435.05 -472.9)"/><path class="aa" d="M749.82,512.68a18.2,18.2,0,0,1-2.89,9.87c-3.39,4.95-9.66,7.23-15.63,7.49-6.27.28-12.82-1.46-17.48-5.65s-7.17-11-5.37-17a19.3,19.3,0,0,1,5-7.87A25.14,25.14,0,0,1,728,492.07a19.7,19.7,0,0,1,15.48,4.66C747.85,500.7,750,506.79,749.82,512.68Z" transform="translate(-435.05 -472.9)"/><path class="ab" d="M727.06,491.09a4.18,4.18,0,0,1,2.89-1.72h0a5.63,5.63,0,0,0,4,2.85,18.82,18.82,0,0,1,9.54,4.51c4.37,4,6.49,10.07,6.34,16a21.9,21.9,0,0,1-.45,3.95c-1.9.17-3.8-.68-5.58-1.52-6.69-3.19-13.64-7-17.15-13.52-1.47-2.74-2.37-5.74-4.19-8.12q0.95-.37,1.9-0.66A5.65,5.65,0,0,0,727.06,491.09Z" transform="translate(-435.05 -472.9)"/><path class="ac" d="M708.45,507.37a15.25,15.25,0,0,1,.88-2.25,21.21,21.21,0,0,1,4.09-5.62,27.25,27.25,0,0,1,4.64-3.76c-1.69,6-2.16,12.47.69,17.89,2.65,5.06,7.84,8.4,13.32,10a46.68,46.68,0,0,0,12.5,1.57c-3.53,3.12-8.49,4.61-13.27,4.82a28.21,28.21,0,0,1-7.6-.68,22.32,22.32,0,0,1-9.88-5C709.14,520.2,706.65,513.39,708.45,507.37Z" transform="translate(-435.05 -472.9)"/><path class="ad" d="M739.64,505.77c1.07,0.15,1.9-1,2-2.09,0.22-2.17-1.35-4.15-3.16-5.38s-3.91-2-5.7-3.26-3.14-3.43-2.66-5.56c-1.21,1.42-1,3.65-.06,5.26a15.66,15.66,0,0,0,3.94,4,11,11,0,0,1,3.6,4.22C738.07,504.06,738.42,505.6,739.64,505.77Z" transform="translate(-435.05 -472.9)"/><path class="ad" d="M725.59,508.15c1.12-.06,1.63-1.42,1.82-2.51a47.7,47.7,0,0,0,.61-11.56,8.13,8.13,0,0,1,.08-2.65,2.48,2.48,0,0,1,1.7-1.86,5.14,5.14,0,0,0-2.44,4.11c-0.21,1.65,0,3.32-.2,5a10.22,10.22,0,0,1-1.59,4.35,8.26,8.26,0,0,0-1.55,2.82C723.83,506.88,724.51,508.2,725.59,508.15Z" transform="translate(-435.05 -472.9)"/><path class="ad" d="M732.64,502.44l-2.31-5.34a13.77,13.77,0,0,1-1.59-6.12,4.85,4.85,0,0,0,.19,3.83,21.47,21.47,0,0,1,1.42,3.68,13.42,13.42,0,0,1-.1,4,8.51,8.51,0,0,0,.25,4,3.9,3.9,0,0,0,.9,1.37,1.47,1.47,0,0,0,2.49-1.12A12.74,12.74,0,0,0,732.64,502.44Z" transform="translate(-435.05 -472.9)"/><path class="ad" d="M737.83,495.07a14.5,14.5,0,0,1-6.27-2.65c1.26,1.86,3.55,2.65,5.7,3.32l2.94,0.95a0.59,0.59,0,0,0,.38-1.1h0A14.38,14.38,0,0,0,737.83,495.07Z" transform="translate(-435.05 -472.9)"/><path class="ad" d="M719,496.06a2,2,0,0,0-1,.85,1.26,1.26,0,0,0,.74,1.57,2,2,0,0,0,1.85-.29,6,6,0,0,0,1.34-1.42c1.46-1.9,3-3.92,5.22-4.87Z" transform="translate(-435.05 -472.9)"/><path class="ad" d="M722.81,502c1.85-1.13,2.42-3.51,2.8-5.65s0.9-4.52,2.71-5.7c-1.75.67-2.44,2.74-2.9,4.55s-1.12,3.88-2.85,4.59c-0.43.18-.9,0.25-1.33,0.45a1.32,1.32,0,0,0-.84,1,1.13,1.13,0,0,0,.95,1.07A2.11,2.11,0,0,0,722.81,502Z" transform="translate(-435.05 -472.9)"/><path class="ae" d="M741.26,499.72a1.47,1.47,0,0,1-.73-1.23,1.08,1.08,0,0,1,.91-0.73,3.12,3.12,0,0,1,2.5.72,7,7,0,0,1,1.64,2.11,19,19,0,0,1,2.37,10c0,0.88-.3,2-1.15,2.17a1.56,1.56,0,0,1-1.7-1.23,6.24,6.24,0,0,1,0-2.3A11.3,11.3,0,0,0,741.26,499.72Z" transform="translate(-435.05 -472.9)"/><path class="af" d="M713.67,522.42A25.35,25.35,0,0,0,725,528.27a31.58,31.58,0,0,0,8.72.8,29,29,0,0,0,6.17-.95,24.53,24.53,0,0,1-8.6,1.9,28.21,28.21,0,0,1-7.6-.68,22.32,22.32,0,0,1-9.88-5A18.1,18.1,0,0,1,708.08,514,21.54,21.54,0,0,0,713.67,522.42Z" transform="translate(-435.05 -472.9)"/><path class="ag" d="M742.75,523.22l3.21-4.47a4.34,4.34,0,0,0,1.15-3,1.4,1.4,0,0,0-.12-0.4,1.23,1.23,0,0,0-2.3.44c-0.31,2.41-2.44,4.42-4.51,5.88s-4.5,3-5.51,5.34a0.82,0.82,0,0,0,.44,1.07l0.2,0.06a5.66,5.66,0,0,0,4-1.07A15.47,15.47,0,0,0,742.75,523.22Z" transform="translate(-435.05 -472.9)"/><path class="ah" d="M739.64,496.06l-0.86-.58,1.19,0.12a0.53,0.53,0,0,1,.55.36,0.35,0.35,0,0,1-.38.31A1,1,0,0,1,739.64,496.06Z" transform="translate(-435.05 -472.9)"/><path class="ah" d="M718.86,497.15a0.77,0.77,0,0,0-.19.38,0.63,0.63,0,0,0,.67.58,1.62,1.62,0,0,0,1.25-.69,6.12,6.12,0,0,0,.69-1.31,3.36,3.36,0,0,1,.81-1.23A7,7,0,0,0,718.86,497.15Z" transform="translate(-435.05 -472.9)"/><path class="ai" d="M696.38,496.22a1.9,1.9,0,0,0-.27,2.21,11.31,11.31,0,0,0,11.7,7.07,11.72,11.72,0,0,0,9.81-9.63c0.12-.8,1.49-1.2,1.08-1.9s-2.48-1.58-3.24-1.81c-3.55-1.11-7.35.95-11.05,0.62a22.85,22.85,0,0,0-2.61-.27,2.79,2.79,0,0,0-2.29,1.06c-0.47.72-.5,1.78-1.25,2.19C697.68,496.06,696.9,495.85,696.38,496.22Z" transform="translate(-435.05 -472.9)"/><path class="aj" d="M718.52,498q-2.27,4.25-4.82,8.33c4.75,3.11,9.69,6.39,12.53,11.31s2.85,12-1.52,15.59-10.59,2.47-16.18,2.47c-4.72,0-9.43.91-14.14,0.59s-9.7-2.19-12.06-6.28c-2.74-4.75-1-11.06,2.63-15.16s8.77-6.5,13.77-8.79a5.13,5.13,0,0,0-1.81-3.36,7.38,7.38,0,0,1-2.23-3.16c-0.3-1.26.55-2.9,1.86-2.82,1,0.07,1.93,1.14,2.93.85,0.84-.25,1.12-1.28,1.71-1.93a4.52,4.52,0,0,1,2.93-1.06l11.55-1.23c1.14-.12,2.47-0.17,3.22.7C719.79,495.11,719.18,496.75,718.52,498Z" transform="translate(-435.05 -472.9)"/><path class="ak" d="M707.61,506.8a0.51,0.51,0,0,0,.14-0.38c0.09-1.23-.19-2.46-0.18-3.68a3.88,3.88,0,0,1,1.4-3.26,6.85,6.85,0,0,1,2.76-.73,4.22,4.22,0,0,0,1.51-.53,0.62,0.62,0,0,0-.23-1.13,7.52,7.52,0,0,0-2.93.1,5.87,5.87,0,0,0-3.13,9.36A0.52,0.52,0,0,0,707.61,506.8Z" transform="translate(-435.05 -472.9)"/><path class="al" d="M697,499.31a0.59,0.59,0,0,1,.8,0,6.58,6.58,0,0,1,.62.63,1.62,1.62,0,0,0,2.41-.43L696.9,498a1.42,1.42,0,0,0-1-.12,1.16,1.16,0,0,0-.45,1.42,2.76,2.76,0,0,0,2.37,1.94,0.87,0.87,0,0,0-.47-0.95A0.79,0.79,0,0,1,697,499.31Z" transform="translate(-435.05 -472.9)"/><path class="ak" d="M724.21,517.35a11.1,11.1,0,0,1,2.1,4.83,5.52,5.52,0,0,1-1.6,4.84c0.58-3.57.29-7.5-1.9-10.38-2.61-3.43-7.56-5-9-9C717.61,510.49,721.49,513.44,724.21,517.35Z" transform="translate(-435.05 -472.9)"/><path class="ak" d="M721.92,531.1a3.08,3.08,0,0,1-3.83-.69,8.65,8.65,0,0,1-1.8-3.8l-4.59-15.78c2.47,4,7.79,5.5,10.05,9.58a14.7,14.7,0,0,1,1.4,6.87C723.18,528.67,723.06,530.29,721.92,531.1Z" transform="translate(-435.05 -472.9)"/><path class="ak" d="M708.34,525.8c-0.55-5-2.64-10-2.08-15a25,25,0,0,0-5.61,10.84,12.25,12.25,0,0,0-.38,5,5.7,5.7,0,0,0,2.66,4.08,3.78,3.78,0,0,0,4.6-.66A5.65,5.65,0,0,0,708.34,525.8Z" transform="translate(-435.05 -472.9)"/><path class="ak" d="M689.7,527.88a5.64,5.64,0,0,0,2.85,3.32,2.94,2.94,0,0,0,3.82-1.28,4.75,4.75,0,0,0,0-2.49,28.55,28.55,0,0,1-.18-9.13,14.75,14.75,0,0,1,4-8.11c-3.68,1.95-7.53,4.06-9.66,7.64A11.62,11.62,0,0,0,689.7,527.88Z" transform="translate(-435.05 -472.9)"/><path class="al" d="M686,517.27c1.47-2.51,4-4.16,6.48-5.7l6-3.83c-4.27,2.85-9.94,3.75-13.14,7.76a12.13,12.13,0,0,0-2.37,5.56c-0.42,2.49-.14,5.29,1.61,7.12C684.36,524.45,684.13,520.47,686,517.27Z" transform="translate(-435.05 -472.9)"/><path class="am" d="M692.15,535.17a10.23,10.23,0,0,0,4.49-1.05c1.16-.61,2.31-1.53,3.61-1.38,1.64,0.2,2.65,2,4.27,2.41s3-.74,4.63-0.95a14.51,14.51,0,0,1,3.38.3,19.23,19.23,0,0,0,4.27-.19l7.66-.92c-4.27,3.32-10.45,2.28-15.93,2.28H707.4c-0.47,0-.95,0-1.42.05-3.87.21-7.73,0.77-11.58,0.51a18.89,18.89,0,0,1-7.38-2A13.77,13.77,0,0,0,692.15,535.17Z" transform="translate(-435.05 -472.9)"/><path class="ak" d="M708.77,512.27a4.54,4.54,0,0,0,.37,1.66,1.59,1.59,0,0,0,1.32.95,13,13,0,0,1,.87-12.17,7.07,7.07,0,0,0-2.53,4.39A18.52,18.52,0,0,0,708.77,512.27Z" transform="translate(-435.05 -472.9)"/><path class="ak" d="M700.51,513.06a21.63,21.63,0,0,0,2.37-7,7.08,7.08,0,0,1-2.08,7.2A0.2,0.2,0,0,1,700.51,513.06Z" transform="translate(-435.05 -472.9)"/><path class="ak" d="M721.92,531.1a3.08,3.08,0,0,1-3.83-.69,8.65,8.65,0,0,1-1.8-3.8l-1.82-6.26a13.71,13.71,0,0,0,2.62,3.45,6,6,0,0,0,5.62,1.57l0.34-.12c0.06,0.67.09,1.35,0.1,2C723.18,528.67,723.06,530.29,721.92,531.1Z" transform="translate(-435.05 -472.9)"/><path class="ak" d="M707.53,530.06a3.78,3.78,0,0,1-4.6.66,5.7,5.7,0,0,1-2.66-4.08,10.11,10.11,0,0,1,0-3.25c0,0.2.08,0.41,0.14,0.61a5,5,0,0,0,2,3,3,3,0,0,0,3.45-.09c1.42-1.17,1.12-3.39,1.74-5.11a39.78,39.78,0,0,1,.69,4A5.63,5.63,0,0,1,707.53,530.06Z" transform="translate(-435.05 -472.9)"/><path class="ak" d="M696.36,529.93a2.93,2.93,0,0,1-3.82,1.28,5.85,5.85,0,0,1-2.85-3.32,11.06,11.06,0,0,1-.56-1.9,5.28,5.28,0,0,0,6.82-3.05v0a37.51,37.51,0,0,0,.47,4.53A5.06,5.06,0,0,1,696.36,529.93Z" transform="translate(-435.05 -472.9)"/><path class="an" d="M580.28,546.06l-0.2-4.09h-2.71c-3.38-2.35-9.47-3.91-16.41-3.91s-13,1.57-16.41,3.91h-2.77v3.68a3.18,3.18,0,0,0,0,1.18V547h0c0.86,4.18,9.11,7.46,19.16,7.46,10.62,0,19.24-3.66,19.24-8.18v-0.15Z" transform="translate(-435.05 -472.9)"/><ellipse class="ao" cx="125.93" cy="64.98" rx="30.68" ry="11.21"/><path class="ap" d="M561,549.62c-17.5,0-31.22-5.16-31.22-11.74s13.71-11.74,31.22-11.74,31.22,5.16,31.22,11.74S578.49,549.62,561,549.62Zm0-22.41c-8.13,0-15.78,1.15-21.51,3.25-5.49,2-8.64,4.71-8.64,7.42s3.15,5.42,8.64,7.42c5.74,2.09,13.38,3.25,21.51,3.25s15.78-1.15,21.51-3.25c5.49-2,8.64-4.71,8.64-7.42s-3.15-5.42-8.64-7.42c-5.74-2.1-13.38-3.24-21.51-3.24h0Z" transform="translate(-435.05 -472.9)"/><ellipse class="aq" cx="125.58" cy="65.25" rx="24.46" ry="8.45"/><path class="ar" d="M574.48,533.25c2.58,0.73,5.53,2.25,5.41,5.09a4.18,4.18,0,0,1-1.42,2.87c-3.78,3.43-11.56,3.4-16.33,3.8-2,.16-4,0.19-6,0.18-0.51,0-3.15,0-3.54-.32a0.62,0.62,0,0,1-.28-0.73c3.68-1,8.13-.82,12-1.16a3.52,3.52,0,0,0,2.48-.89,1.38,1.38,0,0,0,.35-1.16c-0.23-1.22-1.83-.95-2.27-1.83-0.66-1.32,2.18-2.51.55-4.19a2.94,2.94,0,0,0-1.77-.85,86.63,86.63,0,0,0-9.25-.61,0.4,0.4,0,0,1-.08-0.79A42,42,0,0,1,574.48,533.25Z" transform="translate(-435.05 -472.9)"/><path class="an" d="M613.49,575.86l-0.19-4.51h-3c-3.73-2.59-10.45-4.32-18.11-4.32s-14.37,1.73-18.11,4.32H571v4.06a3.5,3.5,0,0,0,0,1.3v0.13h0c0.95,4.61,10,8.23,21.14,8.23,11.72,0,21.22-4,21.22-9v-0.16Z" transform="translate(-435.05 -472.9)"/><ellipse class="ao" cx="157.15" cy="93.94" rx="33.85" ry="12.36"/><path class="ap" d="M592.2,579.79c-19.31,0-34.44-5.7-34.44-12.95s15.13-12.95,34.44-12.95,34.42,5.68,34.42,12.93S611.51,579.79,592.2,579.79Zm0-24.73c-9,0-17.4,1.27-23.74,3.59-6.05,2.21-9.53,5.2-9.53,8.19s3.47,6,9.53,8.19c6.33,2.31,14.76,3.59,23.74,3.59s17.4-1.27,23.74-3.59c6.05-2.21,9.53-5.2,9.53-8.19s-3.47-6-9.53-8.19C609.6,556.34,601.17,555.07,592.2,555.07Z" transform="translate(-435.05 -472.9)"/><ellipse class="as" cx="156.76" cy="94.23" rx="26.98" ry="9.32"/><path class="at" d="M607.09,561.73c2.85,0.81,6.1,2.48,6,5.61a4.61,4.61,0,0,1-1.58,3.17c-4.16,3.8-12.75,3.76-18,4.17-2.22.18-4.44,0.21-6.65,0.19-0.56,0-3.48,0-3.9-.35a0.68,0.68,0,0,1-.31-0.81c4.06-1.12,9-.9,13.21-1.29a3.89,3.89,0,0,0,2.74-1,1.52,1.52,0,0,0,.38-1.28c-0.25-1.34-2-1-2.51-2-0.72-1.46,2.4-2.76.6-4.63a3.25,3.25,0,0,0-2-.95,95.56,95.56,0,0,0-10.2-.67,0.44,0.44,0,0,1-.09-0.87A46.37,46.37,0,0,1,607.09,561.73Z" transform="translate(-435.05 -472.9)"/></svg>