<svg id="_800x800" data-name="800x800" xmlns="http://www.w3.org/2000/svg" viewBox="0 0 150.96 385.3"><defs><style>.cls-1{fill:#212123;}.cls-2{fill:#cca349;}.cls-3{fill:#e02d27;}.cls-4{fill:#c22727;}.cls-5{fill:#1c1c1e;}.cls-6{fill:#231f20;stroke:#cca349;stroke-miterlimit:10;stroke-width:2px;}</style></defs><title>82857-OH8F1H-150no</title><rect class="cls-1" x="73.72" y="266.12" width="3.36" height="87.48"/><path class="cls-2" d="M-730.7,272h-55.43l-4.19,26.64a3.39,3.39,0,0,0,1.08,1.12c1.26-3.42,2.85-9.83,4.34-13.22-0.68,3.68-2.28,10.57-3,14.25a19.63,19.63,0,0,0,1.92,1.11c0.93-3.28,4.5-13.59,4.5-15.54,0.31,2.1-2.44,13.27-2.84,16.31,0.57,0.24.89,0.19,1.57,0.43,1.05-2.45,4.22-16.37,4.22-16.61,0,4.93-1.8,15-2.26,17.45a23.26,23.26,0,0,0,2.59.7c0.77-5,1.1-13.86,3.25-17.84,0,5.48-.75,13.29-0.77,18.37l1.17,0.21c0.48-2.63,1.57-14.14,1.63-14.61-0.07.46,0.48,12.5,0.32,14.92q1.66,0.24,3.52.42c0.63-7.51.29-14.8,1.08-22.3,1.55,7.4.47,16.43,1.23,22.5l2.12,0.13c1.53-4.88.65-13.46,2.23-19.95,0,6.27-.13,14.53,0,20,1,0,2.1.06,3.22,0.06,0.88-6,.63-14.94.07-20.23,2.3,4.7,2.32,14.28,3.57,20.2,1.43,0,1.5-.09,2.79-0.17,0.45-6.74-.79-14.08.75-21.42,0,6.26,1.18,15.11,1.29,21.37,1-.07,2-0.14,2.9-0.23,0.09-4.63-1.42-15.78-.68-20.85,2.91,5,2.23,15.9,3.37,20.54l1.41-.2a51.56,51.56,0,0,1,.85-20.63,153.42,153.42,0,0,0,1.75,20.18l1-.21c1-6.75-.76-16.94-0.76-25.5,1.79,8.52,2.88,19.55,3.54,24.83q1.13-.31,2.12-0.64c0.64-5-1-10.71-.54-16.82,1.73,6.23,3.61,10.28,4.63,15.16l0.44-.23c0.54-5.38,0-13.64,0-19.55,0.94,6.37,1.87,11.58,2.81,17.77a6.86,6.86,0,0,0,1.35-1.34Z" transform="translate(833.82 -5.93)"/><path class="cls-2" d="M-756.87,356.64H-760l-3.67,11.31s-0.11.41-.27,1.51c1.34-4,2.68-8.15,3.18-9.53-0.44,1.47-1.83,6-3.25,10.71a4.25,4.25,0,0,0-.18,1c-0.07,1.24-.14,4-0.13,4.48,1.42-5.26,4.1-16.12,4.12-16.21-0.4,2.07-2.6,11.78-4,18.08a4.14,4.14,0,0,0-.09,1.37c0.17,1.65.66,4.67,0.73,4.94,1.51-9.09,3.59-22.34,3.63-22.58,0,0.23-1.8,13.82-3.07,23.09a4.36,4.36,0,0,0,.27,2.21c0.16,0.41.34,0.8,0.53,1.17,2.15-20.27,2.68-26.18,3-29.12-0.09,2.76-.86,10.44-2.13,27.9a4.29,4.29,0,0,0,2.16,4.09,1.47,1.47,0,0,0,.43.18c0.31-20.39.28-29.05,0.23-31.36,0.23,2,.37,11,1.16,31.17a6.28,6.28,0,0,0,1.34-1.2,4.41,4.41,0,0,0,1.16-3.43c-1.49-14.82-2.67-25-2.78-26.9,0.48,1.95,1.61,12.28,3.69,26.94,0.09-.24.54-2.09,0.8-3.22a4.41,4.41,0,0,0,.05-1.72c-2.36-14.36-3.76-21.07-4.17-23.54,0.58,2.5,2.23,10.43,4.63,21.81,0.05-.59,0-4.79,0-6.3a4.37,4.37,0,0,0-.14-1.05c-1.82-7.13-3.17-11.95-3.66-13.8,0.64,2.09,1.51,4.87,3.46,11.17-0.16-1.14-.32-1.84-0.32-1.84Z" transform="translate(833.82 -5.93)"/><rect class="cls-3" y="18.7" width="150.8" height="239.01" rx="55.96" ry="55.96"/><path class="cls-4" d="M-830.84,225.23c116.57,22.71,133.12-122.17,135.11-180.35a55.73,55.73,0,0,1,12.88,35.71V207.68a55.9,55.9,0,0,1-25,46.59q-3.52,2-7.12,4a55.73,55.73,0,0,1-23.88,5.35H-777.7A56,56,0,0,1-830.84,225.23Z" transform="translate(833.82 -5.93)"/><path class="cls-2" d="M-817.83,41.44c-1.12,1.14-2.2,2.32-3.21,3.56H-695.8c-1-1.23-2.1-2.42-3.21-3.56H-817.83Z" transform="translate(833.82 -5.93)"/><rect class="cls-2" y="75.88" width="150.8" height="3.56"/><rect class="cls-2" y="116.25" width="150.8" height="3.56"/><rect class="cls-2" y="156.61" width="150.8" height="3.56"/><rect class="cls-2" y="196.98" width="150.8" height="3.56"/><path class="cls-2" d="M-817.83,246.84H-699c1.12-1.14,2.2-2.32,3.21-3.56H-821C-820,244.51-818.95,245.69-817.83,246.84Z" transform="translate(833.82 -5.93)"/><path class="cls-1" d="M-730,5.93h-56.8a5.28,5.28,0,0,0-5.28,5.28V26.52h67.36V11.21A5.28,5.28,0,0,0-730,5.93Z" transform="translate(833.82 -5.93)"/><path class="cls-1" d="M-786.82,282.34H-730a5.28,5.28,0,0,0,5.28-5.28V261.75H-792.1v15.32A5.28,5.28,0,0,0-786.82,282.34Z" transform="translate(833.82 -5.93)"/><path class="cls-5" d="M-784.75,6s0,0,0-.06h-2.08a5.28,5.28,0,0,0-5.28,5.28V26.52h67.36V21.31Z" transform="translate(833.82 -5.93)"/><path class="cls-5" d="M-784.75,261.75h-7.35v15.32a5.28,5.28,0,0,0,5.28,5.28H-730a5.28,5.28,0,0,0,5.27-5.22Z" transform="translate(833.82 -5.93)"/><line class="cls-1" x1="72.62" y1="1.16" x2="78.19" y2="1.16"/><circle class="cls-3" cx="75.4" cy="336.33" r="7.38"/><path class="cls-4" d="M-756.74,345.56a7.38,7.38,0,0,1-7.38-7.38c0-.22,0-0.43.07-0.65a7.31,7.31,0,0,0-1.75,4.71,7.38,7.38,0,0,0,7.38,7.38,7.35,7.35,0,0,0,7.31-6.73A7.33,7.33,0,0,1-756.74,345.56Z" transform="translate(833.82 -5.93)"/><rect class="cls-1" x="72.74" y="346.97" width="5.32" height="6.62" rx="1.22" ry="1.22"/><path class="cls-6" d="M-737.72,78.71c5.91-.53,13.29.2,17.08,5.41,3.59,4.92.88,10.7-3.48,14-10.38,7.92-25.33,3.58-36.81,8.9-10,4.65-17.06,14.65-19.09,25.39-2.21,11.71,1.88,23.86,9.29,33,4,4.88,8.85,8.24,13.93,11.86,4.55,3.23,9.53,8.32,7.94,14.48-2.79,10.79-16.91,4.67-22.65.63-9-6.36-13.29-17.19-15.95-27.55-3-11.86-5.26-25-4.77-37.24a46.31,46.31,0,0,1,17.74-35.11C-764.08,84.32-750.79,79.89-737.72,78.71Z" transform="translate(833.82 -5.93)"/><path class="cls-6" d="M-766.15,133.64c6.72-3.25,12.19-10.25,20-10.92a9.33,9.33,0,0,1,8.95,4.17c2,3.38.36,6.81-2.15,9.35-5.74,5.83-14.47,8.2-22.44,8.18-3.27,0-9.52,0-11.4-3.38C-775.6,136.63-768.77,134.91-766.15,133.64Z" transform="translate(833.82 -5.93)"/></svg>