<svg id="Layer_1" data-name="Layer 1" xmlns="http://www.w3.org/2000/svg" xmlns:xlink="http://www.w3.org/1999/xlink" viewBox="0 0 1921.72 1080"><defs><style>.cls-1{fill:url(#linear-gradient);}.cls-2{fill:url(#linear-gradient-2);}.cls-3{fill:url(#linear-gradient-3);}.cls-4{fill:url(#linear-gradient-4);}.cls-5{fill:url(#linear-gradient-5);}.cls-6{fill:url(#linear-gradient-6);}.cls-7{fill:url(#linear-gradient-7);}.cls-8{fill:url(#linear-gradient-8);}</style><linearGradient id="linear-gradient" x1="960.66" x2="960.66" y2="1080" gradientUnits="userSpaceOnUse"><stop offset="0" stop-color="#a2e1a7"/><stop offset="0.5" stop-color="#fff"/><stop offset="1" stop-color="#fff"/></linearGradient><linearGradient id="linear-gradient-2" x1="960.11" y1="796.53" x2="960.11" y2="37.58" gradientUnits="userSpaceOnUse"><stop offset="0" stop-color="#068135"/><stop offset="1" stop-color="#72ac5f"/></linearGradient><linearGradient id="linear-gradient-3" x1="1237.86" y1="790.08" x2="1237.86" y2="53.19" gradientUnits="userSpaceOnUse"><stop offset="0" stop-color="#a6ce39"/><stop offset="1" stop-color="#7fce48"/></linearGradient><linearGradient id="linear-gradient-4" x1="1793.11" y1="779.15" x2="1793.11" y2="40.82" gradientUnits="userSpaceOnUse"><stop offset="0" stop-color="#7aa041"/><stop offset="1" stop-color="#92c957"/></linearGradient><linearGradient id="linear-gradient-5" x1="964.11" y1="773.4" x2="964.11" y2="156.41" gradientUnits="userSpaceOnUse"><stop offset="0" stop-color="#a6ac39"/><stop offset="1" stop-color="#7fd348"/></linearGradient><linearGradient id="linear-gradient-6" x1="1063.2" y1="759.65" x2="1063.2" y2="143.63" gradientUnits="userSpaceOnUse"><stop offset="0" stop-color="#6d9c43"/><stop offset="1" stop-color="#52b05d"/></linearGradient><linearGradient id="linear-gradient-7" x1="348.37" y1="766.2" x2="348.37" y2="156.95" gradientUnits="userSpaceOnUse"><stop offset="0" stop-color="#517d35"/><stop offset="1" stop-color="#52b05d"/></linearGradient><linearGradient id="linear-gradient-8" x1="959.78" y1="619.51" x2="959.78" y2="1080" gradientUnits="userSpaceOnUse"><stop offset="0" stop-color="#9aaf08"/><stop offset="0.66" stop-color="#1c752f"/><stop offset="0.75" stop-color="#167231"/><stop offset="0.99" stop-color="#006838"/></linearGradient></defs><title>Mountains</title><rect class="cls-1" x="0.66" width="1920" height="1080"/><path class="cls-2" d="M1902.83,311.49s-60.27-58.47-82.19-69.1-11,0-34.7,1.77-51-164.7-62-171.79c-9.24-6-13.22-17.7-22.68-24a70.59,70.59,0,0,0-27.76-10.58c-11.29-1.46-23.83,6-33.52,10.92l-47,24.07c-10.36,5.3-21,10.7-32.57,12-11.35,1.26-22.82-1.53-34.21-.75-33.56,2.32-59.23,34.53-92.76,37.26-6.45.52-13-.08-19.37,1.1-10.56,2-19.55,8.61-28.12,15.08L1354,161.5c-4.26,3.21-8.91,8.11-14,9.48-4.28,1.14-10,.39-14.42.42-23.18.12-46.34-1.48-69.53-1.48-34.7,0-133.28-12.44-178.94-21.3s-49.34-29.24-64-39.87-69.23-46-87.49-51.36-41.84,12.72-60.11,14.49S845.76,80,822,87.06s-24,17.21-36.83,22.53-9.13,10.63-38.35,7.09-31-19.49-51.14-7.09S679.26,129.07,661,127.3,626.3,106,606.21,113.13s-9.13,7.09-40.18,15.95-40.18,24.81-69.4,15.95-29.22-12.4-53-23-25.57-17.72-53-1.77-27.39,21.26-54.79,10.63-36.53-23-95-7.09S155.09,161,138.65,157.43s-21.91-21.26-34.7-26.58-14.61-10.63-27.4-5.32S71.07,139.71,51,146.79s-51,6.34-51,6.34l-0.67,643.4H1914l6.87-483.59Z" transform="translate(0.66 0)"/><path class="cls-3" d="M915.3,56.55s-13.95,6.51-5.63,25.78,13.59,17.94,26.71,38.53c16.35,25.65-17.4,13.37-14,32.84s30,44.44,35,49.48,47.87,61.22-.88,123.08c-6.13,7.78,295.14,448.47,295.18,450.82,1.66,104.5,317-455.67,317-455.67s-82.88-92.12-116.63-109.94c-12.7-6.7-74.39,6.83-88.3-.41a210.15,210.15,0,0,1-58.2-44.81c-7.07-7.63-18.41-9-28.66-10.24-17-2.06-34.37.3-51.32-2.87-13.66-2.56-26.49-8.68-40.22-10.83-14.68-2.3-29.66,0-44.51-.44-26.24-.83-51.4-10.38-75.29-21.28-12.62-5.76-25.17-12-38.6-15.72-5.49-1.52-11.9-1.19-17.07-2.82-4.86-1.53-11-4.12-14.72-7.55-4.52-4.13-8.09-9.16-12.54-13.37a88.84,88.84,0,0,0-12.51-9.28S928.16,43.69,915.3,56.55Z" transform="translate(0.66 0)"/><path class="cls-4" d="M1920,776v-5.5l0.37-234.91,0.27-169.81c0-25.86.13-51.73,0.12-77.59,0-36.53-12.67-34.95-35.7-60.24-16-17.6-24.18-36.08-44.07-50.09-38.87-27.37-60.23-71.62-94.58-103.54C1731,60,1706.92,41.47,1684.73,40.83c-22.49-.65-19.3,18.85-18.9,40.34,0.66,34.83-.37,68.14,10.26,101.54,7.14,22.45,15.8,44.47,25,66.16l1,2.45c-12.69,18.89-19.74,48.9-12.93,71.48,5.2,17.22,16.12,28,18.93,46.5,5.7,37.42-15.45,71.33,6.56,105.74,9.79,15.31,28.77,24.28,34.75,42.11,5.87,17.51-1.79,37.67-.55,55.6,2.46,35.37,30.79,86,54.94,112.46,16.66,18.22,22.39,18.23,19.17,41.68-2.88,21-7.17,29.46,12.05,42.64C1859.55,786.33,1891.25,776,1920,776Z" transform="translate(0.66 0)"/><path class="cls-5" d="M18.56,773.4l-5-22.68c0.64,7-6.43-423.56-6.43-423.56s54.92,4.14,73.33-4.81,12.88,5.12,36.81-2-2.53,7.43,30.6,30.7,65.87-6.27,135.81-9.85c29.87-1.53,37.19-21.27,63.28-23,35-2.3,99.42-28.93,117.35-35.08,31.29-10.74,44.17-60.35,81-53.19s35.8-42.31,68.92-51.26c21.37-5.78,41.91-10.55,64.21-12.65,22-2.07,28.29,1,46.79,11.86l53.64,31.33c6.05,3.54,12.18,7.11,19,9.24,9.19,2.86,19.14,3,28.84,3.83,14.36,1.26,28.44,4.19,42.47,7.15,8.31,1.75,16.66,3.54,24.49,6.53,9.88,3.77,18.69,9.37,28.06,14,19.41,9.63,40.89,15.12,61.78,21.64,10.68,3.33,21.36,6.77,31.5,11.26,9.51,4.21,18.34,12.87,27.73,16.25,14.68,5.29,23.3-7.32,33.43-15.34,13.92-11,29.71-17.53,48.86-16.31,33.57,2.15,42.19-70,95.19-68.45,56.52,1.66,117.72-43.44,145.33-32.7s45.94,8,82.75-6.33c21.69-6.61,31.15-4.11,47.81,8,13.82,10,23.21,26.15,37.43,36.76a208.47,208.47,0,0,0,48,26.7c15.75,6.22,33,11,44.84,22.1,5.51,5.17,9.49,11.43,14.13,17.23a109.58,109.58,0,0,0,22.47,21c6.3,4.45,18.94,8.27,23.84,14.18a10.34,10.34,0,0,1,1,1.38c12.43,21.27,22.66,43.64,24.94,67.68,2.26,23.76,30,34.5,43,54,11.41,17.12,21.83,34.75,33.52,51.81,16.94,24.74,27.31,54,35.26,81.94,6.09,21.37-.72,43.2,5.54,64.4,5.57,18.86,17.29,36.64,29.79,52.6,15.06,19.25,34.2,34.88,49.77,52.92,7,8.15,12,20.37,11.26,30.32" transform="translate(0.66 0)"/><path class="cls-6" d="M639.55,759.58c-20.92-7.89,5-22.76,9.92-31.88,7-13.07-2.4-25.26-6.31-37.4-6.2-19.27,3.88-42.79,26.45-46.66,20.68-3.54,30.39-10.78,47.44-19.5,15.25-7.8,34.88-9.53,48.68-18.75,16-10.71,29-31.77,25.23-49.42-3.15-14.74-19.95-31.28-17.42-46.51,1.83-11.05,14.7-11.33,23.38-17.07-9.64-14.09,23-13,29.95-12.14,12.2,1.5,20.27,1.53,30-7.62,23.22-21.73,30.7-46.72,43.54-74.71,14.75-32.15,50.49-42.7,83-59.77,14.69-7.71,29.8-15,43.19-24.32s24.64-20.48,37.19-30.51c16.74-13.37,33.23-23.24,52.65-32.8,21.15-10.4,40.15-28.11,58.92-41.75,12.91-9.38,27.16-19.31,43.28-24,16.65-4.8,34.49-5.12,51.21-9.69,22.07-6,40.83-19.26,62.74-25.74,20.55-6.08,42.72-5.91,64.4-5.68l57.72,0.61c15.9,0.17,24.12,4.9,35.24,14.53,0,0,21.75,49.64-26.79,49.64s-67.07,27.91-53,55.05c11,21.13,17.2,32.22,24.3,51.89,7.18,19.88-3.25,37.56-4.24,57.49-0.8,16.27,4.14,22.24-6.58,36.6-10.44,14-22.12,21.63-19.45,39,2.23,14.57,9.37,29.21,11.89,44,2.24,13.25,2.15,26.42,3.72,39.64,2.34,19.75,23.76,40.27,19.56,61-4.14,20.41-34.08,24.17-36.52,49.49-2.34,24.25,12.23,37.12,20.32,58.44,5.15,13.59,1.94,23.46-3.28,34.88-3.55,7.76-10.85,16.59-3.4,23.64" transform="translate(0.66 0)"/><path class="cls-7" d="M0,766.2q-0.12-74.91-.24-149.81c-0.12-79.81.68-159.74,0.57-239.55,0-10.58-.17-22.83-0.17-33.67C2.91,329.41,8.56,323,16.43,309.88c20.39-34,40.94-100.06,88.92-102.76,9.18,16.68,40.85,35.82,57.65,42.51,23.7,9.43,45.43-6.38,69.45-2.27,18.26,3.12,50.14,10.53,66.39,19.55,23.72,13.18,35.42,40.27,65.9,37.22,29.85-3,69.69-21.87,93.83-39.23,11.82-8.5,22-18.65,33.52-27.42,8-6.06,16.84-11.54,26.74-14.93,11.06-3.79,22.48-1.94,32.76-7.6a171.41,171.41,0,0,0,30.15-21c7.22-6.31,13.83-13.21,21.76-18.81a48.11,48.11,0,0,1,7.35-4.28c7.56-3.55,15.41-4.91,24.36-6.73,13.58-2.76,26.94-5.21,40.79-6.78,27.36-3.1,20.14,14.1,20.14,14.1,0.07,22.62-19.25,16.91-31.61,25.44S661,209.78,661,224s7.94,20.94,7.94,34.89-41-3.89-52.49,14.72-17.14,27.28-5,37.95,0,20.69-21.48,34.16c-18.15,11.38-94.71,43.05-102.26,61.48s-9.11,38.27-10.86,57.8-3.85,39.4-12.36,57.5c-10,21.24-28.75,40.15-30.06,63.11-0.93,16.25,7.25,32.3,5,48.46-2.31,16.87-15.58,31-30.19,42.14s-31.19,20.39-43.93,33.17S344,739.92,349.62,756.18" transform="translate(0.66 0)"/><path class="cls-8" d="M1920.21,693.42c-62.91-34.69-136.73-26.59-208.56-25.31-53.05.94-104.34,14.12-157.28,10.55-88.43-6-165.72-42.7-253.46-55.26-96.24-13.79-193.74,13.83-290.89,10.23-43.49-1.61-86.78-9.48-130.25-7.44-106.13,5-208.05,68.53-312.58,49.47-40-7.3-77.31-26.48-117.62-31.88-84.66-11.34-165.7,39.13-251,43.44C128.86,690.74,50.14,666.5-.66,714.33L0,1080H1920Z" transform="translate(0.66 0)"/></svg>