<?xml version="1.0" encoding="utf-8"?>
<!-- Generator: Adobe Illustrator 19.2.0, SVG Export Plug-In . SVG Version: 6.00 Build 0)  -->
<svg version="1.1" id="Layer_1" xmlns="http://www.w3.org/2000/svg" xmlns:xlink="http://www.w3.org/1999/xlink" x="0px" y="0px"
	 viewBox="0 0 67.6 78" style="enable-background:new 0 0 67.6 78;" xml:space="preserve">
<style type="text/css">
	.st0{fill:url(#SVGID_1_);}
	.st1{opacity:0.9;}
	.st2{fill:none;stroke:url(#SVGID_2_);stroke-width:0.2;stroke-miterlimit:10;}
	.st3{fill:none;stroke:url(#SVGID_3_);stroke-width:0.2;stroke-miterlimit:10;}
	.st4{fill:none;stroke:url(#SVGID_4_);stroke-width:0.2;stroke-miterlimit:10;}
	.st5{fill:none;stroke:url(#SVGID_5_);stroke-width:0.2;stroke-miterlimit:10;}
	.st6{fill:none;stroke:url(#SVGID_6_);stroke-width:0.2;stroke-miterlimit:10;}
	.st7{fill:none;stroke:url(#SVGID_7_);stroke-width:0.2;stroke-miterlimit:10;}
	.st8{fill:none;stroke:url(#SVGID_8_);stroke-width:0.2;stroke-miterlimit:10;}
	.st9{fill:none;stroke:url(#SVGID_9_);stroke-width:0.2;stroke-miterlimit:10;}
	.st10{fill:none;stroke:url(#SVGID_10_);stroke-width:0.2;stroke-miterlimit:10;}
	.st11{fill:none;stroke:url(#SVGID_11_);stroke-width:0.2;stroke-miterlimit:10;}
	.st12{fill:none;stroke:url(#SVGID_12_);stroke-width:0.2;stroke-miterlimit:10;}
	.st13{fill:none;stroke:url(#SVGID_13_);stroke-width:0.2;stroke-miterlimit:10;}
	.st14{fill:none;stroke:url(#SVGID_14_);stroke-width:0.2;stroke-miterlimit:10;}
	.st15{fill:none;stroke:url(#SVGID_15_);stroke-width:0.2;stroke-miterlimit:10;}
	.st16{fill:none;stroke:url(#SVGID_16_);stroke-width:0.2;stroke-miterlimit:10;}
	.st17{fill:none;stroke:url(#SVGID_17_);stroke-width:0.2;stroke-miterlimit:10;}
	.st18{fill:none;stroke:url(#SVGID_18_);stroke-width:0.2;stroke-miterlimit:10;}
	.st19{fill:none;stroke:url(#SVGID_19_);stroke-width:0.2;stroke-miterlimit:10;}
	.st20{fill:none;stroke:url(#SVGID_20_);stroke-width:0.2;stroke-miterlimit:10;}
	.st21{fill:none;stroke:url(#SVGID_21_);stroke-width:0.2;stroke-miterlimit:10;}
	.st22{fill:none;stroke:url(#SVGID_22_);stroke-width:0.2;stroke-miterlimit:10;}
	.st23{fill:none;stroke:url(#SVGID_23_);stroke-width:0.2;stroke-miterlimit:10;}
	.st24{fill:none;stroke:url(#SVGID_24_);stroke-width:0.2;stroke-miterlimit:10;}
	.st25{fill:none;stroke:url(#SVGID_25_);stroke-width:0.2;stroke-miterlimit:10;}
	.st26{fill:none;stroke:url(#SVGID_26_);stroke-width:0.2;stroke-miterlimit:10;}
	.st27{fill:none;stroke:url(#SVGID_27_);stroke-width:0.2;stroke-miterlimit:10;}
	.st28{fill:none;stroke:url(#SVGID_28_);stroke-width:0.2;stroke-miterlimit:10;}
	.st29{fill:none;stroke:url(#SVGID_29_);stroke-width:0.2;stroke-miterlimit:10;}
	.st30{fill:none;stroke:url(#SVGID_30_);stroke-width:0.2;stroke-miterlimit:10;}
	.st31{fill:none;stroke:url(#SVGID_31_);stroke-width:0.2;stroke-miterlimit:10;}
	.st32{fill:none;stroke:url(#SVGID_32_);stroke-width:0.2;stroke-miterlimit:10;}
	.st33{fill:none;stroke:url(#SVGID_33_);stroke-width:0.2;stroke-miterlimit:10;}
	.st34{fill:none;stroke:url(#SVGID_34_);stroke-width:0.2;stroke-miterlimit:10;}
	.st35{fill:none;stroke:url(#SVGID_35_);stroke-width:0.2;stroke-miterlimit:10;}
	.st36{fill:none;stroke:url(#SVGID_36_);stroke-width:0.2;stroke-miterlimit:10;}
	.st37{fill:none;stroke:url(#SVGID_37_);stroke-width:0.2;stroke-miterlimit:10;}
	.st38{fill:none;stroke:url(#SVGID_38_);stroke-width:0.2;stroke-miterlimit:10;}
	.st39{fill:none;stroke:url(#SVGID_39_);stroke-width:0.2;stroke-miterlimit:10;}
	.st40{fill:none;stroke:url(#SVGID_40_);stroke-width:0.2;stroke-miterlimit:10;}
	.st41{fill:none;stroke:url(#SVGID_41_);stroke-width:0.2;stroke-miterlimit:10;}
	.st42{fill:url(#SVGID_42_);}
	.st43{fill:url(#SVGID_43_);}
	.st44{fill:url(#SVGID_44_);}
	.st45{fill:url(#SVGID_45_);}
	.st46{fill:url(#SVGID_46_);}
	.st47{fill:url(#SVGID_47_);}
	.st48{fill:url(#SVGID_48_);}
	.st49{fill:url(#SVGID_49_);}
	.st50{fill:url(#SVGID_50_);}
	.st51{fill:url(#SVGID_51_);}
	.st52{fill:url(#SVGID_52_);}
	.st53{fill:url(#SVGID_53_);}
	.st54{fill:url(#SVGID_54_);}
	.st55{fill:url(#SVGID_55_);}
</style>
<title>Shuriken</title>
<radialGradient id="SVGID_1_" cx="157.09" cy="26.94" r="23.1956" gradientTransform="matrix(1 0 0 -1 -123.3 65.93)" gradientUnits="userSpaceOnUse">
	<stop  offset="0" style="stop-color:#D31C1C"/>
	<stop  offset="1" style="stop-color:#2A0000"/>
</radialGradient>
<path class="st0" d="M49.4,44.9l-1.3-1.1l-1.3-2.5l0.5-1.6l-0.5-2.2l0.6-2.4l1.8-1.9l6-6.5v-0.2l-8.6,2L42.9,29l-1.3-0.8l-2.5-1.4
	l-1.9-1.1l-0.6-2.8l-2.8-8.8l-2.7,8.7l-0.4,2.1l-1.8,1.8l-2.7,1.4L24.7,29l-3.4-0.5l-8.9-2.1l5.8,6.5l2.6,2.7l-0.1,2.6l-0.2,0.8
	l0.3,3.3l-2.3,2.3l-6.1,6.7l8.5-1.9l0.9-0.3l3.6-0.4l1,1.1l3.6,1.5l3.9,12.4l2.6-8.3l0.4-1.1l0.2-1.5l1.5-1.7l1.9-0.6l1.6-1.6
	l1.8-0.5l2.9,0.8l8.6,1.9L49.4,44.9z M33.7,45.4c-3.6,0-6.5-2.9-6.4-6.5s2.9-6.5,6.5-6.4c3.6,0,6.4,2.9,6.4,6.5
	C40.2,42.5,37.3,45.4,33.7,45.4C33.7,45.4,33.7,45.4,33.7,45.4z"/>
<g class="st1">
	
		<radialGradient id="SVGID_2_" cx="159.04" cy="35.61" r="1.57" gradientTransform="matrix(1 0 0 -1 -123.3 65.93)" gradientUnits="userSpaceOnUse">
		<stop  offset="0" style="stop-color:#FF0000"/>
		<stop  offset="1" style="stop-color:#FF721C"/>
	</radialGradient>
	<path class="st2" d="M37.4,30.6c-0.5,0.3-1.2,0.2-1.6-0.4c0,0,0-0.1-0.1-0.1c-0.3-0.5-0.8-0.7-1.4-0.6c-0.4,0.1-0.7,0.6-0.6,1
		c0,0,0,0.1,0,0.1c0.1,0.4,0.5,0.6,0.9,0.5c0.1,0,0.1,0,0.1-0.1c0.3-0.1,0.4-0.5,0.2-0.8c0,0,0,0,0,0C35,30,34.7,29.9,34.5,30
		c-0.1,0-0.1,0.1-0.1,0.1c-0.1,0.2-0.1,0.4,0.1,0.5c0,0,0,0,0,0c0.1,0.1,0.2,0.1,0.3,0c-0.1,0.1-0.2,0.1-0.4,0.1
		c-0.2-0.1-0.3-0.4-0.2-0.6c0-0.1,0.1-0.2,0.2-0.2c0.4-0.2,0.8,0,1,0.3C36.6,31.8,37.4,30.6,37.4,30.6z"/>
	
		<radialGradient id="SVGID_3_" cx="162.42" cy="35.33" r="2.21" gradientTransform="matrix(1 0 0 -1 -123.3 65.93)" gradientUnits="userSpaceOnUse">
		<stop  offset="0" style="stop-color:#FF0000"/>
		<stop  offset="1" style="stop-color:#FF721C"/>
	</radialGradient>
	<path class="st3" d="M38,32.3L38,32.3c-0.5-0.4-0.7-1.1-0.5-1.7l0,0l-0.1-0.1c-0.5-0.3-0.6-0.9-0.3-1.4c0,0,0,0,0,0
		c0.3-0.5,0.9-0.6,1.4-0.3c0,0,0,0,0,0c0.4,0.2,0.6,0.6,0.5,1c0,0.3-0.3,0.5-0.6,0.5c-0.1,0-0.2,0-0.3-0.1c-0.2-0.1-0.3-0.5-0.2-0.7
		c0,0,0,0,0,0c0.1-0.1,0.2-0.2,0.4-0.2l0,0c-0.2-0.2-0.6-0.2-0.8,0c-0.1,0.1-0.1,0.1-0.1,0.2c-0.1,0.4,0.1,0.9,0.5,1c0,0,0,0,0,0
		c-0.3,0.5-0.1,1.1,0.3,1.5l0,0c0.5,0.2,1.1,0,1.5-0.4c0.3,0.3,0.8,0.3,1.1,0.1c0,0,0,0,0,0c0.2-0.2,0.2-0.6,0-0.8
		c-0.1,0-0.1-0.1-0.2-0.1l0,0c0.1,0.1,0.1,0.3,0,0.5c-0.1,0.2-0.5,0.3-0.7,0.2c0,0,0,0,0,0c-0.3-0.1-0.4-0.5-0.2-0.7
		c0-0.1,0.1-0.2,0.2-0.2c0.3-0.2,0.8-0.2,1.1,0c0.5,0.3,0.6,0.9,0.3,1.4c0,0,0,0,0,0c-0.3,0.5-0.9,0.6-1.4,0.3c0,0,0,0,0,0L39.7,32
		l0,0C39.2,32.5,38.5,32.6,38,32.3L38,32.3L38,32.3z"/>
	
		<radialGradient id="SVGID_4_" cx="159.1" cy="37.12" r="0.95" gradientTransform="matrix(1 0 0 -1 -123.3 65.93)" gradientUnits="userSpaceOnUse">
		<stop  offset="0" style="stop-color:#FF0000"/>
		<stop  offset="1" style="stop-color:#FF721C"/>
	</radialGradient>
	<path class="st4" d="M34.6,29.2c0.2-0.5,0.7-0.8,1.2-0.8c0.5,0,0.9,0.3,1.1,0.7"/>
	
		<radialGradient id="SVGID_5_" cx="159.1" cy="37.62" r="1.23" gradientTransform="matrix(1 0 0 -1 -123.3 65.93)" gradientUnits="userSpaceOnUse">
		<stop  offset="0" style="stop-color:#FF0000"/>
		<stop  offset="1" style="stop-color:#FF721C"/>
	</radialGradient>
	<path class="st5" d="M34.3,28.8c0.3-0.6,0.9-1,1.6-1c0.6,0,1.2,0.3,1.5,0.9"/>
	
		<radialGradient id="SVGID_6_" cx="155.2367" cy="35.61" r="1.5721" gradientTransform="matrix(1 0 0 -1 -123.3 65.93)" gradientUnits="userSpaceOnUse">
		<stop  offset="0" style="stop-color:#FF0000"/>
		<stop  offset="1" style="stop-color:#FF721C"/>
	</radialGradient>
	<path class="st6" d="M30.3,30.6c0.5,0.3,1.2,0.2,1.6-0.4c0,0,0-0.1,0.1-0.1c0.3-0.5,0.8-0.7,1.4-0.6c0.4,0.1,0.7,0.6,0.6,1
		c0,0,0,0.1,0,0.1c-0.1,0.4-0.5,0.6-0.9,0.5c-0.1,0-0.1,0-0.1-0.1c-0.3-0.1-0.4-0.5-0.2-0.8c0,0,0,0,0,0c0.1-0.2,0.4-0.3,0.6-0.2
		c0.1,0,0.1,0.1,0.1,0.1c0.1,0.2,0.1,0.4-0.1,0.5c0,0,0,0,0,0c-0.1,0.1-0.2,0.1-0.3,0c0.1,0.1,0.2,0.1,0.4,0.1
		c0.2-0.1,0.3-0.4,0.2-0.6c0-0.1-0.1-0.2-0.2-0.2c-0.4-0.2-0.8,0-1,0.3C31.1,31.8,30.3,30.6,30.3,30.6z"/>
	
		<radialGradient id="SVGID_7_" cx="151.85" cy="35.33" r="2.21" gradientTransform="matrix(1 0 0 -1 -123.3 65.93)" gradientUnits="userSpaceOnUse">
		<stop  offset="0" style="stop-color:#FF0000"/>
		<stop  offset="1" style="stop-color:#FF721C"/>
	</radialGradient>
	<path class="st7" d="M29.7,32.3L29.7,32.3c0.5-0.4,0.7-1.1,0.5-1.7l0,0l0.1-0.1c0.5-0.3,0.6-0.9,0.3-1.4c0,0,0,0,0,0
		c-0.3-0.5-0.9-0.6-1.4-0.3c0,0,0,0,0,0c-0.4,0.2-0.6,0.6-0.5,1c0,0.3,0.3,0.5,0.6,0.5c0.1,0,0.2,0,0.3-0.1c0.2-0.1,0.3-0.5,0.2-0.7
		c0,0,0,0,0,0c-0.1-0.1-0.2-0.2-0.4-0.2l0,0c0.2-0.2,0.6-0.2,0.8,0c0.1,0.1,0.1,0.1,0.1,0.2c0.1,0.4-0.1,0.9-0.5,1c0,0,0,0,0,0
		c0.3,0.5,0.1,1.1-0.3,1.5l0,0c-0.5,0.2-1.1,0-1.5-0.4c-0.3,0.3-0.8,0.3-1.1,0.1c0,0,0,0,0,0c-0.2-0.2-0.2-0.6,0-0.8
		c0.1,0,0.1-0.1,0.2-0.1l0,0c-0.1,0.1-0.1,0.3,0,0.5c0.1,0.2,0.5,0.3,0.7,0.2c0,0,0,0,0,0c0.3-0.1,0.4-0.5,0.2-0.7
		c0-0.1-0.1-0.2-0.2-0.2c-0.3-0.2-0.8-0.2-1.1,0c-0.5,0.3-0.6,0.9-0.3,1.4c0,0,0,0,0,0c0.3,0.5,0.9,0.6,1.4,0.3c0,0,0,0,0,0l0.1-0.1
		l0,0C28.4,32.6,29.1,32.7,29.7,32.3L29.7,32.3L29.7,32.3z"/>
	
		<radialGradient id="SVGID_8_" cx="157.1401" cy="37.4" r="1.3" gradientTransform="matrix(1 0 0 -1 -123.3 65.93)" gradientUnits="userSpaceOnUse">
		<stop  offset="0" style="stop-color:#FF0000"/>
		<stop  offset="1" style="stop-color:#FF721C"/>
	</radialGradient>
	<path class="st8" d="M32.5,29.6c0.7-0.3,1.2-1,1.4-1.7c0.2,0.7,0.7,1.4,1.4,1.7"/>
	
		<radialGradient id="SVGID_9_" cx="157.14" cy="36.8" r="0.56" gradientTransform="matrix(1 0 0 -1 -123.3 65.93)" gradientUnits="userSpaceOnUse">
		<stop  offset="0" style="stop-color:#FF0000"/>
		<stop  offset="1" style="stop-color:#FF721C"/>
	</radialGradient>
	<path class="st9" d="M33.3,29.5c0.2-0.2,0.4-0.4,0.6-0.7c0.1,0.3,0.3,0.5,0.6,0.7"/>
	
		<radialGradient id="SVGID_10_" cx="155.17" cy="37.12" r="0.95" gradientTransform="matrix(1 0 0 -1 -123.3 65.93)" gradientUnits="userSpaceOnUse">
		<stop  offset="0" style="stop-color:#FF0000"/>
		<stop  offset="1" style="stop-color:#FF721C"/>
	</radialGradient>
	<path class="st10" d="M33.1,29.2c-0.2-0.5-0.7-0.8-1.2-0.8c-0.5,0-0.9,0.3-1.1,0.7"/>
	
		<radialGradient id="SVGID_11_" cx="155.1693" cy="37.62" r="1.2304" gradientTransform="matrix(1 0 0 -1 -123.3 65.93)" gradientUnits="userSpaceOnUse">
		<stop  offset="0" style="stop-color:#FF0000"/>
		<stop  offset="1" style="stop-color:#FF721C"/>
	</radialGradient>
	<path class="st11" d="M33.4,28.8c-0.3-0.6-0.9-1-1.6-1c-0.6,0-1.2,0.3-1.5,0.9"/>
	
		<radialGradient id="SVGID_12_" cx="148.41" cy="28.85" r="1.57" gradientTransform="matrix(1 0 0 -1 -123.3 65.93)" gradientUnits="userSpaceOnUse">
		<stop  offset="0" style="stop-color:#FF0000"/>
		<stop  offset="1" style="stop-color:#FF721C"/>
	</radialGradient>
	<path class="st12" d="M25.4,35.4c0.3,0.5,0.2,1.2-0.4,1.6c0,0-0.1,0-0.1,0.1c-0.5,0.3-0.7,0.8-0.6,1.4c0.1,0.4,0.6,0.7,1,0.6
		c0,0,0.1,0,0.1,0c0.4-0.1,0.6-0.5,0.5-0.9c0-0.1,0-0.1-0.1-0.1c-0.1-0.3-0.5-0.4-0.8-0.2c0,0,0,0,0,0c-0.2,0.1-0.3,0.4-0.2,0.6
		c0,0.1,0.1,0.1,0.1,0.1c0.2,0.1,0.4,0.1,0.5-0.1c0,0,0,0,0,0c0.1-0.1,0.1-0.2,0-0.3c0.1,0.1,0.1,0.2,0.1,0.4
		c-0.1,0.2-0.4,0.3-0.6,0.2c-0.1,0-0.2-0.1-0.2-0.2c-0.2-0.4,0-0.8,0.3-1C26.6,36.2,25.4,35.4,25.4,35.4z"/>
	
		<radialGradient id="SVGID_13_" cx="148.68" cy="32.23" r="2.21" gradientTransform="matrix(1 0 0 -1 -123.3 65.93)" gradientUnits="userSpaceOnUse">
		<stop  offset="0" style="stop-color:#FF0000"/>
		<stop  offset="1" style="stop-color:#FF721C"/>
	</radialGradient>
	<path class="st13" d="M27.1,34.8L27.1,34.8c-0.4,0.5-1.1,0.7-1.7,0.5l0,0c0,0,0,0.1-0.1,0.1c-0.3,0.5-0.9,0.6-1.4,0.3c0,0,0,0,0,0
		c-0.5-0.3-0.6-0.9-0.3-1.4c0,0,0,0,0,0c0.2-0.4,0.6-0.6,1-0.5c0.3,0,0.5,0.3,0.5,0.6c0,0.1,0,0.2-0.1,0.3c-0.1,0.2-0.5,0.3-0.7,0.2
		c0,0,0,0,0,0c-0.1-0.1-0.2-0.2-0.2-0.4l0,0c-0.2,0.2-0.2,0.6,0,0.8c0.1,0.1,0.1,0.1,0.2,0.1c0.4,0.1,0.9-0.1,1-0.5c0,0,0,0,0,0
		c0.5,0.3,1.1,0.1,1.5-0.3l0,0c0.2-0.5,0-1.1-0.4-1.5c0.3-0.3,0.3-0.8,0.1-1.1c0,0,0,0,0,0c-0.2-0.2-0.6-0.2-0.8,0
		c0,0.1-0.1,0.1-0.1,0.2l0,0c0.1-0.1,0.3-0.1,0.5,0c0.2,0.1,0.3,0.5,0.2,0.7c0,0,0,0,0,0c-0.1,0.3-0.5,0.4-0.7,0.2
		c-0.1,0-0.2-0.1-0.2-0.2c-0.2-0.3-0.2-0.8,0-1.1c0.3-0.5,0.9-0.6,1.4-0.3c0,0,0,0,0,0c0.5,0.3,0.6,0.9,0.3,1.4c0,0,0,0,0,0
		l-0.1,0.1l0,0C27.3,33.5,27.5,34.2,27.1,34.8L27.1,34.8L27.1,34.8z"/>
	
		<radialGradient id="SVGID_14_" cx="146.89" cy="28.91" r="0.95" gradientTransform="matrix(1 0 0 -1 -123.3 65.93)" gradientUnits="userSpaceOnUse">
		<stop  offset="0" style="stop-color:#FF0000"/>
		<stop  offset="1" style="stop-color:#FF721C"/>
	</radialGradient>
	<path class="st14" d="M24,38.2c-0.5-0.2-0.8-0.7-0.8-1.2c0-0.5,0.3-0.9,0.7-1.1"/>
	
		<radialGradient id="SVGID_15_" cx="146.4" cy="28.9106" r="1.2296" gradientTransform="matrix(1 0 0 -1 -123.3 65.93)" gradientUnits="userSpaceOnUse">
		<stop  offset="0" style="stop-color:#FF0000"/>
		<stop  offset="1" style="stop-color:#FF721C"/>
	</radialGradient>
	<path class="st15" d="M23.6,38.6c-0.6-0.3-1-0.9-1-1.6c0-0.6,0.3-1.2,0.9-1.5"/>
	
		<radialGradient id="SVGID_16_" cx="148.41" cy="25.05" r="1.57" gradientTransform="matrix(1 0 0 -1 -123.3 65.93)" gradientUnits="userSpaceOnUse">
		<stop  offset="0" style="stop-color:#FF0000"/>
		<stop  offset="1" style="stop-color:#FF721C"/>
	</radialGradient>
	<path class="st16" d="M25.4,42.6c0.3-0.5,0.2-1.2-0.4-1.6c0,0-0.1,0-0.1-0.1c-0.5-0.3-0.7-0.8-0.6-1.4c0.1-0.4,0.6-0.7,1-0.6
		c0,0,0.1,0,0.1,0c0.4,0.1,0.6,0.5,0.5,0.9c0,0.1,0,0.1-0.1,0.1c-0.1,0.3-0.5,0.4-0.8,0.2c0,0,0,0,0,0c-0.2-0.1-0.3-0.4-0.2-0.6
		c0-0.1,0.1-0.1,0.1-0.1c0.2-0.1,0.4-0.1,0.5,0.1c0,0,0,0,0,0c0.1,0.1,0.1,0.2,0,0.3c0.1-0.1,0.1-0.2,0.1-0.4
		c-0.1-0.2-0.4-0.3-0.6-0.2c-0.1,0-0.2,0.1-0.2,0.2c-0.2,0.4,0,0.8,0.3,1C26.6,41.7,25.4,42.6,25.4,42.6z"/>
	
		<radialGradient id="SVGID_17_" cx="148.6807" cy="21.66" r="2.2097" gradientTransform="matrix(1 0 0 -1 -123.3 65.93)" gradientUnits="userSpaceOnUse">
		<stop  offset="0" style="stop-color:#FF0000"/>
		<stop  offset="1" style="stop-color:#FF721C"/>
	</radialGradient>
	<path class="st17" d="M27.1,43.1L27.1,43.1c-0.4-0.5-1.1-0.7-1.7-0.5l0,0c0,0,0-0.1-0.1-0.1c-0.3-0.5-0.9-0.6-1.4-0.3c0,0,0,0,0,0
		c-0.5,0.3-0.6,0.9-0.3,1.4c0,0,0,0,0,0c0.2,0.4,0.6,0.6,1,0.5c0.3,0,0.5-0.3,0.5-0.6c0-0.1,0-0.2-0.1-0.3c-0.1-0.2-0.5-0.3-0.7-0.2
		c0,0,0,0,0,0c-0.1,0.1-0.2,0.2-0.2,0.4l0,0c-0.2-0.2-0.2-0.6,0-0.8c0.1-0.1,0.1-0.1,0.2-0.1c0.4-0.1,0.9,0.1,1,0.5c0,0,0,0,0,0
		c0.5-0.3,1.1-0.1,1.5,0.3l0,0c0.2,0.5,0,1.1-0.4,1.5c0.3,0.3,0.3,0.8,0.1,1.1c0,0,0,0,0,0c-0.2,0.2-0.6,0.2-0.8,0
		c0-0.1-0.1-0.1-0.1-0.2l0,0c0.1,0.1,0.3,0.1,0.5,0c0.2-0.2,0.3-0.5,0.1-0.7c0,0,0,0-0.1-0.1c-0.1-0.3-0.5-0.4-0.7-0.2
		c-0.1,0-0.2,0.1-0.2,0.2c-0.2,0.3-0.2,0.8,0,1.1c0.3,0.5,0.9,0.6,1.4,0.3c0,0,0,0,0,0c0.5-0.3,0.6-0.9,0.3-1.4c0,0,0,0,0,0l-0.1,0
		l0,0C27.3,44.5,27.4,43.8,27.1,43.1L27.1,43.1L27.1,43.1z"/>
	
		<radialGradient id="SVGID_18_" cx="146.62" cy="26.9499" r="1.3" gradientTransform="matrix(1 0 0 -1 -123.3 65.93)" gradientUnits="userSpaceOnUse">
		<stop  offset="0" style="stop-color:#FF0000"/>
		<stop  offset="1" style="stop-color:#FF721C"/>
	</radialGradient>
	<path class="st18" d="M24.4,40.3c-0.4-0.7-1-1.2-1.7-1.4c0.7-0.2,1.4-0.7,1.7-1.4"/>
	
		<radialGradient id="SVGID_19_" cx="147.22" cy="26.95" r="0.56" gradientTransform="matrix(1 0 0 -1 -123.3 65.93)" gradientUnits="userSpaceOnUse">
		<stop  offset="0" style="stop-color:#FF0000"/>
		<stop  offset="1" style="stop-color:#FF721C"/>
	</radialGradient>
	<path class="st19" d="M24.3,39.5c-0.2-0.2-0.4-0.4-0.6-0.6c0.3-0.1,0.5-0.3,0.6-0.6"/>
	
		<radialGradient id="SVGID_20_" cx="146.89" cy="24.98" r="0.95" gradientTransform="matrix(1 0 0 -1 -123.3 65.93)" gradientUnits="userSpaceOnUse">
		<stop  offset="0" style="stop-color:#FF0000"/>
		<stop  offset="1" style="stop-color:#FF721C"/>
	</radialGradient>
	<path class="st20" d="M24,39.8c-0.5,0.2-0.8,0.7-0.8,1.2c0,0.5,0.3,0.9,0.7,1.1"/>
	
		<radialGradient id="SVGID_21_" cx="146.4" cy="24.9794" r="1.2311" gradientTransform="matrix(1 0 0 -1 -123.3 65.93)" gradientUnits="userSpaceOnUse">
		<stop  offset="0" style="stop-color:#FF0000"/>
		<stop  offset="1" style="stop-color:#FF721C"/>
	</radialGradient>
	<path class="st21" d="M23.6,39.4c-0.6,0.3-1,0.9-1,1.6c0,0.6,0.3,1.2,0.9,1.5"/>
	
		<radialGradient id="SVGID_22_" cx="155.17" cy="18.21" r="1.57" gradientTransform="matrix(1 0 0 -1 -123.3 65.93)" gradientUnits="userSpaceOnUse">
		<stop  offset="0" style="stop-color:#FF0000"/>
		<stop  offset="1" style="stop-color:#FF721C"/>
	</radialGradient>
	<path class="st22" d="M30.2,47.4c0.5-0.3,1.2-0.2,1.6,0.4c0,0,0,0.1,0.1,0.1c0.3,0.5,0.8,0.7,1.4,0.6c0.4-0.1,0.7-0.6,0.6-1
		c0,0,0-0.1,0-0.1c-0.1-0.4-0.5-0.6-0.9-0.5c-0.1,0-0.1,0-0.1,0.1c-0.3,0.1-0.4,0.5-0.2,0.8c0,0,0,0,0,0c0.1,0.2,0.4,0.3,0.6,0.2
		c0.1,0,0.1-0.1,0.1-0.1c0.1-0.2,0.1-0.4-0.1-0.5c0,0,0,0,0,0c-0.1-0.1-0.2-0.1-0.3,0c0.1-0.1,0.2-0.1,0.4-0.1
		c0.2,0.1,0.3,0.4,0.2,0.6c0,0.1-0.1,0.2-0.2,0.2c-0.4,0.2-0.8,0-1-0.3C31,46.2,30.2,47.4,30.2,47.4z"/>
	
		<radialGradient id="SVGID_23_" cx="151.78" cy="18.49" r="2.21" gradientTransform="matrix(1 0 0 -1 -123.3 65.93)" gradientUnits="userSpaceOnUse">
		<stop  offset="0" style="stop-color:#FF0000"/>
		<stop  offset="1" style="stop-color:#FF721C"/>
	</radialGradient>
	<path class="st23" d="M29.6,45.7L29.6,45.7c0.5,0.4,0.7,1.1,0.5,1.7l0,0l0.1,0.1c0.5,0.3,0.6,0.9,0.3,1.4c0,0,0,0,0,0
		c-0.3,0.5-0.9,0.6-1.4,0.3c0,0,0,0,0,0c-0.4-0.2-0.6-0.6-0.5-1c0-0.3,0.3-0.5,0.6-0.5c0.1,0,0.2,0,0.3,0.1c0.2,0.1,0.3,0.5,0.2,0.7
		c0,0,0,0,0,0c-0.1,0.1-0.2,0.2-0.4,0.2l0,0c0.2,0.2,0.6,0.2,0.8,0c0.1-0.1,0.1-0.1,0.1-0.2c0.1-0.4-0.1-0.9-0.5-1c0,0,0,0,0,0
		c0.3-0.5,0.1-1.1-0.3-1.5l0,0c-0.5-0.2-1.1,0-1.5,0.4c-0.3-0.3-0.8-0.3-1.1-0.1c0,0,0,0,0,0c-0.2,0.2-0.2,0.6,0,0.8
		c0.1,0,0.1,0.1,0.2,0.1l0,0c-0.1-0.1-0.1-0.3,0-0.5c0.1-0.2,0.5-0.3,0.7-0.2c0,0,0,0,0,0c0.3,0.1,0.4,0.5,0.2,0.7
		c0,0.1-0.1,0.2-0.2,0.2c-0.3,0.2-0.8,0.2-1.1,0c-0.5-0.3-0.6-0.9-0.3-1.4c0,0,0,0,0,0c0.3-0.4,0.9-0.5,1.4-0.3l0.1,0.1l0,0
		C28.3,45.6,29,45.4,29.6,45.7L29.6,45.7L29.6,45.7z"/>
	
		<radialGradient id="SVGID_24_" cx="155.1" cy="16.7" r="0.95" gradientTransform="matrix(1 0 0 -1 -123.3 65.93)" gradientUnits="userSpaceOnUse">
		<stop  offset="0" style="stop-color:#FF0000"/>
		<stop  offset="1" style="stop-color:#FF721C"/>
	</radialGradient>
	<path class="st24" d="M33,48.8c-0.2,0.5-0.7,0.8-1.2,0.8c-0.5,0-0.9-0.3-1.1-0.7"/>
	
		<radialGradient id="SVGID_25_" cx="155.0993" cy="16.21" r="1.2311" gradientTransform="matrix(1 0 0 -1 -123.3 65.93)" gradientUnits="userSpaceOnUse">
		<stop  offset="0" style="stop-color:#FF0000"/>
		<stop  offset="1" style="stop-color:#FF721C"/>
	</radialGradient>
	<path class="st25" d="M33.4,49.2c-0.3,0.6-0.9,1-1.6,1c-0.6,0-1.2-0.3-1.5-0.9"/>
	
		<radialGradient id="SVGID_26_" cx="158.97" cy="18.21" r="1.57" gradientTransform="matrix(1 0 0 -1 -123.3 65.93)" gradientUnits="userSpaceOnUse">
		<stop  offset="0" style="stop-color:#FF0000"/>
		<stop  offset="1" style="stop-color:#FF721C"/>
	</radialGradient>
	<path class="st26" d="M37.3,47.4c-0.5-0.3-1.2-0.2-1.6,0.4c0,0,0,0.1-0.1,0.1c-0.3,0.5-0.8,0.7-1.4,0.6c-0.4-0.1-0.7-0.6-0.6-1
		c0,0,0-0.1,0-0.1c0.1-0.4,0.5-0.6,0.9-0.5c0.1,0,0.1,0,0.1,0.1c0.3,0.1,0.4,0.5,0.2,0.8c0,0,0,0,0,0c-0.1,0.2-0.4,0.3-0.6,0.2
		c-0.1,0-0.1-0.1-0.1-0.1c-0.1-0.2-0.1-0.4,0.1-0.5c0,0,0,0,0,0c0.1-0.1,0.2-0.1,0.3,0c-0.1-0.1-0.2-0.1-0.4-0.1
		c-0.2,0.1-0.3,0.4-0.2,0.6c0,0.1,0.1,0.2,0.2,0.2c0.4,0.2,0.8,0,1-0.3C36.5,46.2,37.3,47.4,37.3,47.4z"/>
	
		<radialGradient id="SVGID_27_" cx="162.36" cy="18.49" r="2.21" gradientTransform="matrix(1 0 0 -1 -123.3 65.93)" gradientUnits="userSpaceOnUse">
		<stop  offset="0" style="stop-color:#FF0000"/>
		<stop  offset="1" style="stop-color:#FF721C"/>
	</radialGradient>
	<path class="st27" d="M37.9,45.7L37.9,45.7c-0.5,0.4-0.7,1.1-0.5,1.7l0,0l-0.1,0.1c-0.5,0.3-0.6,0.9-0.3,1.4c0,0,0,0,0,0
		c0.3,0.5,0.9,0.6,1.4,0.3c0,0,0,0,0,0c0.4-0.2,0.6-0.6,0.5-1c0-0.3-0.3-0.5-0.6-0.5c-0.1,0-0.2,0-0.3,0.1c-0.2,0.1-0.3,0.5-0.2,0.7
		c0,0,0,0,0,0c0.1,0.1,0.2,0.2,0.4,0.2l0,0c-0.2,0.2-0.6,0.2-0.8,0c-0.1-0.1-0.1-0.1-0.1-0.2c-0.1-0.4,0.1-0.9,0.5-1c0,0,0,0,0,0
		c-0.3-0.5-0.1-1.1,0.3-1.5l0,0c0.5-0.2,1.1,0,1.5,0.4c0.3-0.3,0.8-0.3,1.1-0.1c0,0,0,0,0,0c0.2,0.2,0.2,0.6,0,0.8
		c-0.1,0-0.1,0.1-0.2,0.1l0,0c0.1-0.1,0.1-0.3,0-0.5c-0.1-0.2-0.5-0.3-0.7-0.2c0,0,0,0,0,0c-0.3,0.1-0.4,0.5-0.2,0.7
		c0,0.1,0.1,0.2,0.2,0.2c0.3,0.2,0.8,0.2,1.1,0c0.5-0.3,0.6-0.9,0.3-1.4c0,0,0,0,0,0c-0.3-0.5-0.9-0.6-1.4-0.3c0,0,0,0,0,0l-0.1,0.1
		l0,0C39.2,45.5,38.5,45.4,37.9,45.7L37.9,45.7L37.9,45.7z"/>
	
		<radialGradient id="SVGID_28_" cx="157.07" cy="16.42" r="1.3" gradientTransform="matrix(1 0 0 -1 -123.3 65.93)" gradientUnits="userSpaceOnUse">
		<stop  offset="0" style="stop-color:#FF0000"/>
		<stop  offset="1" style="stop-color:#FF721C"/>
	</radialGradient>
	<path class="st28" d="M35.1,48.4c-0.7,0.3-1.2,1-1.4,1.7c-0.2-0.7-0.7-1.4-1.4-1.7"/>
	
		<radialGradient id="SVGID_29_" cx="157.07" cy="17.02" r="0.56" gradientTransform="matrix(1 0 0 -1 -123.3 65.93)" gradientUnits="userSpaceOnUse">
		<stop  offset="0" style="stop-color:#FF0000"/>
		<stop  offset="1" style="stop-color:#FF721C"/>
	</radialGradient>
	<path class="st29" d="M34.3,48.5c-0.2,0.2-0.4,0.4-0.6,0.7c-0.1-0.3-0.3-0.5-0.6-0.7"/>
	
		<radialGradient id="SVGID_30_" cx="159.04" cy="16.7" r="0.95" gradientTransform="matrix(1 0 0 -1 -123.3 65.93)" gradientUnits="userSpaceOnUse">
		<stop  offset="0" style="stop-color:#FF0000"/>
		<stop  offset="1" style="stop-color:#FF721C"/>
	</radialGradient>
	<path class="st30" d="M34.6,48.8c0.2,0.5,0.7,0.8,1.2,0.8c0.5,0,0.9-0.3,1.1-0.7"/>
	
		<radialGradient id="SVGID_31_" cx="159.0406" cy="16.21" r="1.2296" gradientTransform="matrix(1 0 0 -1 -123.3 65.93)" gradientUnits="userSpaceOnUse">
		<stop  offset="0" style="stop-color:#FF0000"/>
		<stop  offset="1" style="stop-color:#FF721C"/>
	</radialGradient>
	<path class="st31" d="M34.2,49.2c0.3,0.6,0.9,1,1.6,1c0.6,0,1.2-0.3,1.5-0.9"/>
	
		<radialGradient id="SVGID_32_" cx="165.8" cy="24.98" r="1.57" gradientTransform="matrix(1 0 0 -1 -123.3 65.93)" gradientUnits="userSpaceOnUse">
		<stop  offset="0" style="stop-color:#FF0000"/>
		<stop  offset="1" style="stop-color:#FF721C"/>
	</radialGradient>
	<path class="st32" d="M42.2,42.6c-0.4-0.5-0.2-1.2,0.3-1.6c0.1,0,0.1-0.1,0.2-0.1c0.5-0.3,0.7-0.8,0.6-1.4c-0.1-0.4-0.6-0.7-1-0.6
		c0,0-0.1,0-0.1,0c-0.4,0.1-0.6,0.5-0.5,0.9c0,0.1,0,0.1,0.1,0.1c0.1,0.3,0.5,0.4,0.8,0.2c0,0,0,0,0,0c0.2-0.1,0.3-0.4,0.2-0.6
		c0-0.1-0.1-0.1-0.1-0.1c-0.2-0.1-0.4-0.1-0.5,0.1c0,0,0,0,0,0c-0.1,0.1-0.1,0.2,0,0.3c-0.1-0.1-0.1-0.2-0.1-0.4
		c0.1-0.2,0.4-0.3,0.6-0.2c0.1,0,0.2,0.1,0.2,0.2c0.2,0.4,0,0.8-0.3,1C41,41.8,42.2,42.6,42.2,42.6z"/>
	
		<radialGradient id="SVGID_33_" cx="165.53" cy="21.59" r="2.21" gradientTransform="matrix(1 0 0 -1 -123.3 65.93)" gradientUnits="userSpaceOnUse">
		<stop  offset="0" style="stop-color:#FF0000"/>
		<stop  offset="1" style="stop-color:#FF721C"/>
	</radialGradient>
	<path class="st33" d="M40.5,43.2L40.5,43.2c0.4-0.5,1.1-0.7,1.7-0.5l0,0c0,0,0-0.1,0.1-0.1c0.3-0.5,0.9-0.6,1.4-0.3c0,0,0,0,0,0
		c0.5,0.3,0.6,0.9,0.3,1.4c0,0,0,0,0,0c-0.2,0.4-0.6,0.6-1,0.5c-0.3,0-0.5-0.3-0.5-0.6c0-0.1,0-0.2,0.1-0.3c0.1-0.2,0.5-0.3,0.7-0.2
		c0,0,0,0,0,0c0.1,0.1,0.2,0.2,0.2,0.4l0,0c0.2-0.2,0.2-0.6,0-0.8c-0.1-0.1-0.1-0.1-0.2-0.1c-0.4-0.1-0.9,0.1-1,0.5c0,0,0,0,0,0
		c-0.5-0.3-1.1-0.1-1.5,0.3l0,0c-0.2,0.5,0,1.1,0.4,1.5c-0.3,0.3-0.3,0.8-0.1,1.1c0,0,0,0,0,0c0.2,0.2,0.6,0.2,0.8,0
		c0-0.1,0.1-0.1,0.1-0.2l0,0c-0.1,0.1-0.3,0.1-0.5,0c-0.2-0.1-0.3-0.5-0.2-0.7c0,0,0,0,0,0c0.1-0.3,0.5-0.4,0.7-0.2
		c0.1,0,0.2,0.1,0.2,0.2c0.2,0.3,0.2,0.8,0,1.1c-0.3,0.5-0.9,0.6-1.4,0.3c0,0,0,0,0,0c-0.5-0.3-0.6-0.9-0.3-1.4c0,0,0,0,0,0l0.1-0.1
		l0,0C40.3,44.5,40.1,43.8,40.5,43.2L40.5,43.2L40.5,43.2z"/>
	
		<radialGradient id="SVGID_34_" cx="167.31" cy="24.91" r="0.95" gradientTransform="matrix(1 0 0 -1 -123.3 65.93)" gradientUnits="userSpaceOnUse">
		<stop  offset="0" style="stop-color:#FF0000"/>
		<stop  offset="1" style="stop-color:#FF721C"/>
	</radialGradient>
	<path class="st34" d="M43.6,39.8c0.5,0.2,0.8,0.7,0.8,1.2c0,0.5-0.3,0.9-0.7,1.1"/>
	
		<radialGradient id="SVGID_35_" cx="167.81" cy="24.9094" r="1.2304" gradientTransform="matrix(1 0 0 -1 -123.3 65.93)" gradientUnits="userSpaceOnUse">
		<stop  offset="0" style="stop-color:#FF0000"/>
		<stop  offset="1" style="stop-color:#FF721C"/>
	</radialGradient>
	<path class="st35" d="M44,39.5c0.6,0.3,1,0.9,1,1.6c0,0.6-0.3,1.2-0.9,1.5"/>
	
		<radialGradient id="SVGID_36_" cx="165.8" cy="28.78" r="1.57" gradientTransform="matrix(1 0 0 -1 -123.3 65.93)" gradientUnits="userSpaceOnUse">
		<stop  offset="0" style="stop-color:#FF0000"/>
		<stop  offset="1" style="stop-color:#FF721C"/>
	</radialGradient>
	<path class="st36" d="M42.2,35.5c-0.3,0.5-0.2,1.2,0.4,1.6c0,0,0.1,0,0.1,0.1c0.5,0.3,0.7,0.8,0.6,1.4c-0.1,0.4-0.6,0.7-1,0.6
		c0,0-0.1,0-0.1,0c-0.4-0.1-0.6-0.5-0.5-0.9c0-0.1,0-0.1,0.1-0.1c0.1-0.3,0.5-0.4,0.8-0.2c0,0,0,0,0,0c0.2,0.1,0.3,0.4,0.2,0.6
		c0,0.1-0.1,0.1-0.1,0.1c-0.2,0.1-0.4,0.1-0.5-0.1c0,0,0,0,0,0c-0.1-0.1-0.1-0.2,0-0.3C42,38.2,42,38.4,42,38.5
		c0.1,0.2,0.4,0.3,0.6,0.2c0.1,0,0.2-0.1,0.2-0.2c0.2-0.4,0-0.8-0.3-1C41,36.3,42.2,35.5,42.2,35.5z"/>
	
		<radialGradient id="SVGID_37_" cx="165.53" cy="32.16" r="2.21" gradientTransform="matrix(1 0 0 -1 -123.3 65.93)" gradientUnits="userSpaceOnUse">
		<stop  offset="0" style="stop-color:#FF0000"/>
		<stop  offset="1" style="stop-color:#FF721C"/>
	</radialGradient>
	<path class="st37" d="M40.5,34.9L40.5,34.9c0.4,0.5,1.1,0.7,1.7,0.5l0,0c0,0,0,0.1,0.1,0.1c0.3,0.5,0.9,0.7,1.4,0.4
		c0,0,0.1,0,0.1-0.1c0.5-0.3,0.6-0.9,0.3-1.4c0,0,0,0,0,0c-0.2-0.4-0.6-0.6-1-0.5c-0.3,0-0.5,0.3-0.5,0.6c0,0.1,0,0.2,0.1,0.3
		c0.1,0.2,0.5,0.3,0.7,0.2c0,0,0,0,0,0c0.1-0.1,0.2-0.2,0.2-0.4l0,0c0.2,0.2,0.2,0.6,0,0.8c-0.1,0.1-0.1,0.1-0.2,0.1
		c-0.4,0.1-0.9-0.1-1-0.5c0,0,0,0,0,0c-0.5,0.3-1.1,0.1-1.5-0.3l0,0c-0.2-0.5,0-1.1,0.4-1.5c-0.3-0.3-0.3-0.8-0.1-1.1c0,0,0,0,0,0
		c0.2-0.2,0.6-0.2,0.8,0c0,0.1,0.1,0.1,0.1,0.2l0,0c-0.1-0.1-0.3-0.1-0.5,0c-0.2,0.1-0.3,0.5-0.2,0.7c0,0,0,0,0,0
		c0.1,0.3,0.5,0.4,0.7,0.2c0.1,0,0.2-0.1,0.2-0.2c0.2-0.3,0.2-0.8,0-1.1c-0.3-0.5-0.9-0.6-1.4-0.3c0,0,0,0,0,0
		c-0.5,0.3-0.6,0.9-0.3,1.4c0,0,0,0,0,0l0.1,0.1l0,0C40.3,33.6,40.2,34.3,40.5,34.9L40.5,34.9L40.5,34.9z"/>
	
		<radialGradient id="SVGID_38_" cx="167.59" cy="26.88" r="1.3" gradientTransform="matrix(1 0 0 -1 -123.3 65.93)" gradientUnits="userSpaceOnUse">
		<stop  offset="0" style="stop-color:#FF0000"/>
		<stop  offset="1" style="stop-color:#FF721C"/>
	</radialGradient>
	<path class="st38" d="M43.2,37.7c0.3,0.7,1,1.2,1.7,1.4c-0.7,0.2-1.4,0.7-1.7,1.4"/>
	
		<radialGradient id="SVGID_39_" cx="166.99" cy="26.88" r="0.56" gradientTransform="matrix(1 0 0 -1 -123.3 65.93)" gradientUnits="userSpaceOnUse">
		<stop  offset="0" style="stop-color:#FF0000"/>
		<stop  offset="1" style="stop-color:#FF721C"/>
	</radialGradient>
	<path class="st39" d="M43.3,38.5c0.2,0.2,0.4,0.4,0.6,0.6c-0.3,0.1-0.5,0.3-0.6,0.6"/>
	
		<radialGradient id="SVGID_40_" cx="167.31" cy="28.85" r="0.95" gradientTransform="matrix(1 0 0 -1 -123.3 65.93)" gradientUnits="userSpaceOnUse">
		<stop  offset="0" style="stop-color:#FF0000"/>
		<stop  offset="1" style="stop-color:#FF721C"/>
	</radialGradient>
	<path class="st40" d="M43.6,38.3c0.5-0.2,0.8-0.7,0.8-1.2c0-0.5-0.3-0.9-0.7-1.1"/>
	
		<radialGradient id="SVGID_41_" cx="167.81" cy="28.8506" r="1.2296" gradientTransform="matrix(1 0 0 -1 -123.3 65.93)" gradientUnits="userSpaceOnUse">
		<stop  offset="0" style="stop-color:#FF0000"/>
		<stop  offset="1" style="stop-color:#FF721C"/>
	</radialGradient>
	<path class="st41" d="M44,38.6c0.6-0.3,1-0.9,1-1.6c0-0.6-0.3-1.2-0.9-1.5"/>
</g>
<linearGradient id="SVGID_42_" gradientUnits="userSpaceOnUse" x1="9.55" y1="45.85" x2="9.55" y2="59.95" gradientTransform="matrix(1 0 0 -1 0 80)">
	<stop  offset="0" style="stop-color:#0B0C0C"/>
	<stop  offset="1" style="stop-color:#1A181A"/>
</linearGradient>
<polygon class="st42" points="2.1,20.7 12.4,26.5 18.3,33.1 14.3,34.2 2.6,22.1 0.8,20 "/>
<linearGradient id="SVGID_43_" gradientUnits="userSpaceOnUse" x1="10.85" y1="21.76" x2="10.85" y2="30.47" gradientTransform="matrix(1 0 0 -1 0 80)">
	<stop  offset="0" style="stop-color:#0B0C0C"/>
	<stop  offset="1" style="stop-color:#1A181A"/>
</linearGradient>
<polygon class="st43" points="2.1,57.4 12.2,51.4 20.8,49.5 19.8,53.5 3.6,57.7 0.9,58.2 "/>
<linearGradient id="SVGID_44_" gradientUnits="userSpaceOnUse" x1="36.69" y1="3.12" x2="36.69" y2="24.58" gradientTransform="matrix(1 0 0 -1 0 80)">
	<stop  offset="0" style="stop-color:#0B0C0C"/>
	<stop  offset="1" style="stop-color:#1A181A"/>
</linearGradient>
<polygon class="st44" points="34,75.4 33.9,63.8 36.5,55.4 39.5,58.3 35.2,74.5 34.2,76.9 "/>
<linearGradient id="SVGID_45_" gradientUnits="userSpaceOnUse" x1="58.1" y1="22.26" x2="58.1" y2="36.23" gradientTransform="matrix(1 0 0 -1 0 80)">
	<stop  offset="0" style="stop-color:#0F0F0F"/>
	<stop  offset="1" style="stop-color:#000000"/>
</linearGradient>
<polygon class="st45" points="65.4,57.1 55.4,51.4 49.4,44.9 53.4,43.8 65.2,55.6 66.8,57.7 "/>
<linearGradient id="SVGID_46_" gradientUnits="userSpaceOnUse" x1="56.795" y1="51.44" x2="56.795" y2="59.76" gradientTransform="matrix(1 0 0 -1 0 80)">
	<stop  offset="0" style="stop-color:#0B0C0C"/>
	<stop  offset="1" style="stop-color:#1A181A"/>
</linearGradient>
<polygon class="st46" points="65.6,21.1 55.5,26.4 46.8,28.6 47.9,24.6 64.1,20.5 66.8,20.2 "/>
<linearGradient id="SVGID_47_" gradientUnits="userSpaceOnUse" x1="31.195" y1="57.45" x2="31.195" y2="78.88" gradientTransform="matrix(1 0 0 -1 0 80)">
	<stop  offset="0" style="stop-color:#0B0C0C"/>
	<stop  offset="1" style="stop-color:#1A181A"/>
</linearGradient>
<polygon class="st47" points="34,2.6 33.9,14 31.3,22.5 28.4,19.7 32.8,3.5 33.9,1.1 "/>
<linearGradient id="SVGID_48_" gradientUnits="userSpaceOnUse" x1="11.8" y1="51.31" x2="11.8" y2="59.46" gradientTransform="matrix(1 0 0 -1 0 80)">
	<stop  offset="0" style="stop-color:#0F0F0F"/>
	<stop  offset="1" style="stop-color:#000000"/>
</linearGradient>
<polygon class="st48" points="2.3,20.8 12.3,26.6 21.3,28.7 20.1,26 20.1,24.4 2.6,20.5 "/>
<linearGradient id="SVGID_49_" gradientUnits="userSpaceOnUse" x1="10.32" y1="22.68" x2="10.32" y2="36.33" gradientTransform="matrix(1 0 0 -1 0 80)">
	<stop  offset="0" style="stop-color:#0F0F0F"/>
	<stop  offset="1" style="stop-color:#000000"/>
</linearGradient>
<polygon class="st49" points="2.1,57.3 12.3,51.4 18.6,44.8 15.5,44.4 14.1,43.7 2,57 "/>
<linearGradient id="SVGID_50_" gradientUnits="userSpaceOnUse" x1="31.015" y1="4.45" x2="31.015" y2="24.73" gradientTransform="matrix(1 0 0 -1 0 80)">
	<stop  offset="0" style="stop-color:#0F0F0F"/>
	<stop  offset="1" style="stop-color:#000000"/>
</linearGradient>
<polygon class="st50" points="34.1,75.6 33.9,64.1 31.2,55.3 29.3,57.6 28,58.5 33.7,75.5 "/>
<linearGradient id="SVGID_51_" gradientUnits="userSpaceOnUse" x1="55.93" y1="22.57" x2="55.93" y2="30.5417" gradientTransform="matrix(1 0 0 -1 0 80)">
	<stop  offset="0" style="stop-color:#000505"/>
	<stop  offset="1" style="stop-color:#080808"/>
</linearGradient>
<polygon class="st51" points="65.4,57.2 55,51.3 46.4,49.5 47.6,52.2 47.6,53.8 65.2,57.4 "/>
<linearGradient id="SVGID_52_" gradientUnits="userSpaceOnUse" x1="57.38" y1="45.31" x2="57.38" y2="59.2" gradientTransform="matrix(1 0 0 -1 0 80)">
	<stop  offset="0" style="stop-color:#0F0F0F"/>
	<stop  offset="1" style="stop-color:#000000"/>
</linearGradient>
<polygon class="st52" points="65.6,20.8 55.4,26.5 49.2,33.2 52.1,33.7 53.5,34.7 65.6,21.5 "/>
<linearGradient id="SVGID_53_" gradientUnits="userSpaceOnUse" x1="36.8" y1="57.15" x2="36.8" y2="77.55" gradientTransform="matrix(1 0 0 -1 0 80)">
	<stop  offset="0" style="stop-color:#0F0F0F"/>
	<stop  offset="1" style="stop-color:#000000"/>
</linearGradient>
<polygon class="st53" points="33.8,2.5 33.8,14.2 36.5,22.9 38.3,20.5 39.8,19.8 34.3,2.8 "/>
<radialGradient id="SVGID_54_" cx="157.1266" cy="26.9154" r="36.4847" gradientTransform="matrix(1 0 0 -1 -123.3 65.93)" gradientUnits="userSpaceOnUse">
	<stop  offset="0" style="stop-color:#FF721C"/>
	<stop  offset="1" style="stop-color:#9B0000"/>
</radialGradient>
<path class="st54" d="M47.7,35.5c0.8-1.2,2.3-1.9,3.7-1.5c0.8,0.2,1.6,1.3,2.3,1c0.2-0.2,0.4-0.4,0.6-0.6l7.9-8.5l3.9-4.2
	c0,0,2.1-1.8,1.2-2.3c-0.6-0.3-2.3,0.4-2.9,0.6l-3,0.7l-4.7,1.1c-2,0.5-4.1,1-6.1,1.5c-0.9,0.2-1.9,0.5-2.8,0.7
	c-0.3,0-0.5,0.1-0.8,0.3c-0.1,0.1-0.1,0.2-0.1,0.2c0,0.4,0,0.7,0.1,1.1c0,0.3-0.1,0.6-0.1,1c-0.5,1.7-2.3,2.7-4,2.1
	c-0.4-0.1-0.8-0.3-1.1-0.6c-0.3-0.3-0.5-0.6-0.8-0.8c-0.3-0.3-0.8-0.4-1.2-0.4c-1.4-0.3-2.4-1.6-2.5-3c0-0.6,0.1-1.3,0.5-1.8
	c0.5-0.7,1.2-1.2,2-1.5c0.6-0.3,0.5-0.5,0.4-1.1s-0.3-1.1-0.5-1.6L36,5.7l-1.4-4.6c0-0.3-0.1-0.5-0.2-0.8c-0.4-0.7-0.9-0.2-1.1,0.4
	c-0.4,1-0.6,2.1-1,3.2c-1.4,4.6-2.8,9.1-4.1,13.8c-0.1,0.5-0.8,1.9-0.5,2.5c0.2,0.4,1.1,0.5,1.5,0.9c0.5,0.4,0.9,1,1.1,1.7
	c0.4,1.4-0.3,3-1.6,3.7c-0.6,0.4-1.5,0.2-2,0.7c-0.4,0.5-1,1-1.5,1.3c-1.3,0.6-2.9,0.2-3.8-0.9c-0.5-0.5-0.8-1.3-0.8-2
	c0-0.7,0.4-1.4-0.4-1.7c-1.2-0.4-2.3-0.6-3.5-0.8L4.1,20.1c-1.1-0.4-2.3-0.6-3.4-0.8c-1.7-0.1,0.4,1.8,0.7,2.2l3.8,4.1
	c2.6,2.8,5.2,5.6,7.9,8.3c0.3,0.4,0.6,0.7,1,0.9c0.5,0.2,0.7-0.2,1.2-0.5c1.5-1,3.5-0.5,4.5,1c0.6,0.9,0.7,2.1,0.2,3.1
	c-0.3,0.8,0.3,1.5,0.3,2.3c0,0.7-0.2,1.3-0.5,1.9c-0.8,1.2-2.3,1.7-3.6,1.4c-0.7-0.2-1.6-1.4-2.3-0.9c-0.2,0.2-0.4,0.4-0.6,0.7
	L10,47.4l-8.5,9.1c0,0-2.2,1.9-1,2.2c0.5,0,0.9-0.1,1.3-0.3l1.6-0.4l2.8-0.7l4.8-1.1c2.9-0.7,5.9-1.3,8.8-2.2c0.3,0,0.5-0.1,0.8-0.3
	c0.1-0.1,0.1-0.2,0.1-0.4c0-0.6,0-1.3,0.1-1.9c0.5-1.4,1.8-2.3,3.2-2.3c0.8,0,1.5,0.3,2.1,0.9c0.2,0.2,0.4,0.5,0.6,0.7
	c0.3,0.3,0.7,0.4,1.1,0.4c1.4,0.3,2.5,1.5,2.6,3c0.1,0.7-0.1,1.3-0.4,1.9c-0.5,0.7-1.2,1.2-2,1.5c-0.6,0.3-0.5,0.5-0.4,1
	s0.3,1,0.5,1.6l1.7,5.5l3.4,11.1c0.1,0.3,0.2,0.6,0.3,0.8c0.5,0.7,0.8,0.2,1-0.4c0.4-1.1,0.6-2.1,1-3.2c0.9-3,1.8-5.9,2.7-8.9
	c0.5-1.6,1-3.2,1.4-4.8c0.2-0.7,0.4-1.3,0.5-2c0.1-0.2,0.1-0.3,0-0.5c-0.4-0.3-0.9-0.6-1.4-0.8c-0.6-0.4-1-1.1-1.2-1.8
	c-0.3-1.4,0.2-2.9,1.5-3.7c0.6-0.4,1.6-0.2,2.1-0.7c0.3-0.2,0.4-0.6,0.7-0.8c0.3-0.3,0.6-0.5,1-0.6c1.3-0.5,2.9-0.1,3.8,1
	c0.5,0.6,0.7,1.3,0.8,2c0,0.7-0.4,1.4,0.4,1.7c1.2,0.4,2.4,0.6,3.7,0.8l6.2,1.4l6,1.4c1.1,0.3,2.3,0.6,3.4,0.8
	c1.7,0.1-0.4-1.8-0.7-2.2l-3.9-4.2c-1.7-1.9-3.5-3.7-5.2-5.5c-0.9-0.9-1.7-1.8-2.6-2.7c-0.3-0.4-0.6-0.7-1-0.9
	c-0.5-0.2-0.8,0.3-1.2,0.5c-1.3,0.7-2.8,0.5-3.9-0.5c-0.5-0.4-0.8-1-1-1.6c-0.1-0.8,0-1.7,0.4-2.4c0.1-0.6-0.3-1.2-0.4-1.8
	C47.2,36.7,47.4,36.1,47.7,35.5z M53.3,33.8c-1-0.8-2.3-1.2-3.6-0.9c1.9-2,3.7-4.3,5.7-6.2c0.6-0.4,1.2-0.8,1.8-1.1l4.8-2.7l3.4-2
	L54.8,32.2L53.3,33.8z M47.5,27.7c0.2-0.4,0.4-0.8,0.5-1.3c0-0.5,0-1,0.1-1.5c0.4-0.3,0.8-0.4,1.3-0.5l2.2-0.5
	c4.5-1.1,9.1-2.2,13.6-3.2L57.7,25c-0.7,0.5-1.5,0.9-2.3,1.3c-1.3,0.4-2.7,0.7-4.1,1l-4.3,1L47.5,27.7z M33.9,2.7l2.4,7.8l1.7,5.6
	l0.6,2.2c0.2,0.4,0.3,0.7,0.3,1.1c-0.4,0.4-0.9,0.7-1.4,1c-0.5,0.5-0.9,1.1-1.1,1.8c-0.8-2.7-1.9-5.4-2.5-8.1
	c-0.1-0.7-0.1-1.5-0.1-2.2V6.4C34,5.1,34,3.9,33.9,2.7L33.9,2.7z M30.2,20.5c-0.3-0.3-0.6-0.6-1-0.8c-0.5-0.3-0.6-0.2-0.4-0.8
	c0.4-1.4,0.8-2.7,1.2-4.1c1.2-4.1,2.5-8.2,3.7-12.3v8.7c0.1,0.9,0.1,1.7,0,2.6c-0.3,1.4-0.7,2.7-1.2,4l-1.3,4.2
	C30.9,21.6,30.6,21,30.2,20.5z M19.6,24.7c-0.2,1.3,0.1,2.6,1,3.6c-2.7-0.6-5.6-1.1-8.2-1.9c-0.7-0.3-1.3-0.6-1.9-1l-4.8-2.8
	l-3.3-1.9l15,3.5L19.6,24.7z M17.1,32.8c-0.4,0-0.9,0.1-1.3,0.2c-0.3,0.1-0.5,0.2-0.8,0.3c-0.2,0.2-0.4,0.3-0.6,0.4
	c-0.4-0.2-0.7-0.5-0.9-0.9l-1.6-1.7c-3.2-3.4-6.4-6.8-9.6-10.2l7.5,4.3c0.8,0.4,1.6,0.8,2.3,1.3c1,1,2,2,2.8,3.1l3,3.2L17.1,32.8z
	 M14.3,44.1c1,0.8,2.4,1.2,3.6,0.9c-1.9,2-3.7,4.3-5.7,6.2c-0.6,0.4-1.2,0.8-1.9,1.2l-4.8,2.8L2.3,57l10.5-11.3L14.3,44.1z
	 M20.1,50.3c-0.2,0.4-0.4,0.8-0.5,1.3c0,0.5,0,1-0.1,1.5c-0.4,0.3-0.8,0.4-1.3,0.5L16,54.1c-4.5,1.1-9.1,2.2-13.6,3.2L9.9,53
	c0.7-0.5,1.5-0.9,2.3-1.3c1.3-0.4,2.7-0.7,4.1-0.9l4.3-1L20.1,50.3z M33.7,75.3l-2.4-7.8l-1.7-5.6l-0.6-2.1
	c-0.2-0.4-0.3-0.8-0.4-1.2c0.1-0.3,1.1-0.7,1.5-1c0.5-0.5,0.9-1.1,1.1-1.8c0.8,2.7,1.9,5.3,2.5,8.1c0.1,0.7,0.1,1.5,0.1,2.2v5.6
	C33.7,72.9,33.7,74.1,33.7,75.3L33.7,75.3z M37.5,57.5c0.3,0.3,0.6,0.6,1,0.8c0.5,0.3,0.6,0.2,0.4,0.8c-0.4,1.4-0.8,2.7-1.2,4.1
	c-1.2,4.1-2.4,8.2-3.7,12.3v-8.7c-0.1-0.9-0.1-1.7,0-2.6c0.3-1.4,0.7-2.7,1.2-4l1.3-4.2C36.7,56.4,37.1,56.9,37.5,57.5L37.5,57.5z
	 M48,53.3c0.2-1.3-0.1-2.6-1-3.6c2.7,0.6,5.5,1,8.2,1.9c0.7,0.3,1.3,0.6,1.9,1l4.8,2.8l3.3,1.9l-15-3.5L48,53.3z M50.5,45.2
	c0.4,0,0.9-0.1,1.3-0.2c0.3-0.1,0.5-0.2,0.8-0.3c0.2-0.2,0.4-0.3,0.6-0.4c0.4,0.2,0.7,0.5,0.9,0.9l1.6,1.7c3.2,3.3,6.4,6.7,9.6,10.2
	l-7.5-4.3c-0.8-0.4-1.6-0.8-2.3-1.3c-1-0.9-2-1.9-2.8-3l-3-3.2L50.5,45.2z M46.9,34.9c-0.7,1.1-0.8,2.4-0.4,3.6
	c0.2,0.4,0.2,0.8-0.1,1.2c-0.1,0.3-0.2,0.7-0.2,1.1c0,0.6,0.1,1.2,0.3,1.8c0.2,0.6,0.6,1.1,1,1.5c0.5,0.4,1,0.7,1.6,1
	c1,0.9,1.9,1.9,2.7,2.9c1,1.1,1.9,2.1,2.9,3.2c-2.4-0.5-4.5-0.9-6.8-1.5c-0.4-0.1-0.8-0.2-1.2-0.3c-0.3-0.2-0.6-0.3-0.9-0.5
	c-0.9-0.5-2-0.7-3-0.4c-0.9,0.2-1.8,0.8-2.4,1.5c-0.4,0.3-0.8,0.5-1.3,0.5c-0.5,0.2-1,0.4-1.4,0.8c-0.7,0.6-1.2,1.4-1.4,2.4
	c-0.2,0.8,0,1.5-0.2,2.3c-0.8,2.6-1.6,4.7-2.3,7.3c-0.7-2.3-1.4-4.2-2.1-6.5c-0.2-0.4-0.3-0.8-0.4-1.3c0-0.3,0-0.7,0-1
	c0-1-0.4-2-1.1-2.8c-0.7-0.7-1.6-1.2-2.6-1.4c-0.4-0.1-0.8-0.4-1-0.8c-0.4-0.4-0.9-0.7-1.5-0.9c-0.9-0.3-1.9-0.3-2.8-0.1
	c-0.8,0.3-1.3,0.8-2.1,1c-2.6,0.6-4.9,1-7.5,1.6c1.6-1.7,3-3.3,4.6-5.1c0.3-0.4,0.6-0.7,0.9-1c0.3-0.2,0.5-0.3,0.8-0.5
	c0.9-0.5,1.6-1.4,1.9-2.3c0.3-0.9,0.2-2-0.1-2.9c-0.1-0.5,0-0.9,0.2-1.4c0.1-0.5,0.1-1.1,0-1.6c-0.1-0.9-0.6-1.8-1.3-2.5
	c-0.7-0.4-1.3-0.9-1.9-1.4c-1.8-2-3.4-3.8-5.2-5.7c2.3,0.5,4.4,0.9,6.7,1.5c0.5,0.1,0.9,0.2,1.4,0.3c0.3,0.2,0.6,0.3,0.8,0.5
	c0.9,0.5,2,0.7,3,0.4c0.9-0.2,1.8-0.8,2.4-1.5c0.4-0.3,0.8-0.5,1.3-0.5c0.5-0.2,1-0.5,1.4-0.8c0.7-0.6,1.2-1.4,1.4-2.3
	c0.2-0.8,0-1.5,0.2-2.4c0.8-2.5,1.6-4.6,2.3-7.2c0.7,2.3,1.4,4.1,2.1,6.4c0.2,0.4,0.3,0.8,0.4,1.3c0,0.3,0,0.7,0,1
	c0,1,0.4,2,1.1,2.8c0.7,0.7,1.5,1.2,2.5,1.4c0.4,0.1,0.8,0.4,1,0.8c0.4,0.4,0.9,0.7,1.5,0.9c0.9,0.4,1.9,0.4,2.8,0.1
	c0.8-0.3,1.3-0.8,2.1-1c2.6-0.6,4.8-1,7.4-1.6c-1.5,1.6-2.6,3-4.1,4.7c-0.4,0.6-1,1.1-1.5,1.6C48.2,33.6,47.5,34.2,46.9,34.9z"/>
<radialGradient id="SVGID_55_" cx="157.11" cy="26.93" r="6.68" gradientTransform="matrix(1 0 0 -1 -123.3 65.93)" gradientUnits="userSpaceOnUse">
	<stop  offset="0" style="stop-color:#D31C1C"/>
	<stop  offset="1" style="stop-color:#2A0000"/>
</radialGradient>
<path class="st55" d="M33.8,32.8c3.4,0,6.2,2.8,6.2,6.2s-2.8,6.2-6.2,6.2s-6.2-2.8-6.2-6.2c0,0,0,0,0,0
	C27.6,35.6,30.4,32.8,33.8,32.8 M33.8,32.3c-3.7,0-6.7,3-6.7,6.7s3,6.7,6.7,6.7c3.7,0,6.7-3,6.7-6.7c0,0,0,0,0,0
	C40.5,35.3,37.5,32.3,33.8,32.3L33.8,32.3z"/>
</svg>
