<svg xmlns="http://www.w3.org/2000/svg" xmlns:xlink="http://www.w3.org/1999/xlink" viewBox="0 0 427.33 422.86"><defs><style>.a{fill:none;}.b{fill:#141412;}.c{fill:url(#a);}.d{clip-path:url(#b);}.e{fill:#422a1a;}.f{fill:#2d1b15;opacity:0.4;}.g{fill:url(#c);}.h{fill:#383838;}.i{fill:#212121;}.j{fill:#0e0f11;}.k{fill:#43281a;}.l{fill:#5d392a;}.m{fill:#4f3125;}.n{fill:#5c392b;}.o{fill:#4e3025;}.p{fill:#462c21;}.q{fill:#372219;}</style><linearGradient id="a" x1="2061.05" y1="1260.28" x2="2132.63" y2="1260.28" gradientUnits="userSpaceOnUse"><stop offset="0.19" stop-color="#8c583e"/><stop offset="0.52" stop-color="#5f3a2c"/><stop offset="1" stop-color="#513022"/></linearGradient><clipPath id="b" transform="translate(-1877.04 -1043.56)"><path class="a" d="M2132.63,1122.31l-5,287.82h0l-61,1.46h0L2061,1120.22C2061,1103.74,2132.63,1106,2132.63,1122.31Z"/></clipPath><linearGradient id="c" x1="2098.81" y1="1410.81" x2="2098.81" y2="1410.81" xlink:href="#a"/></defs><title>Trainingdummy</title><path class="b" d="M2292.71,1453.79l-402.37,12.62c-8.65.27-15.33-6.36-12.72-12.69l30.06-72.91c3.51-8.5,13.15-14.19,24.4-14.38l319.81-5.16c9.8-.16,18.24,4.6,21.61,12.14l30.25,67.5C2306.34,1446.72,2300.47,1453.55,2292.71,1453.79Z" transform="translate(-1877.04 -1043.56)"/><path class="c" d="M2132.63,1122.31l-5,287.82h0l-62.53,1.5h0L2061,1120.22C2061,1103.74,2132.63,1106,2132.63,1122.31Z" transform="translate(-1877.04 -1043.56)"/><g class="d"><path class="e" d="M2059.63,1073.35c1,3.07.14,6.92-2.46,10.57-1.92,2.86-3.84,5.76-5.67,8.7l0,1.43c0.73-1.23,1.44-2.44,2.2-3.63,4.53-7.12,11.16-14,3.55-22.33a30,30,0,0,0-5.9-5.21v0.34a16.66,16.66,0,0,1,3.08,2.72C2056.46,1068.17,2058.83,1070.52,2059.63,1073.35Z" transform="translate(-1877.04 -1043.56)"/><path class="e" d="M2129.75,1157.13a8.9,8.9,0,0,0-3.2,0c-0.91.16-2.7,0.92-3.49,0.12a7.42,7.42,0,0,1-1.72-3.81,17.28,17.28,0,0,1,1.19-10.81c1.22-2.94,3.09-6.11,3.37-9.34,2.43-28.46-3.12-57.16-4.36-85.79l-1.35-.09c0.39,10.29,1.54,20.68,2.6,30.92,0.94,9.21,1.89,18.45,2.43,27.63,0.5,8.83,1.55,18.63-.11,27.28-1.42,7.28-6.85,13.26-4.28,21.1,0.63,1.94,1.62,3.81,4.09,3.48,0.63-.11,1.24-0.27,1.86-0.4" transform="translate(-1877.04 -1043.56)"/><path class="e" d="M2055.91,1197.91c3-11.11,7.89-22.63,6.62-34.42-1.15-10.69-6-20.8-9.9-31a16.81,16.81,0,0,0-.95-2l0,2c0.92,2.16,1.68,4.38,2.61,6.63a131.21,131.21,0,0,1,5.43,14.82,47.45,47.45,0,0,1,2,15.85,84.46,84.46,0,0,1-3.59,16.64q-3.09,11.06-6,22.18l0.07,3.68Q2054,1205,2055.91,1197.91Z" transform="translate(-1877.04 -1043.56)"/><path class="e" d="M2082.27,1195.57a17.27,17.27,0,0,1-3.79,4.21,18,18,0,0,1-1.81,1.26,22.37,22.37,0,0,1-2.81-4.16,34.82,34.82,0,0,1-3.89-14.57c-0.45-10.91,2.78-21.33,1.23-32.28-1.72-11.84-5.18-23.29-3.91-35.2s4-23.35,2.66-35.46-5.47-23.9-9.08-35.74l-1.11-.07c1.79,5.78,3.76,11.52,5.42,17.32a98.52,98.52,0,0,1,4.2,24c0.25,8.24-1.21,16.2-2.31,24.3a77.35,77.35,0,0,0,.39,25.43c1.58,8.34,3.94,16.87,3.4,25.28-0.92,14.38-4.81,28.41,5.18,41.58a1.18,1.18,0,0,0,.89,0c10.93-6.22,11.15-20.2,10.38-30.93-1-13.27-4.35-26.42-5.46-39.67-0.55-6.71.35-13.33,0.33-20,0-9-.6-17.94-0.76-26.92-0.24-13,0-26.56,4.25-38.79l-0.91-.05c-6.15,17.1-4.34,36.88-3.72,54.89,0.1,5.55.35,11.07,0.15,16.57-0.15,4-.66,8-0.41,12,0.46,7.88,2,15.74,3.27,23.57a151.76,151.76,0,0,1,2.55,24C2086.55,1182.66,2086.07,1189.94,2082.27,1195.57Z" transform="translate(-1877.04 -1043.56)"/><path class="e" d="M2066.16,1263.31c-2.13,11.83-3.64,24.09-8.41,35.31-1.62,3.78-3.37,7.49-5.09,11.21l0,2.69c1.85-4.19,3.78-8.36,5.58-12.62,4.76-11.27,6.49-23.26,8.6-35.09,1.11-6.23,2.23-12.47,3.69-18.62,1.21-5.09,3-10.06,4.17-15.15,1.12-4.75,3-11.11,1.05-16-1.26-3.1-4.47-3.62-7.5-2.4-7.53,3.06-9.63,9.49-10.47,16.61-0.51,4.13-.64,8.31-1.06,12.47a78.33,78.33,0,0,1-2.94,13.36c-0.42,1.53-.87,3-1.34,4.57l0.06,3.43q1.61-5.34,3-10.67c2.17-8.39,2-16.68,3.45-25.14,0.68-3.87,1.64-8.48,4.74-11.35,2.3-2.11,9-6.12,10.86-1.47,2,5,.42,11-0.7,15.92-1.23,5.26-3.12,10.38-4.32,15.68C2068.3,1251.84,2067.2,1257.55,2066.16,1263.31Z" transform="translate(-1877.04 -1043.56)"/><path class="e" d="M2136.1,1353.65c-8.37-19.87-11.24-42.81-8.44-67.57,1.15-9.37,2.42-18.77,1.75-28.26-0.73-10.2-2.42-20.35-3.5-30.52a126.35,126.35,0,0,1,0-29.06c1-8.4,2.09-17.12-1.13-25.4a1,1,0,0,0-.81-0.06c-6,3.26-7.17,12.2-8,17.9a147.37,147.37,0,0,0-1.42,26.45,37.19,37.19,0,0,0,.63,8.15c0.93,3.79,2.26,7.53,2.84,11.36s0.89,8.53-3.45,10.59c-4.05,1.92-4.65-4.45-4.91-6.53-1-8.71-2.38-17.4-1.77-26.14,0.79-11.26,3-22.31,3.4-33.62,0.37-12.15.54-24.35,1.3-36.47,0.8-12.46,3.25-24.58,4.28-37s0.54-25.16-.16-37.73c-0.28-5-.18-9.92-0.05-14.95a40.81,40.81,0,0,0-.42-7.63l-0.84,0c1.26,6.55-.45,13.55.16,20a232.25,232.25,0,0,1,.78,34.29c-0.66,12.5-3.34,24.72-4.29,37.21-0.92,12-1.12,24.13-1.55,36.26-0.33,11.62-2,22.92-3.12,34.44a88.6,88.6,0,0,0-.37,17.22c0.35,3.76,1.07,7.47,1.41,11.25,0.23,2.52.18,9.87,4.35,10.1,6.88,0.33,6.63-8.14,5.76-12.26-0.8-3.86-2.64-7.87-2.93-11.79-0.2-2.49-.31-5-0.35-7.47a154.53,154.53,0,0,1,1-22.09c0.77-6.21,1.57-14,5.77-19a9.47,9.47,0,0,1,1.53-1.56c0.89-.66.55-0.76,0.89,0.27a30.72,30.72,0,0,1,1.53,7.31,80,80,0,0,1-.69,15.64,139.86,139.86,0,0,0,.34,34.74c1.49,11.9,3.66,23.92,3.09,35.86-0.53,11.13-2.81,22-3.2,33.13s1.32,22,3.7,32.76a127.55,127.55,0,0,0,6.58,21.19" transform="translate(-1877.04 -1043.56)"/><path class="e" d="M2063.08,1393.66c-3.31,6.25-6.69,12.48-9.89,18.83l0,2,1.92-3.79c2.37-4.6,4.8-9.22,7.21-13.76,2.18-4.09,4.62-8.1,5.81-12.54,2.11-8,.41-15.88-0.66-23.91-0.76-5.7.3-11.41,0-17.12-0.06-3-.29-9-4.55-10-5.43-1.18-8.26,1.18-10.22,4.67l0,1.63c1.29-2.68,3.09-5.14,6.46-6,4.13-1,6,1.54,6.72,4.68,1.12,5,.58,10.08.39,15.08-0.25,6.24,1.28,12.38,1.77,18.61C2068.92,1378.57,2067.17,1386.08,2063.08,1393.66Z" transform="translate(-1877.04 -1043.56)"/><path class="e" d="M2091.83,1439.78a148.06,148.06,0,0,1-.7-27c0.76-14.46,2.46-28.87,4.13-43.26,3.74-32.23,6.58-64.8,4.5-97.28a149.63,149.63,0,0,0-1.54-16.48c-0.3-1.63-.47-4.32-1.85-5.67s-3.14.09-3.82,1.36c-2.7,4.73-3.84,10.39-4.87,15.62a62.5,62.5,0,0,0-1.61,16.91c0.69,8.33,2.43,16.77,2.24,25.19-0.09,3.79-.29,8-2.17,11.44-1.25,2.3-1.38,2.25-3.15.44a25.43,25.43,0,0,1-2.91-3.57c-8.4-12.9-5.77-29.82-2.7-43.52,3.42-15.28,8.92-29.93,13.56-44.86,5.93-19.2,7.43-39.19,7.95-59.24,1.06-41.25,3.19-82.38,4.68-123.58l-1.14-.08c-1,23-1.76,46.14-2.67,69.21-0.93,23.78-1,47.71-2.53,71.45A202,202,0,0,1,2087,1238.5c-5.11,15.29-10.56,30.89-12.54,47-1.57,12.85-1.52,28.24,10,37.69a1.13,1.13,0,0,0,.9,0c5.93-7.08,4-18.35,3.09-26.59-0.88-7.71-2.06-15.18-.94-22.85a91.19,91.19,0,0,1,4.16-17.87c0.64-1.8,1.33-4.44,3-5.7,1.38-1.06,2.23,3.25,2.4,4,2.11,10.66,2.24,21.85,2.42,32.56,0.22,12.27-.1,24.49-0.82,36.74-1.39,22.82-4.22,45.52-6.6,68.29-1.63,15.7-3.24,32.14-.9,48Z" transform="translate(-1877.04 -1043.56)"/><path class="e" d="M2108.34,1439.57a126.06,126.06,0,0,0,2.85-15.17c1.34-12.2.61-24.81,0.67-37.09,0.05-10.83.4-21.82-.6-32.65-1.36-14-4.57-27.82-5.66-41.84-0.86-11-2.61-28.15,7.29-36.35l-0.29-.6h0c-10.43,7.82-8.92,25-8,36,1.15,14.36,4.45,28.5,5.71,42.83,1,11.33.71,22.81,0.62,34.17-0.07,12.15.91,24.82-.81,36.91a138.86,138.86,0,0,1-2.87,13.87Z" transform="translate(-1877.04 -1043.56)"/><path class="e" d="M2136.16,1382.27a55.49,55.49,0,0,1-12.34-24.34c-2.31-9.88-3.75-19.89-5.79-29.83a78.46,78.46,0,0,1-2.29-13.58c-0.08-4.63.27-9.15,0.59-13.72,0.58-8.32,1.25-17-2.78-24.84a1.18,1.18,0,0,0-1-.06h0l1,0.07-0.68.54c3.89,8.05,3,17,2.38,25.49a93.53,93.53,0,0,0-.44,13.67c0.33,4.56,1.65,9.14,2.54,13.69,3.43,17.53,4.36,36.49,16.56,51.14" transform="translate(-1877.04 -1043.56)"/><path class="e" d="M2129.74,1399.81c6.21,8.15,5.52,20.6,4.76,30-0.27,3.29-.65,6.6-1.2,9.87h1.1a106.09,106.09,0,0,0,1.24-16.71c0.05-7.38.31-22.91-9.24-26.34-2.91-1-7.28-1.09-9.74.92-4.83,3.94-2.6,11.57-1.26,16.5,0.85,3.11,2,6.19,2.63,9.33,0.8,3.73-.08,7.72-0.7,11.43-0.28,1.69-.61,3.37-1,5.06l1,0,0.46-2.38c0.66-3.91,2.06-8.56,1.47-12.51a52,52,0,0,0-1.78-7c-1.53-5.14-4.34-12.16-2.1-17.47C2117.81,1394.72,2126.11,1395.16,2129.74,1399.81Z" transform="translate(-1877.04 -1043.56)"/><path class="e" d="M2058.5,1435.38c-0.31,1.57-.56,3.14-0.76,4.71l1,0,0.38-2.49c1.71-9.93,7.16-18.17,10.62-27.46,4.35-11.58,6-22.86,6.8-34.92,0.41-6.22.8-12.45,1.57-18.66,0.55-4.4.87-9.7,3.18-13.7,2.48-4.28,4.46,1.51,4.68,3.76a92.45,92.45,0,0,1-.75,17.74c-1.24,11.39-3.32,22.68-4.82,34.06-1.83,13.73-1.29,27.78-2.78,41.56h1.19c1.81-14.38.74-29.34,2.85-43.47,2-13.57,4.57-27.2,5.29-40.93,0.07-1.4,1.17-17.89-5-14.44-2.86,1.58-3.3,6.71-3.78,9.36a177.14,177.14,0,0,0-2,18c-0.91,12.36-1.44,24.17-5.4,36.18C2067.33,1415.1,2060.61,1424.56,2058.5,1435.38Z" transform="translate(-1877.04 -1043.56)"/></g><path class="f" d="M2132.63,1122.31c0-14.27-54.91-17.78-68.57-7.32-1.91,1.47-.29,4.48,2.11,3.94,9.69-2.19,31.29-5.83,49.64,0a10.83,10.83,0,0,1,7.66,10.19l-2.68,265.9c0,2.64,6.57-1.87,7.18-4.46h0a2.18,2.18,0,0,0,.06-0.47Z" transform="translate(-1877.04 -1043.56)"/><path class="g" d="M2098.81,1410.81" transform="translate(-1877.04 -1043.56)"/><path class="a" d="M2070.58,1109.75l46.79,1.45c7.78,0.24,14,6.08,13.83,13l-5,263.66h0l-61.08,1.21h0l-5.56-269.68C2059.46,1113.9,2064.39,1109.58,2070.58,1109.75Z" transform="translate(-1877.04 -1043.56)"/><path class="h" d="M2019.65,1401.6l150.3-3.29c3.11-.07,5.72,1.64,6.35,4.14l3.32,13.27c0.86,3.45-2.47,6.88-6.79,7l-156.7,4.14c-4.66.12-8.23-3.35-7.17-7l4-13.86C2013.71,1403.47,2016.44,1401.67,2019.65,1401.6Z" transform="translate(-1877.04 -1043.56)"/><path class="i" d="M2064.66,1389.06l63.36-1.25-0.35,19.29c0,1.67-1.73,3.06-3.8,3.11l-54.94,1.31c-2.11.05-3.86-1.28-3.89-3Z" transform="translate(-1877.04 -1043.56)"/><path class="j" d="M2116.83,1388l11.19-.22-0.34,19c0,1.84-1.9,3.36-4.16,3.42l-6.94.17Z" transform="translate(-1877.04 -1043.56)"/><path class="k" d="M2074.7,1167.44c4.82,0.1,8.75,4.77,8.79,10.4s-3.79,10.05-8.56,10-8.73-4.68-8.82-10.3S2069.87,1167.34,2074.7,1167.44Z" transform="translate(-1877.04 -1043.56)"/><path class="l" d="M2073.55,1185.92l-57.48-3.12a7.86,7.86,0,0,1-8.32-6.4h0c0.16-3.74,3.57-6.49,7.66-6.16l57.81-1c4.75,0.28,8.47,4.09,8.31,8.5v0h0C2081.78,1182.14,2078.22,1185.76,2073.55,1185.92Z" transform="translate(-1877.04 -1043.56)"/><path class="m" d="M2081.54,1177.78h0c0.23,4.36-3.34,8-8,8.11l-57.48-3.12a7.87,7.87,0,0,1-8.29-6.38h0s3.22,3.1,11,3.25,54.11,0.48,54.11.48S2079.88,1181,2081.54,1177.78Z" transform="translate(-1877.04 -1043.56)"/><path class="k" d="M2074.56,1331.87c5,0,9.17,5.11,9.21,11.47s-3.94,11.46-8.92,11.53-9.13-5-9.24-11.32S2069.51,1331.92,2074.56,1331.87Z" transform="translate(-1877.04 -1043.56)"/><path class="l" d="M2073.4,1352.78l-60.08-1.55c-4.6,0-8.44-3.16-8.64-7h0c-0.21-3.89,3.32-7.12,8-7.28l60.52-3c4.69,0,8.57,4.16,8.62,9.33h0C2081.8,1348.49,2078,1352.71,2073.4,1352.78Z" transform="translate(-1877.04 -1043.56)"/><path class="m" d="M2081.76,1343.37h0c0,5.13-3.7,9.37-8.36,9.43l-60.08-1.55c-4.6,0-8.44-3.16-8.64-7h0s3.42,3.41,11.55,3.31,56.59-1.25,56.59-1.25S2080,1347.07,2081.76,1343.37Z" transform="translate(-1877.04 -1043.56)"/><path class="k" d="M2081.84,1239c3.34,0,6.07,4.3,6.09,9.52s-2.63,9.36-5.94,9.35-6-4.22-6.11-9.42S2078.49,1239,2081.84,1239Z" transform="translate(-1877.04 -1043.56)"/><path class="l" d="M2081,1256.14l-39.62-2.14c-3.29-.31-5.79-2.89-5.63-5.81h0c-0.36-2.94,2-5.52,5.27-5.79l39.84-1.71c3.1,0,5.65,3.52,5.67,7.75h0C2086.51,1252.73,2084.11,1256.15,2081,1256.14Z" transform="translate(-1877.04 -1043.56)"/><path class="m" d="M2086.49,1248.52h0c0,4.21-2.46,7.63-5.54,7.62l-39.62-2.14c-3.29-.31-5.79-2.89-5.63-5.81h0a9.77,9.77,0,0,0,7.56,2.85c5.34,0,37.32-.27,37.32-0.27S2085.41,1251.53,2086.49,1248.52Z" transform="translate(-1877.04 -1043.56)"/><path class="k" d="M2122.51,1177.67c4.63,0.09,8.29,5.07,8.18,11.09s-3.9,10.75-8.47,10.68-8.26-5-8.21-11S2117.88,1177.58,2122.51,1177.67Z" transform="translate(-1877.04 -1043.56)"/><path class="l" d="M2123.58,1197.47l54-1.36a7.22,7.22,0,0,0,7.57-6.44h0a6.77,6.77,0,0,0-7-6.73l-54.31-3.23c-4.3-.08-7.89,3.88-7.94,8.77h0C2115.84,1193.38,2119.31,1197.41,2123.58,1197.47Z" transform="translate(-1877.04 -1043.56)"/><path class="m" d="M2115.89,1188.5h0c0,4.88,3.4,8.89,7.69,9l54-1.36a7.22,7.22,0,0,0,7.57-6.44h0s-3,3.13-10.13,3-50.87-1.37-50.87-1.37S2117.55,1192,2115.89,1188.5Z" transform="translate(-1877.04 -1043.56)"/><path class="k" d="M2113,1283.27a8,8,0,0,1,7.82,8.35,8.24,8.24,0,0,1-8,8.31,8,8,0,0,1-7.85-8.27A8.23,8.23,0,0,1,2113,1283.27Z" transform="translate(-1877.04 -1043.56)"/><path class="l" d="M2114.14,1298.39l51.28-1.84c3.8,0,7-2.28,7.11-5h0c0.12-2.77-2.9-5-6.72-5l-51.53-1.65c-4.18.09-7.52,3.14-7.47,6.82h0C2106.71,1295.32,2110,1298.32,2114.14,1298.39Z" transform="translate(-1877.04 -1043.56)"/><path class="m" d="M2106.8,1291.65h0c-0.09,3.67,3.19,6.67,7.34,6.74l51.28-1.84c3.8,0,7-2.28,7.11-5h0s-2.79,2.44-9.58,2.45-48.3-.29-48.3-0.29S2108.35,1294.31,2106.8,1291.65Z" transform="translate(-1877.04 -1043.56)"/><path class="n" d="M2130.27,1340.51l62.75,14.12a5.36,5.36,0,0,1,4.47,5l0.36,14.89c0.06,3-2.77,5.68-6.33,5.94l-0.42,0h0c-3.28.06-5.93-2-6.15-4.75l-0.33-4.2a5.45,5.45,0,0,0-4.75-4.71l-49.92-9.26" transform="translate(-1877.04 -1043.56)"/><path class="o" d="M2191.14,1380.44h0c-3.28.06-5.93-2-6.15-4.75l-0.33-4.21a5.45,5.45,0,0,0-4.75-4.71l-50-9.18,0.14-7.25,52.14,10.33c4.67,0.78,8,4.1,8.23,8.18Z" transform="translate(-1877.04 -1043.56)"/><polygon class="p" points="248.18 294.64 253.71 294.59 253.28 316.72 247.82 316.8 248.18 294.64"/><polygon class="q" points="248 305.8 253.49 305.73 253.28 316.74 247.82 316.82 248 305.8"/></svg>